<?xml version="1.0" standalone="no"?>
<!DOCTYPE svg PUBLIC "-//W3C//DTD SVG 20010904//EN"
 "http://www.w3.org/TR/2001/REC-SVG-20010904/DTD/svg10.dtd">
<svg version="1.0" xmlns="http://www.w3.org/2000/svg"
 width="200.000000pt" height="200.000000pt" viewBox="0 0 200.000000 200.000000"
 preserveAspectRatio="xMidYMid meet">
<metadata>
Created by potrace 1.14, written by Peter Selinger 2001-2017
</metadata>
<g transform="translate(0.000000,200.000000) scale(0.100000,-0.100000)"
fill="#000000" stroke="none">
<path d="M95 1986 c-41 -18 -83 -69 -90 -109 -3 -18 -4 -424 -3 -904 3 -862 3
-872 24 -899 11 -15 33 -37 48 -48 27 -21 36 -21 912 -24 980 -3 927 -6 980
64 l29 37 0 898 c0 891 0 898 -21 925 -11 15 -33 37 -48 48 -27 21 -36 21
-914 23 -722 2 -893 0 -917 -11z m1780 -111 l25 -24 0 -851 0 -851 -25 -24
-24 -25 -851 0 -851 0 -24 25 -25 24 0 851 0 851 25 24 24 25 851 0 851 0 24
-25z"/>
<path d="M542 1785 c-19 -9 -76 -15 -144 -16 -163 -2 -188 -19 -188 -128 0
-63 8 -76 40 -66 16 5 20 17 22 68 3 61 4 62 33 65 l30 3 -2 -78 c-1 -43 -2
-81 -2 -85 -1 -5 -10 -8 -21 -8 -10 0 -30 -5 -43 -11 -48 -22 -52 -39 -55
-270 -3 -209 -3 -216 16 -221 38 -10 42 9 42 208 0 174 2 194 19 215 l19 24
271 0 c266 0 271 0 293 -22 21 -21 22 -30 22 -218 1 -202 5 -222 43 -208 19 8
19 400 -1 447 -13 31 -43 50 -91 58 -18 3 -20 11 -21 86 l-1 82 28 0 c35 0 46
-20 43 -82 -2 -39 1 -48 17 -53 31 -10 39 3 39 66 0 111 -29 129 -205 129 -80
0 -124 4 -143 14 -23 12 -32 12 -60 1z m223 -85 c-4 -6 -78 -10 -191 -10 -116
0 -184 4 -184 10 0 6 70 10 191 10 124 0 188 -3 184 -10z m0 -70 c4 -7 -60
-10 -184 -10 -121 0 -191 4 -191 10 0 6 68 10 184 10 113 0 187 -4 191 -10z
m-2 -69 c5 0 6 -5 3 -10 -8 -13 -369 -8 -373 5 -2 7 53 10 179 9 101 -1 187
-3 191 -4z"/>
<path d="M1110 1775 c-18 -6 -36 -19 -42 -28 -16 -30 -5 -78 24 -100 23 -18
45 -20 165 -23 129 -2 138 -3 141 -22 3 -19 -3 -20 -123 -21 -213 -1 -215 -5
-215 -320 0 -228 1 -234 43 -223 15 4 17 23 17 223 0 206 1 220 20 239 22 22
19 22 157 23 85 1 98 -1 101 -16 3 -14 -5 -17 -51 -17 -115 0 -160 -26 -155
-87 5 -54 39 -75 129 -77 61 -2 74 -5 77 -19 3 -15 -8 -17 -96 -17 -104 0
-119 -6 -100 -42 7 -15 23 -18 103 -18 l95 0 0 -46 c0 -73 -11 -84 -80 -84
-33 0 -60 3 -61 8 -1 4 -2 19 -3 33 -4 35 -13 48 -34 44 -9 -2 -20 -4 -24 -4
-10 -1 -10 -93 0 -107 14 -21 52 -35 107 -37 113 -6 151 35 154 166 1 26 3 27
57 27 78 0 94 -11 94 -63 0 -51 -13 -67 -56 -67 -33 0 -48 -18 -38 -45 7 -18
84 -21 114 -5 40 22 52 135 20 188 -25 40 -54 52 -131 52 -51 0 -60 3 -57 17
2 14 16 17 71 19 81 3 117 19 130 57 22 69 -31 107 -147 107 -49 0 -57 2 -54
18 3 15 16 17 98 17 102 1 146 -7 168 -29 11 -10 14 -61 17 -227 1 -118 3
-218 4 -222 1 -5 11 -7 24 -5 22 3 22 3 25 220 4 314 -1 320 -214 319 -121 0
-124 1 -124 22 0 22 3 22 140 22 125 1 143 3 167 21 46 35 44 103 -4 123 -36
14 -132 20 -161 10 -23 -9 -30 -43 -11 -54 5 -4 41 -7 80 -7 68 0 92 -9 67
-24 -7 -5 -71 -9 -141 -10 -140 -2 -136 -4 -140 62 -2 34 -5 39 -27 39 -23 0
-25 -4 -28 -51 l-3 -51 -134 1 c-74 1 -137 4 -140 8 -17 17 12 28 74 28 59 0
69 3 74 19 2 10 1 25 -3 32 -10 16 -117 19 -160 4z m496 -357 c19 -20 -21 -26
-175 -28 -161 -1 -204 6 -166 27 17 10 331 10 341 1z"/>
<path d="M425 1464 c-5 -1 -22 -5 -37 -8 -58 -13 -71 -82 -20 -106 33 -16 338
-23 397 -10 68 15 84 65 33 103 -25 19 -44 21 -195 22 -93 1 -172 1 -178 -1z
m345 -64 c0 -14 -367 -14 -375 0 -4 7 60 10 184 10 121 0 191 -4 191 -10z"/>
<path d="M338 1312 c-10 -2 -18 -12 -18 -22 0 -31 27 -36 160 -34 69 1 132 -2
140 -7 15 -8 -54 -12 -205 -10 -77 1 -99 -7 -93 -35 3 -17 17 -19 158 -24 183
-6 189 -18 10 -18 -183 0 -172 1 -168 -24 3 -22 7 -23 153 -28 83 -3 143 -8
135 -12 -8 -4 -76 -9 -150 -10 -127 -3 -135 -4 -135 -23 0 -19 8 -20 127 -23
173 -4 223 19 230 106 2 27 6 32 28 32 43 0 53 -14 55 -75 2 -57 15 -78 42
-68 14 6 16 14 15 86 0 55 -22 94 -55 102 -31 8 -59 13 -75 14 -7 1 -11 5 -8
10 3 4 35 7 71 7 70 -2 94 13 75 44 -7 12 -52 15 -242 15 -128 0 -241 -1 -250
-3z"/>
<path d="M217 944 c-12 -12 -8 -637 4 -672 22 -64 35 -67 336 -70 270 -3 271
-3 278 18 13 42 -2 45 -278 46 -145 0 -268 4 -275 8 -7 4 -12 15 -12 25 0 17
17 18 258 19 141 0 267 0 278 1 24 1 38 35 20 49 -6 5 -114 10 -241 10 -347 0
-317 -3 -313 29 l3 27 273 1 c227 0 274 2 282 14 5 9 5 22 0 32 -8 15 -36 17
-257 17 -136 0 -260 1 -275 1 l-28 1 -2 223 c-3 215 -4 222 -23 225 -12 2 -24
0 -28 -4z"/>
<path d="M317 925 c-7 -37 12 -43 146 -41 66 0 122 -1 126 -4 4 -3 8 -20 8
-37 2 -88 1 -85 31 -81 26 3 27 5 27 58 0 30 3 57 7 60 3 3 38 4 77 4 149 -3
148 -3 155 -57 3 -25 -1 -43 -12 -57 -16 -19 -31 -20 -257 -22 -214 -3 -243
-5 -267 -21 -50 -34 -46 -118 7 -153 23 -15 57 -17 257 -18 289 -1 268 14 268
-196 0 -154 7 -178 44 -164 14 5 16 28 16 165 0 172 -10 217 -50 239 -34 18
-51 19 -286 20 -225 1 -235 3 -240 38 -4 26 50 32 269 32 204 0 225 2 255 20
38 23 52 54 52 113 0 56 -18 88 -60 109 -31 16 -68 18 -301 18 l-267 0 -5 -25z"/>
<path d="M1047 931 c-8 -32 11 -51 46 -47 56 8 58 3 55 -145 -3 -148 3 -135
-70 -138 -24 -1 -28 -5 -28 -30 0 -28 2 -30 48 -33 l47 -3 3 -137 3 -138 -45
0 c-46 0 -57 -10 -48 -43 4 -16 16 -17 116 -15 111 3 111 3 111 28 0 22 -5 25
-42 28 l-42 3 1 140 1 139 43 0 c43 0 49 5 44 40 -3 21 -15 27 -55 25 l-34 -2
2 141 2 140 38 1 c42 1 57 16 50 46 -5 17 -16 19 -123 19 -106 0 -118 -2 -123
-19z"/>
<path d="M1390 933 c-48 -25 -61 -56 -57 -130 3 -67 21 -97 67 -115 27 -10
383 -13 400 -3 13 8 13 42 0 50 -5 3 -89 6 -186 7 -190 1 -210 3 -218 24 -4
11 30 13 194 13 110 0 205 3 210 6 14 8 13 42 -1 51 -7 4 -99 7 -205 8 -106 1
-195 4 -198 7 -4 3 1 12 10 20 12 10 62 14 197 15 100 1 186 2 190 3 5 1 7 13
5 29 l-3 27 -185 3 c-160 2 -190 0 -220 -15z"/>
<path d="M1337 642 c-9 -2 -18 -8 -18 -13 -1 -5 -2 -15 -3 -21 -5 -29 16 -35
114 -34 96 1 118 -6 102 -31 -4 -5 -31 -11 -61 -12 -65 -3 -90 -12 -116 -41
-17 -19 -20 -39 -23 -155 -3 -115 -1 -133 13 -139 9 -3 24 -2 34 3 14 8 17 25
16 113 -1 101 8 157 26 159 45 7 44 11 49 -131 l5 -135 25 0 c24 0 25 4 30 64
5 60 7 65 30 66 38 4 46 -9 44 -70 -1 -43 3 -58 16 -65 34 -18 41 2 43 141 l2
134 25 -3 c45 -5 52 -22 55 -139 2 -59 3 -114 4 -121 1 -8 10 -12 24 -10 21 3
22 7 25 123 2 106 0 124 -18 153 -24 39 -52 51 -128 55 -44 2 -58 6 -60 20 -2
9 2 17 10 18 7 0 51 1 98 2 47 1 91 6 98 10 16 11 16 44 0 53 -12 8 -426 13
-461 6z m259 -174 c6 -4 10 -17 8 -30 -1 -13 -3 -26 -3 -30 -1 -5 -17 -8 -36
-8 -34 0 -35 1 -35 39 0 35 2 38 28 37 15 -1 32 -4 38 -8z"/>
</g>
</svg>
