<svg xmlns="http://www.w3.org/2000/svg" xmlns:xlink="http://www.w3.org/1999/xlink" width="1024px" height="400px"><style type="text/css">
path { fill: none; stroke: rgb(51,51,51); }
path.series { stroke: #6b63ff; }
rect.background { fill: rgb(255,255,255); stroke: none; }

text {
	stroke-width: 0;
	stroke: none;
	fill: rgba(51,51,51,1.0);
	font-size: 12.8px;
	font-family: 'Roboto Medium', sans-serif;
}
</style><rect x="0" y="0" width="1024px" height="400px" class="background" rx="8" /><rect class="background" rx="8" x="0" y="0" width="1024px" height="400px"></rect><path stroke-width="2" class="series" d="M 58 343 L 59 340 L 59 337 L 59 334 L 59 331 L 60 328 L 61 325 L 61 322 L 61 319 L 61 316 L 61 313 L 62 310 L 62 307 L 62 304 L 63 301 L 64 298 L 64 295 L 65 292 L 66 289 L 67 286 L 67 283 L 70 280 L 71 277 L 72 274 L 72 271 L 72 268 L 75 265 L 77 262 L 78 259 L 80 256 L 81 253 L 91 250 L 186 247 L 186 244 L 186 241 L 189 238 L 190 235 L 190 232 L 190 229 L 190 226 L 192 223 L 198 220 L 209 217 L 211 214 L 217 211 L 228 208 L 230 205 L 246 202 L 249 199 L 249 196 L 249 193 L 249 190 L 249 187 L 249 184 L 249 181 L 250 178 L 250 175 L 250 172 L 250 169 L 251 166 L 253 163 L 253 160 L 256 157 L 256 154 L 258 151 L 259 148 L 259 145 L 259 142 L 260 139 L 261 136 L 262 132 L 262 130 L 264 126 L 266 124 L 266 121 L 267 118 L 269 115 L 274 112 L 281 109 L 291 106 L 301 103 L 301 100 L 306 97 L 307 94 L 309 91 L 326 88 L 327 85 L 332 82 L 333 79 L 336 76 L 336 73 L 337 70 L 346 67 L 354 64 L 356 61 L 357 58 L 368 55 L 375 52 L 378 49 L 380 46 L 391 43 L 440 40 L 476 37 L 480 34 L 585 31 L 646 28 L 725 25 L 945 22" /><path stroke-width="2" class="series" d="M 58 343 L 59 340 L 59 337 L 59 334 L 59 331 L 60 328 L 61 325 L 61 322 L 61 319 L 61 316 L 61 313 L 62 310 L 62 307 L 62 304 L 63 301 L 64 298 L 64 295 L 65 292 L 66 289 L 67 286 L 67 283 L 70 280 L 71 277 L 72 274 L 72 271 L 72 268 L 75 265 L 77 262 L 78 259 L 80 256 L 81 253 L 91 250 L 186 247 L 186 244 L 186 241 L 189 238 L 190 235 L 190 232 L 190 229 L 190 226 L 192 223 L 198 220 L 209 217 L 211 214 L 217 211 L 228 208 L 230 205 L 246 202 L 249 199 L 249 196 L 249 193 L 249 190 L 249 187 L 249 184 L 249 181 L 250 178 L 250 175 L 250 172 L 250 169 L 251 166 L 253 163 L 253 160 L 256 157 L 256 154 L 258 151 L 259 148 L 259 145 L 259 142 L 260 139 L 261 136 L 262 132 L 262 130 L 264 126 L 266 124 L 266 121 L 267 118 L 269 115 L 274 112 L 281 109 L 291 106 L 301 103 L 301 100 L 306 97 L 307 94 L 309 91 L 326 88 L 327 85 L 332 82 L 333 79 L 336 76 L 336 73 L 337 70 L 346 67 L 354 64 L 356 61 L 357 58 L 368 55 L 375 52 L 378 49 L 380 46 L 391 43 L 440 40 L 476 37 L 480 34 L 585 31 L 646 28 L 725 25 L 945 22"></path><path stroke-width="2" d="M 945 346 L 945.000000 15.000000" /><path stroke-width="2" d="M 945 346 L 945.000000 15.000000"></path><path stroke-width="2" d="M 945 346 L 950 346" /><path stroke-width="2" d="M 945 346 L 950 346"></path><text xmlns="http://www.w3.org/2000/svg" x="955" y="352">0</text><path stroke-width="2" d="M 945 307 L 950 307" /><path stroke-width="2" d="M 945 307 L 950 307"></path><text xmlns="http://www.w3.org/2000/svg" x="955" y="313">13</text><path stroke-width="2" d="M 945 271 L 950 271" /><path stroke-width="2" d="M 945 271 L 950 271"></path><text xmlns="http://www.w3.org/2000/svg" x="955" y="277">25</text><path stroke-width="2" d="M 945 235 L 950 235" /><path stroke-width="2" d="M 945 235 L 950 235"></path><text xmlns="http://www.w3.org/2000/svg" x="955" y="241">37</text><path stroke-width="2" d="M 945 199 L 950 199" /><path stroke-width="2" d="M 945 199 L 950 199"></path><text y="205" xmlns="http://www.w3.org/2000/svg" x="955">49</text><path stroke-width="2" d="M 945 160 L 950 160" /><path stroke-width="2" d="M 945 160 L 950 160"></path><text xmlns="http://www.w3.org/2000/svg" x="955" y="166">62</text><path stroke-width="2" d="M 945 124 L 950 124" /><path stroke-width="2" d="M 945 124 L 950 124"></path><text xmlns="http://www.w3.org/2000/svg" x="955" y="130">74</text><path stroke-width="2" d="M 945 88 L 950 88" /><path stroke-width="2" d="M 945 88 L 950 88"></path><text x="955" y="94" xmlns="http://www.w3.org/2000/svg">86</text><path stroke-width="2" d="M 945 52 L 950 52" /><path stroke-width="2" d="M 945 52 L 950 52"></path><text x="955" y="58" xmlns="http://www.w3.org/2000/svg">98</text><path stroke-width="2" d="M 945 16 L 950 16" /><path stroke-width="2" d="M 945 16 L 950 16"></path><text xmlns="http://www.w3.org/2000/svg" x="955" y="22">110</text><text xmlns="http://www.w3.org/2000/svg" x="987" y="175" transform="rotate(90.00,987,175)">Stargazers</text><path stroke-width="2" d="M 57.000000 346.000000 L 945 346" /><path stroke-width="2" d="M 57.000000 346.000000 L 945 346"></path><path stroke-width="2" d="M 58 346 L 58 351" /><path stroke-width="2" d="M 58 346 L 58 351"></path><text xmlns="http://www.w3.org/2000/svg" x="25" y="368">2020-07-25</text><path stroke-width="2" d="M 157 346 L 157 351" /><path stroke-width="2" d="M 157 346 L 157 351"></path><text x="124" y="368" xmlns="http://www.w3.org/2000/svg">2020-09-24</text><path d="M 256 346 L 256 351" stroke-width="2" /><path stroke-width="2" d="M 256 346 L 256 351"></path><text xmlns="http://www.w3.org/2000/svg" x="223" y="368">2020-11-25</text><path stroke-width="2" d="M 354 346 L 354 351" /><path stroke-width="2" d="M 354 346 L 354 351"></path><text xmlns="http://www.w3.org/2000/svg" x="321" y="368">2021-01-25</text><path stroke-width="2" d="M 453 346 L 453 351" /><path stroke-width="2" d="M 453 346 L 453 351"></path><text x="420" y="368" xmlns="http://www.w3.org/2000/svg">2021-03-27</text><path d="M 551 346 L 551 351" stroke-width="2" /><path stroke-width="2" d="M 551 346 L 551 351"></path><text xmlns="http://www.w3.org/2000/svg" x="518" y="368">2021-05-27</text><path stroke-width="2" d="M 650 346 L 650 351" /><path stroke-width="2" d="M 650 346 L 650 351"></path><text xmlns="http://www.w3.org/2000/svg" x="617" y="368">2021-07-27</text><path stroke-width="2" d="M 748 346 L 748 351" /><path stroke-width="2" d="M 748 346 L 748 351"></path><text xmlns="http://www.w3.org/2000/svg" x="715" y="368">2021-09-26</text><path d="M 847 346 L 847 351" stroke-width="2" /><path stroke-width="2" d="M 847 346 L 847 351"></path><text xmlns="http://www.w3.org/2000/svg" x="814" y="368">2021-11-27</text><path stroke-width="2" d="M 945 346 L 945 351" /><path stroke-width="2" d="M 945 346 L 945 351"></path><text y="368" xmlns="http://www.w3.org/2000/svg" x="912">2022-01-27</text><text xmlns="http://www.w3.org/2000/svg" x="487" y="390">Time</text></svg>