<?xml version="1.0" standalone="no"?>
<!DOCTYPE svg PUBLIC "-//W3C//DTD SVG 20010904//EN"
 "http://www.w3.org/TR/2001/REC-SVG-20010904/DTD/svg10.dtd">
<svg version="1.0" xmlns="http://www.w3.org/2000/svg"
 width="630.000000pt" height="630.000000pt" viewBox="0 0 630.000000 630.000000"
 preserveAspectRatio="xMidYMid meet">
<metadata>
Created by potrace 1.14, written by Peter Selinger 2001-2017
</metadata>
<g transform="translate(0.000000,630.000000) scale(0.100000,-0.100000)"
fill="#000000" stroke="none">
<path d="M3360 4751 c0 -5 -15 -8 -32 -7 l-33 1 -3 -72 -3 -72 -72 -3 -72 -3
-3 -477 -2 -477 -73 -3 -72 -3 -3 -72 -3 -72 -107 -3 -107 -3 -3 -71 -3 -71
-107 -2 c-58 -1 -108 -4 -111 -7 -3 -2 -6 -30 -7 -62 -1 -31 -2 -60 -3 -64 0
-5 -25 -8 -55 -8 -84 0 -86 -2 -86 -81 l0 -69 -141 0 c-105 0 -138 3 -133 12
11 18 4 122 -9 130 -7 4 -40 8 -75 8 l-63 0 3 64 c1 36 -1 68 -4 72 -4 4 -38
7 -75 8 l-68 1 -5 145 -5 145 -80 0 c-74 0 -79 -1 -85 -23 -3 -13 -3 -215 0
-450 l5 -427 70 -5 70 -5 3 -72 3 -72 72 -3 72 -3 5 -70 5 -70 72 -3 71 -3 -8
-29 c-6 -20 -5 -30 2 -30 6 0 6 -6 -2 -15 -9 -11 -9 -15 -1 -15 7 0 9 -4 6
-10 -3 -5 -2 -18 4 -27 8 -14 23 -18 72 -18 69 0 66 4 72 -93 3 -41 6 -47 31
-53 15 -4 41 -6 58 -4 59 7 57 18 58 -286 0 -153 3 -285 6 -293 7 -18 41 -27
49 -12 3 7 7 7 10 1 3 -6 42 -8 101 -5 52 3 99 1 103 -3 5 -5 18 -4 30 2 19
10 21 21 21 91 0 57 -4 80 -12 81 -7 1 -37 2 -66 3 -63 2 -73 13 -70 75 l3 45
53 1 c28 1 52 -2 52 -6 0 -4 8 -5 19 -2 15 4 18 16 20 76 1 39 3 72 4 73 1 1
25 3 52 5 28 1 61 6 75 11 25 8 26 11 20 64 -8 74 2 87 66 82 l49 -3 3 -65 c4
-85 11 -92 89 -88 l63 3 0 -207 c0 -113 3 -213 6 -221 4 -12 31 -15 143 -16
76 -1 145 1 154 5 24 9 25 164 2 164 -8 0 -15 5 -15 11 0 6 -5 7 -12 2 -22
-13 -91 -14 -100 0 -14 21 -9 557 5 559 7 1 39 2 72 3 l60 3 3 72 3 72 69 -4
c51 -2 71 1 75 10 3 8 5 59 5 113 l0 100 59 -3 c54 -2 92 11 89 30 0 4 0 116
1 250 l1 242 60 0 60 0 0 -64 c0 -43 5 -67 14 -76 14 -11 124 -13 154 -2 9 3
12 43 12 152 0 131 -2 149 -17 155 -10 4 -78 6 -150 5 l-133 -1 0 135 0 136
280 1 c154 1 286 2 293 3 8 1 12 25 12 86 l0 85 -222 3 c-193 2 -223 4 -223
18 0 8 3 13 8 11 4 -3 5 17 4 44 l-4 50 360 -3 c333 -3 361 -2 371 14 13 20
15 645 3 665 -4 7 -36 13 -75 14 l-67 2 0 59 c0 108 60 98 -580 98 -324 0
-560 -4 -560 -9z m230 -311 l0 -60 -65 0 -65 0 0 60 0 60 65 0 65 0 0 -60z"/>
</g>
</svg>
