<svg xmlns="http://www.w3.org/2000/svg" xmlns:xlink="http://www.w3.org/1999/xlink"
  id="processonSvg1000" viewBox="-25.25 35.5 602.5 639.0" width="602.5" height="639.0">
  <defs id="ProcessOnDefs1001" />
  <g id="ProcessOnG1002">
    <path id="ProcessOnPath1003" d="M-25.25 35.5H577.25V674.5H-25.25V35.5Z" fill="none" />
    <g id="ProcessOnG1004">
      <g id="ProcessOnG1005" transform="matrix(1.0,0.0,0.0,1.0,66.25,319.5)" opacity="1.0">
        <path id="ProcessOnPath1006" d="M0.0 0.0L491.0 0.0L491.0 20.0L0.0 20.0Z" stroke="#323232"
          stroke-width="2.0" stroke-dasharray="none" opacity="1.0" fill="#80ff00" />
      </g>
      <g id="ProcessOnG1007" transform="matrix(1.0,0.0,0.0,1.0,52.25,104.5)" opacity="1.0">
        <path id="ProcessOnPath1008" d="M0.0 0.0L21.0 0.0L21.0 22.0L0.0 22.0Z" stroke="#323232"
          stroke-width="2.0" stroke-dasharray="none" opacity="1.0" fill="#80ff00" />
      </g>
      <g id="ProcessOnG1009" transform="matrix(1.0,0.0,0.0,1.0,73.25,105.0)" opacity="1.0">
        <path id="ProcessOnPath1010" d="M0.0 0.0L95.0 0.0L95.0 21.0L0.0 21.0Z" stroke="none"
          stroke-width="0.0" stroke-dasharray="none" opacity="1.0" fill="none" />
        <g id="ProcessOnG1011" transform="matrix(1.0,0.0,0.0,1.0,0.0,2.375)">
          <text id="ProcessOnText1012" fill="#000000" font-size="13" x="46.5" y="13.325"
            font-family="微软雅黑" font-weight="normal" font-style="normal" text-decoration="none"
            family="微软雅黑" text-anchor="middle" size="13">HTML parsing</text>
        </g>
      </g>
      <g id="ProcessOnG1013" transform="matrix(1.0,0.0,0.0,1.0,-5.25,55.5)" opacity="1.0">
        <path id="ProcessOnPath1014" d="M0.0 0.0L160.0 0.0L160.0 40.0L0.0 40.0Z" stroke="none"
          stroke-width="0.0" stroke-dasharray="none" opacity="1.0" fill="none" />
        <g id="ProcessOnG1015" transform="matrix(1.0,0.0,0.0,1.0,0.0,9.375)">
          <text id="ProcessOnText1016" fill="#000000" font-size="17" x="79.0" y="17.425"
            font-family="微软雅黑" font-weight="bold" font-style="normal" text-decoration="none"
            family="微软雅黑" text-anchor="middle" size="17">Legend</text>
        </g>
      </g>
      <g id="ProcessOnG1017" transform="matrix(1.0,0.0,0.0,1.0,52.25,144.5)" opacity="1.0">
        <path id="ProcessOnPath1018" d="M0.0 0.0L21.0 0.0L21.0 22.0L0.0 22.0Z" stroke="#323232"
          stroke-width="2.0" stroke-dasharray="none" opacity="1.0" fill="#a1a1a1" />
      </g>
      <g id="ProcessOnG1019" transform="matrix(1.0,0.0,0.0,1.0,52.25,186.5)" opacity="1.0">
        <path id="ProcessOnPath1020" d="M0.0 0.0L21.0 0.0L21.0 22.0L0.0 22.0Z" stroke="#323232"
          stroke-width="2.0" stroke-dasharray="none" opacity="1.0" fill="#6666ff" />
      </g>
      <g id="ProcessOnG1021" transform="matrix(1.0,0.0,0.0,1.0,73.25,187.0)" opacity="1.0">
        <path id="ProcessOnPath1022" d="M0.0 0.0L105.0 0.0L105.0 21.0L0.0 21.0Z" stroke="none"
          stroke-width="0.0" stroke-dasharray="none" opacity="1.0" fill="none" />
        <g id="ProcessOnG1023" transform="matrix(1.0,0.0,0.0,1.0,0.0,2.375)">
          <text id="ProcessOnText1024" fill="#000000" font-size="13" x="51.5" y="13.325"
            font-family="微软雅黑" font-weight="normal" font-style="normal" text-decoration="none"
            family="微软雅黑" text-anchor="middle" size="13">Script download</text>
        </g>
      </g>
      <g id="ProcessOnG1025" transform="matrix(1.0,0.0,0.0,1.0,73.25,145.0)" opacity="1.0">
        <path id="ProcessOnPath1026" d="M0.0 0.0L141.0 0.0L141.0 21.0L0.0 21.0Z" stroke="none"
          stroke-width="0.0" stroke-dasharray="none" opacity="1.0" fill="none" />
        <g id="ProcessOnG1027" transform="matrix(1.0,0.0,0.0,1.0,0.0,2.375)">
          <text id="ProcessOnText1028" fill="#000000" font-size="13" x="69.5" y="13.325"
            font-family="微软雅黑" font-weight="normal" font-style="normal" text-decoration="none"
            family="微软雅黑" text-anchor="middle" size="13">HTML parsing paused</text>
        </g>
      </g>
      <g id="ProcessOnG1029" transform="matrix(1.0,0.0,0.0,1.0,52.25,227.5)" opacity="1.0">
        <path id="ProcessOnPath1030" d="M0.0 0.0L21.0 0.0L21.0 22.0L0.0 22.0Z" stroke="#323232"
          stroke-width="2.0" stroke-dasharray="none" opacity="1.0" fill="#ff6666" />
      </g>
      <g id="ProcessOnG1031" transform="matrix(1.0,0.0,0.0,1.0,73.25,228.0)" opacity="1.0">
        <path id="ProcessOnPath1032" d="M0.0 0.0L105.0 0.0L105.0 21.0L0.0 21.0Z" stroke="none"
          stroke-width="0.0" stroke-dasharray="none" opacity="1.0" fill="none" />
        <g id="ProcessOnG1033" transform="matrix(1.0,0.0,0.0,1.0,0.0,2.375)">
          <text id="ProcessOnText1034" fill="#000000" font-size="13" x="51.5" y="13.325"
            font-family="微软雅黑" font-weight="normal" font-style="normal" text-decoration="none"
            family="微软雅黑" text-anchor="middle" size="13">Script execution</text>
        </g>
      </g>
      <g id="ProcessOnG1035" transform="matrix(1.0,0.0,0.0,1.0,2.75,285.5)" opacity="1.0">
        <path id="ProcessOnPath1036" d="M0.0 0.0L160.0 0.0L160.0 40.0L0.0 40.0Z" stroke="none"
          stroke-width="0.0" stroke-dasharray="none" opacity="1.0" fill="none" />
        <g id="ProcessOnG1037" transform="matrix(1.0,0.0,0.0,1.0,0.0,9.375)">
          <text id="ProcessOnText1038" fill="#000000" font-size="17" x="79.0" y="17.425"
            font-family="微软雅黑" font-weight="bold" font-style="normal" text-decoration="none"
            family="微软雅黑" text-anchor="middle" size="17">script</text>
        </g>
      </g>
      <g id="ProcessOnG1039" transform="matrix(1.0,0.0,0.0,1.0,66.25,461.5)" opacity="1.0">
        <path id="ProcessOnPath1040" d="M0.0 0.0L491.0 0.0L491.0 20.0L0.0 20.0Z" stroke="#323232"
          stroke-width="2.0" stroke-dasharray="none" opacity="1.0" fill="#80ff00" />
      </g>
      <g id="ProcessOnG1041" transform="matrix(1.0,0.0,0.0,1.0,27.25,424.5)" opacity="1.0">
        <path id="ProcessOnPath1042" d="M0.0 0.0L160.0 0.0L160.0 40.0L0.0 40.0Z" stroke="none"
          stroke-width="0.0" stroke-dasharray="none" opacity="1.0" fill="none" />
        <g id="ProcessOnG1043" transform="matrix(1.0,0.0,0.0,1.0,0.0,9.375)">
          <text id="ProcessOnText1044" fill="#000000" font-size="17" x="79.0" y="17.425"
            font-family="微软雅黑" font-weight="bold" font-style="normal" text-decoration="none"
            family="微软雅黑" text-anchor="middle" size="17">script async</text>
        </g>
      </g>
      <g id="ProcessOnG1045" transform="matrix(1.0,0.0,0.0,1.0,66.25,590.5)" opacity="1.0">
        <path id="ProcessOnPath1046" d="M0.0 0.0L438.75 0.0L438.75 20.0L0.0 20.0Z" stroke="#323232"
          stroke-width="2.0" stroke-dasharray="none" opacity="1.0" fill="#80ff00" />
      </g>
      <g id="ProcessOnG1047" transform="matrix(1.0,0.0,0.0,1.0,25.125,550.5)" opacity="1.0">
        <path id="ProcessOnPath1048" d="M0.0 0.0L160.0 0.0L160.0 40.0L0.0 40.0Z" stroke="none"
          stroke-width="0.0" stroke-dasharray="none" opacity="1.0" fill="none" />
        <g id="ProcessOnG1049" transform="matrix(1.0,0.0,0.0,1.0,0.0,9.375)">
          <text id="ProcessOnText1050" fill="#000000" font-size="17" x="79.0" y="17.425"
            font-family="微软雅黑" font-weight="bold" font-style="normal" text-decoration="none"
            family="微软雅黑" text-anchor="middle" size="17">script defer</text>
        </g>
      </g>
      <g id="ProcessOnG1051" transform="matrix(1.0,0.0,0.0,1.0,205.25,319.5)" opacity="1.0">
        <path id="ProcessOnPath1052" d="M0.0 0.0L174.75 0.0L174.75 20.0L0.0 20.0Z" stroke="#323232"
          stroke-width="2.0" stroke-dasharray="none" opacity="1.0" fill="#a1a1a1" />
      </g>
      <g id="ProcessOnG1053" transform="matrix(1.0,0.0,0.0,1.0,319.0,461.5)" opacity="1.0">
        <path id="ProcessOnPath1054" d="M0.0 0.0L61.0 0.0L61.0 20.0L0.0 20.0Z" stroke="#323232"
          stroke-width="2.0" stroke-dasharray="none" opacity="1.0" fill="#a1a1a1" />
      </g>
      <g id="ProcessOnG1055" transform="matrix(1.0,0.0,0.0,1.0,205.25,481.5)" opacity="1.0">
        <path id="ProcessOnPath1056" d="M0.0 0.0L113.75 0.0L113.75 20.0L0.0 20.0Z" stroke="#323232"
          stroke-width="2.0" stroke-dasharray="none" opacity="1.0" fill="#6666ff" />
      </g>
      <g id="ProcessOnG1057" transform="matrix(1.0,0.0,0.0,1.0,205.25,339.5)" opacity="1.0">
        <path id="ProcessOnPath1058" d="M0.0 0.0L120.75 0.0L120.75 20.0L0.0 20.0Z" stroke="#323232"
          stroke-width="2.0" stroke-dasharray="none" opacity="1.0" fill="#6666ff" />
      </g>
      <g id="ProcessOnG1059" transform="matrix(1.0,0.0,0.0,1.0,205.25,610.5)" opacity="1.0">
        <path id="ProcessOnPath1060" d="M0.0 0.0L113.75 0.0L113.75 20.0L0.0 20.0Z" stroke="#323232"
          stroke-width="2.0" stroke-dasharray="none" opacity="1.0" fill="#6666ff" />
      </g>
      <g id="ProcessOnG1061" transform="matrix(1.0,0.0,0.0,1.0,326.0,359.5)" opacity="1.0">
        <path id="ProcessOnPath1062" d="M0.0 0.0L54.0 0.0L54.0 20.0L0.0 20.0Z" stroke="#323232"
          stroke-width="2.0" stroke-dasharray="none" opacity="1.0" fill="#ff6666" />
      </g>
      <g id="ProcessOnG1063" transform="matrix(1.0,0.0,0.0,1.0,319.0,517.5)" opacity="1.0">
        <path id="ProcessOnPath1064" d="M0.0 0.0L61.0 0.0L61.0 20.0L0.0 20.0Z" stroke="#323232"
          stroke-width="2.0" stroke-dasharray="none" opacity="1.0" fill="#ff6666" />
      </g>
      <g id="ProcessOnG1065" transform="matrix(1.0,0.0,0.0,1.0,505.0,634.5)" opacity="1.0">
        <path id="ProcessOnPath1066" d="M0.0 0.0L52.25 0.0L52.25 20.0L0.0 20.0Z" stroke="#323232"
          stroke-width="2.0" stroke-dasharray="none" opacity="1.0" fill="#ff6666" />
      </g>
    </g>
  </g>
</svg>