<svg xmlns="http://www.w3.org/2000/svg" viewBox="0 0 490 255"><title>flex-wrap</title><g id="752eaa31-eeae-47a7-b3b6-9520aadb2cec" data-name="Layer 10"><path d="M479.7,182.87a7.73,7.73,0,0,0-1.62-3.21q.35-23.88.7-47.75c.2-13.85.43-27.7.61-41.54.1-7.91-.46-15.89-.47-23.84a38.65,38.65,0,0,0,1-22.4A5.77,5.77,0,0,0,476.69,40l0-.67c.21-4,.69-8.49-1.69-12s-6-4.24-10-4.31c-18.21-.36-36.44-.3-54.65-.35q-54.66-.13-109.3.58-28.53.36-57.05,1a1010.12,1010.12,0,0,0-113-5.15,13,13,0,0,0-8.35,3.47L65.16,20.25a10.72,10.72,0,0,0-6.78,2.59l-27.75-3c-2.87-4.39-9.25-2.37-13.61,1.74a17.19,17.19,0,0,0-5.45,3.13A23.84,23.84,0,0,0,5,34.26C3.72,37.7,3.17,41.69,4.46,44.7c-2.64,10.13-2.76,21-1.92,31.81,1.53,19.61,1.65,39.26,1.53,58.93-.13,20.81-.55,41.62-.12,62.43.18,9-1.39,21.81,3.85,29.63,4.51,6.74,13,8.13,20.51,8.21,20.54.23,41.07-1.92,61.57-3.09a551.22,551.22,0,0,1,61.78.42c41.57,2.31,83.11,2.27,124.73,2.27,47.05,0,94.14.52,141.17-1.05a12.48,12.48,0,0,0,2.68-.41c.21,0,.41.09.62.12a5.72,5.72,0,0,0,1.6,1.12c10.63,4.91,21.77,3.48,31.15-1.76,1.69.42,3.39.83,5.07,1.27a2.66,2.66,0,0,0,.39.07,6.38,6.38,0,0,0,5.12.81c6-1.41,9.67-7.48,12.05-12.6A58.64,58.64,0,0,0,479.7,182.87ZM56.16,63.91A13.8,13.8,0,0,0,54.22,65l-.13,0C56.89,62.49,56.81,63.05,56.16,63.91ZM26,82.46l0,0C25.41,83.2,25.51,83,26,82.46ZM34.2,184.24a.47.47,0,0,0-.06.34C34.27,184.91,32.28,184.71,34.2,184.24Zm-.84-78.15c-1.25-.28-.06-2.3,0,0ZM427.53,92.63a35.85,35.85,0,0,0,5.28-3.78c.23,1,.47,2.05.73,3.07Q430.54,92.3,427.53,92.63Z" fill="#995db5"/><path d="M473.58,28.07c-36.72-9.29-74.72-8.48-112.26-6.73-18.8.87-37.59,2-56.4,2.09-19.54.14-39.08-.77-58.59-1.53s-39.21-1.48-58.82-1.2c-19.35.27-38.56,2-57.82,3.64s-38.5,3.11-57.8,2.41c-9.59-.34-19.09-1.56-28.65-2.34-8.09-.66-18.06-1.87-25.92.75C10,27.6,6.45,34.74,6.89,41.88a11.26,11.26,0,0,0-.61,2A81,81,0,0,0,5,60.27C3.49,84.13,4.14,108,8.52,131.64a2.92,2.92,0,0,0,.72,1.54C9,155,8.35,176.82,7.6,198.63,7.28,207.75,7,216.88,6.47,226c-.19,3.35,2.87,4.49,5.51,3.18,3.28-1.63,5.1-5.72,5.3-9.19,1.11-19.25,1.55-38.56,2.06-57.83.55-20.89,1.47-41.93.68-62.83-.09-2.58-.29-5.17-.55-7.75.7-5.81,1.49-11.6,2-17.36a103.55,103.55,0,0,0-.28-24.38,68.83,68.83,0,0,0-2.5-10.69c-.1-.32-.2-.7-.31-1.09a12.64,12.64,0,0,1,1.42-.25c17.87-1.39,35.91,2.63,53.8,2.83,18.65.21,37.26-1.37,55.82-3,18.28-1.6,36.53-3,54.89-3.25s36.61.44,54.9,1.16S275.75,37.1,294,37.17s36.32-.87,54.46-1.75c40.07-1.93,80.69-3.55,119.92,6.37C473.92,43.18,480.28,29.76,473.58,28.07Z" opacity="0.2"/><path d="M479.84,215c0-1.65,0-3.31,0-5q-.1-14.13-.23-28.26-.37-43.59-.71-87.16c-.15-18.79-.62-37.6-.45-56.39,0-5.11,1.45-11.62-3.63-14.89-4.38-2.83-11.38-1.72-16.33-1.85-2.71-.07-5.41-.17-8.12-.2-2.92,0-5.85,0-8.77,0H314.15q-89.34,0-178.67,0c-33.1,0-66.19.12-99.28.07-4.52,0-9-.07-13.55,0s-11-.48-14.86,2.64c-3.5,2.83-2.37,6.68-2.5,10.64a1.08,1.08,0,0,0,0,.19c-.14,45.66-.44,91.31-.67,137q-.08,16.29-.16,32.57c0,6.48-.44,13.25.45,19.68,1.44,10.38,16.31,9.29,24.18,9.28,6.82,0,13.55-.18,20.36,0,3.45.11,6.93,0,10.38,0l132.89-.3,176.33-.43,60-.16c13.45,0,28.12,1.06,41.32-.74,3.05-.42,6.65-1.2,8.13-4.24C480.17,224.17,479.76,218.64,479.84,215Zm-2.65,5.72c-.18,2.41.09,5.8-2.21,7.45-1.5,1.09-4.38,1.35-6.1,1.52-6.27.62-12.7.37-19,.49-2.64,0-5.29,0-7.94,0l-44.83.11-163,.4-152.57.4c-10.56,0-21.18.36-31.75.09-5.05-.12-10-.35-15.11-.14-6.69.27-14.55.85-21-1.08-5.32-1.59-6.45-3.82-6.82-8.88-.14-1.88-.3-3.79-.34-5.68-.1-4.94,0-9.9,0-14.84L6.72,47.35q0-6.27,0-12.53a.7.7,0,0,0,0-.14c.22-4.93-.86-9.08,5.42-10.84,3.21-.9,7.14-.6,10.46-.64,4.31,0,8.61,0,12.92,0H50.84q27.12,0,54.24.05l168.31.06,148,0c9.6,0,19.21-.09,28.81,0h.38c4,0,7.92.2,11.88.31,4.9.13,12.24-.85,13.86,5.26.88,3.32,0,7.25,0,10.74q.09,11.1.17,22.2.56,74.41,1.1,148.83c0,1.45.06,2.9,0,4.35C477.55,217,477.32,218.84,477.19,220.71Z" fill="#1e1e1e"/><path d="M111.8,47.87c-.47-2.86-3.85-1.8-5.34-.6a8.47,8.47,0,0,0-3,7.75,128.07,128.07,0,0,1,1.7,20.13c0,5.2.32,11.56-.84,17-7.93,2.91-18.75,1.16-26.6.79A233,233,0,0,1,48,90c-4.53-.8-9.49,10-4.13,11a238.57,238.57,0,0,0,30.64,3c9.77.45,20.25,1.43,29.67-1.81s8.9-15.08,9.4-23.35A138.14,138.14,0,0,0,111.8,47.87Z" opacity="0.15"/><path d="M192.35,49.07c-.66-7.09-9.08.18-8.65,4.8a153.5,153.5,0,0,1-1,37.25c-4,.48-8.24.32-12.09.43q-7.26.2-14.52,0c-9.32-.21-18.79-1.77-28.09-.93-4.45.4-8.27,11.35-2,10.79,5.08-.46,10.28.38,15.36.68s10.31.48,15.47.51q6.78,0,13.55-.24c4.35-.17,9.87.32,14-1.16,7.86-2.82,7-15.8,7.63-22.41A159,159,0,0,0,192.35,49.07Z" opacity="0.15"/><path d="M311.92,71.92a128.72,128.72,0,0,1,1.35-21.75c.23-1.58,0-4.32-2.14-4.42l-1.47-.08c-4.23-.2-8.48,8.78-5.33,10.65a142.3,142.3,0,0,0-1.1,17.51q0,5.31.45,10.61c.16,1.92.38,3.84.61,5.75,0,.06,0,.12,0,.17a76.76,76.76,0,0,1-9.34-.1c-4-.06-7.91-.19-11.86-.27q-12.44-.26-24.87-.27c-16.57,0-33.15.14-49.73.32-4.67,0-9.24,11-4.13,11,27.52-.29,55-.54,82.54.14,9.56.23,25.77,2.3,26.42-11.35C313.62,84,312.06,77.82,311.92,71.92Z" opacity="0.15"/><path d="M453.22,49c0-2.64-2.17-3.64-4.41-2.54-2.49,1.22-4.27,4.64-4.24,7.35.07,6.77,0,13.54-.38,20.31q-.26,4.83-.66,9.65c-.18,2.12-.14,5.06-.53,7.57-3.36,1.33-8.9,1.23-11.63,1.24a92.89,92.89,0,0,1-13-1.16,203.8,203.8,0,0,0-30.73-2.09c-9.82.12-19.62.86-29.43,1.34-5.11.25-10.22.43-15.33.43-2.5,0-13.89.71-14.73-.61-2.82-4.37-10,5.11-7.45,9.07,1.76,2.74,5.92,2.16,8.77,2.3,3.7.17,7.41.24,11.11.21,7.77-.06,15.52-.52,23.27-1,16.07-.91,32-1.27,48,.94,6.61.91,13.15,1.86,19.83,1.3,5.93-.5,13.46-1.29,17.15-6.59,3.94-5.66,3.21-15,3.68-21.66C453.1,66.46,453.32,57.75,453.22,49Z" opacity="0.15"/><path d="M106.89,43.89c-.12-1-2.53-3.14-5.76-3.12-2.44,0-51.43-.07-53.77,0-1,0-5.43.33-5.72.78a9.82,9.82,0,0,0-1.15,4.56c0,.77-.33,43.62-.23,45.18,0,.7,4.1,3.27,6.11,3.31,2.38.05,57.6.32,58.26,0a5,5,0,0,0,2.31-4C107,89.3,107,44.91,106.89,43.89Z" fill="#f7941f"/><path d="M185.85,42.91c-.1-1-2.5-1.86-2.83-1.93-.7-.14-59.78-.6-61.76-.53-.85,0-2.71,4.45-2.68,5.65,0,.78,0,44.66,0,44.66.08,1.57,4.55,4.2,6.25,4.24,2,0,57.91-.08,58.48-.42a5.93,5.93,0,0,0,2.52-4C185.84,89.3,186,43.93,185.85,42.91Z" fill="#f7941f"/><path d="M446.87,44.89c-.13-1-2.84-3.84-3.22-3.91-.83-.14-120.2-.7-121-.34-.64.27-3.82,4.26-3.78,5.47,0,.77-.43,42.05-.33,43.62.05.7,4.1,3.89,4.7,4.48,1.08,1.08,117.33.92,119.59.53.82-.14,4.06-2.91,4.12-4.18S447,45.91,446.87,44.89Z" fill="#f7941f"/><path d="M306.48,88.43c-.22,2-1.65,5.63-5,5.64-1.45,0-97.89.8-99.33.11-1.1-.54-3.88-1.92-3.82-4.25.05-1.51-.88-38.78-.71-41.82a6.57,6.57,0,0,1,1.7-3.94c1.85-2.1,5.84-2.4,9.27-2.48,4.09-.1,92.82-1.72,94-1,2.66,1.56,4.41,6.42,4.52,8.9S306.69,86.45,306.48,88.43Z" fill="#f7941f"/><path d="M445.54,44.92c-1-3.9-5.57-3.33-8.75-3.37a148.85,148.85,0,0,0-16.08.77c-11-.55-22.1-1-33.14-.81-9.9.16-19.75,1.35-29.64,1.47-10.87.14-21.59-2.15-32.47-1.46-2.82.18-4.76,3.27-4.79,5.92q-.29,21.18-.19,42.37c0,5.29,6.5-.17,6.49-3.6q-.09-18.28.14-36.58c8.94.06,17.81,1.61,26.78,1.59,10.2,0,20.38-1.31,30.59-1.47,18.78-.3,37.63,1.15,56.39,2C443.87,51.85,446.19,47.54,445.54,44.92Z" fill="#fff" opacity="0.25"/><path d="M304.46,45.7c-1.41-2.36-3.6-2.36-6.15-2.6-3.9-.36-7.82-.63-11.73-.94-7.28-.59-14.61-1.45-21.92-1.52-6.69-.07-13.2,2-19.83,1.76-7.53-.29-15.05.3-22.58-.21-5.59-.38-13.16-1.86-18.56.17-4.9,1.85-6.58,4.73-6.85,9.53A131.67,131.67,0,0,0,197.75,75c.53,4.41,0,13,5.31,14.36,2.73.68,4.76-3.93,4.8-5.92.12-7,.44-14.09,1-21.12a80.94,80.94,0,0,1,1.72-10.78,11.3,11.3,0,0,0,.34-3.62q3.63.12,7.24.34c5.75.36,11.47,1,17.18,1.73,10.18,1.34,19.72-1.46,29.89-.95,5.43.28,10.85.81,16.26,1.25l7.82.62c1.95.16,8.37-.3,9.53,1.64C300.85,55.81,306.27,48.73,304.46,45.7Z" fill="#fff" opacity="0.25"/><path d="M447.33,49.61c0-1.49,0-3-.08-4.49a.64.64,0,0,0,0-.43c-1.31-3.84-3.48-4.31-6.88-4.38-4.7-.09-9.4-.1-14.1-.15C410.52,40,394.77,40,379,39.9l-41.09-.18c-2.38,0-4.76,0-7.15,0-2.82,0-9.28-.81-11.49,1.41-1.59,1.59-1.39,5.4-1.46,7.47-.42,12.32-.67,24.73-.64,37.06,0,2.31-.45,5.19,1.05,7s4.5,2.85,6.72,3.07c3.39.34,6.95.06,10.34.08q43.17.31,86.34.53c3.81,0,7.59-.12,11.4-.24,5.95-.2,14.37,1.29,14.51-6.59C447.8,76.23,447.48,62.9,447.33,49.61ZM445.67,81.4q0,3.39-.06,6.79c0,3.41-.42,5.11-4.8,5.52-5.25.5-10.74.35-16,.41-25.32.32-50.69-.34-76-.49l-17.32-.11c-2.93,0-6.25.44-9-.78-4.48-2-3-10.68-2.94-14.89q.15-10.74.32-21.5c0-2.37.05-4.74.11-7.11.1-3.81-.22-6.84,4.54-7.23,3.26-.27,6.55-.21,9.83-.2l32.59.11,50.08.16,18.89,0c3.68,0,8.23-1.33,9.92,3l0,0C446.69,57.08,445.77,69.41,445.67,81.4Z" fill="#1e1e1e"/><path d="M307.35,58.08c0-4.73,2.44-14.8-3.1-17.45-2.45-1.18-6.4-.9-9.16-1-22.61-.54-45.3.17-67.91.53-2.26,0-4.53.06-6.79.11-3.86.07-7.71.16-11.56.24-3.32.08-7.29-.25-10,2.08-3.37,2.9-2.38,8.69-2.32,12.67q.12,9.78.3,19.55c.08,4.43-.12,9,.34,13.41.2,1.88.21,4.79,1.89,6,2.43,1.77,8.11,1,10.88,1.09,9.13.29,18.24.28,27.38.27l39.84,0,10.53,0c5.15,0,10.38.07,15.48-.85,4-.72,4.07-2.57,4.09-6.29a.5.5,0,0,0,0-.13C308,78.35,307.37,68.1,307.35,58.08ZM283.77,93.61h-7.62q-15.88,0-31.76,0c-8.32,0-16.64.06-24.95,0l-2.65-.06c-4.42-.14-10.72.77-14.95-.69-3.9-1.35-2.74-9.08-2.79-12.94-.14-10.08-1.35-20.76-.33-30.8.63-6.23,4.65-6.12,9.42-6.23q6.12-.14,12.25-.24c1.69,0,3.39-.06,5.08-.08,21-.31,41.92-.68,62.89-.66,3.28,0,6.58,0,9.87.13,3.83.19,6.58,1.39,7.32,6.17.49,3.21-.11,6.7-.05,9.94.17,10,1.06,20.27.3,30.23a.43.43,0,0,0,0,.17C305.33,96.26,288.94,93.64,283.77,93.61Z" fill="#1e1e1e"/><path d="M184.55,42.32c-11.13,0-22.25-.24-33.35-1-8.27-.52-21.43-3.73-28.84,1.42-2.9,2-3.93,5.12-3.79,8.5a115.35,115.35,0,0,1-.66,17.12c-.9,8.86-1,17.94,4.15,25.61,2.49,3.7,6.25-4,5.91-6.09a87.08,87.08,0,0,1-1-19.42c.18-2.81.73-5.58.85-8.38.12-3-1.74-7.4-.92-10.15a6.89,6.89,0,0,0,.24-1.22,36.87,36.87,0,0,1,4.16-.2c8.17-.11,16.43,1.1,24.61,1.49q12.74.6,25.5.52C185,50.54,188.39,42.31,184.55,42.32Z" fill="#fff" opacity="0.25"/><path d="M187,87c0-5.26-.07-10.53-.12-15.79-.09-9.32.24-18.76-.34-28.07a.61.61,0,0,0,0-.4c-.66-2.21-2.66-2.3-4.6-2.4-3.78-.19-7.58-.22-11.37-.31-10.77-.25-21.55-.42-32.33-.61-4.47-.08-15.78-1.73-19.21,1.57-2,1.89-1.41,5.83-1.49,8.47-.12,4.09-.12,8.18-.18,12.27-.12,8.16-1.05,16.75-.38,24.88.35,4.25,1.85,8.88,6.59,9.67,2.29.38,5,0,7.26,0q16.4,0,32.78-.07c4.71,0,9.43-.06,14.14-.13,1.87,0,4.7.42,6.41-.52C187.23,93.86,187,89.86,187,87Zm-2.23,1.29c0,2.62-.39,5-3.18,5.47-3.07.55-6.65.11-9.76.14-9.83.08-19.66.1-29.48.12H129.84c-1.86,0-4.36.45-6.18,0-6.82-1.71-4.3-18.11-4.24-23,.09-7.42,0-14.88.27-22.3.06-1.31-.18-4.14.45-5.27,1.32-2.36,6.23-2.05,8.58-2.1,1.58,0,3.17,0,4.75.08l29.74.47,14.4.21c1.4,0,6.84-.84,7.54,1l0,0C186.08,58,184.9,73.3,184.81,88.24Z" fill="#1e1e1e"/><path d="M103.35,41.92a200.4,200.4,0,0,0-33.14.43,1.39,1.39,0,0,0-1.58-1.17c-1.36.08-2.81.18-4.3.32a78.34,78.34,0,0,1-10.93-.29,3.6,3.6,0,0,0-2.6,1.28l-5.34-.62c-2.92-.34-7,6.35-3.8,8,.48-.18.77-.22.87-.14-.05.12-.11.24-.17.36h.11a4.52,4.52,0,0,1-.58.67,4.15,4.15,0,0,0-.29,4.46c-1,4-.85,8.43-.94,12.35A182.71,182.71,0,0,0,41.47,89c.36,3.93,4.33,1.81,5.58-.45,2.86-5.21,2.14-10.18,1.92-15.9a92.2,92.2,0,0,1,1.56-20.31l.19-.09a58.48,58.48,0,0,1,5.87-.54l5,.58a3.78,3.78,0,0,0,2.87-1.46c2.7-.3,5.4-.56,8.1-.76a190.84,190.84,0,0,1,27.68,0C103.75,50.4,107.3,42.2,103.35,41.92Z" fill="#fff" opacity="0.25"/><path d="M108,86.23c.17-5.55.12-11.11.08-16.66-.06-8.45.2-17.06-.46-25.5a.55.55,0,0,0,0-.38c-1.67-4.58-5.29-3.78-9.51-3.87-2.74-.06-5.48-.07-8.21-.07l-28.43,0c-2.94,0-5.88,0-8.82,0s-8.75-.74-11.47,1c-3.24,2.11-1.78,15.12-1.84,18.62-.15,8.8-.51,17.62-.47,26.43,0,3.31-.3,7.9,3.35,9.57,2.33,1.06,6.73.41,9.32.45q14.94.25,29.89.49c3.3,0,6.58-.14,9.87-.09a74.15,74.15,0,0,0,10.11-.14c1.64-.2,4.62-.09,5.75-1.55C108.48,92.81,107.93,88.2,108,86.23Zm-2.28,1.47a25.39,25.39,0,0,1-.26,4.09c-.42,1.88-.16,1.58-2.4,1.78-5.73.54-11.4.42-17.14.53-7.55.15-15.15-.25-22.7-.37l-12.38-.19c-1.21,0-2.42-.05-3.63-.06-3.85,0-6-3.14-6.13-6.88-.14-6.18.17-12.41.26-18.59.1-6.51.25-13,.29-19.54,0-1.84-.6-5.08,1.18-6.08s5.07-.45,7-.52c2.11-.08,4.21-.09,6.32-.09l28.3,0,9.06,0c3.78,0,10.88-1.52,12.76,2.46C107.3,58.45,106.38,73.42,105.71,87.7Z" fill="#1e1e1e"/><path d="M452,169.15c-.69-7.09-9.1.19-8.65,4.81.66,6.73,1.21,13.48,1.24,20.25,0,3.31-.08,6.63-.38,9.93-.1,1-.22,2.09-.33,3.13a14.18,14.18,0,0,0-1.83.3c-1.75.47-3.47,1-5.25,1.28a90.47,90.47,0,0,1-13.36,1.06c-7,.24-13.91.24-20.89-.2-8.3-.52-16.59-1.37-24.91-1.69s-17,1.16-25.14-.41c-4.51-.87-9.49,9.95-4.13,11,6.41,1.22,12.93.26,19.4.28,7,0,14.06.58,21.07,1.12a265.92,265.92,0,0,0,36.8.64c6-.37,11.48-2.08,17.31-3,5.06-.77,8.12-3.84,9.05-9.06C454.3,195.7,453.27,182.08,452,169.15Z" opacity="0.15"/><path d="M338,174.1a34.42,34.42,0,0,1-1.9-5.62c-.34-1.61-.39-3.07-2.08-3.81-4.34-1.89-9.71,7.33-6.65,10,0,.25.09.6.18,1.06s.11.78.17,1.18a23.75,23.75,0,0,0,1.69,3.87c1.63,3.66,1,7.08.17,10.86-1.12,5-1.59,10-2.28,15-1.33.13-2.67.25-4,.36-1.94.17-3.89.31-5.84.45-4.86.33-9.74.57-14.61.73-9.43.3-18.86.24-28.29-.1-4.67-.17-9.33,10.79-4.13,11,11.05.4,22.11.4,33.16-.09q8.29-.36,16.56-1.07c4.26-.37,9,.07,12.18-3.22,3.4-3.53,2.74-8.49,3.29-13,.61-5,2-9.75,2.91-14.67C339.35,182.74,339.64,178.24,338,174.1Z" opacity="0.15"/><path d="M259.54,168.94c0-.85-.37-2.43-1.33-2.8l-1.62-.62c-4.7-1.82-10.36,8.7-6,10.39l.33.12c.08,5.87,0,11.73-.27,17.59-.16,3.15-.41,6.29-.62,9.44a36.73,36.73,0,0,0-.12,4.69v.05c-3.42.44-7.47,0-10.24,0-5-.07-9.95-.42-14.93-.45-9.73-.07-20.49,3.36-29.93.24-4.81-1.59-10.35,9-6,10.39,9.66,3.2,19.13.53,29,.36,10.28-.19,20.55,1.19,30.8-.26,3.9-.55,6.8-1.65,8.88-5.21,2.32-4,1-7.51,1-11.79C258.49,190.37,259.76,179.69,259.54,168.94Z" opacity="0.15"/><path d="M174.94,164.6c-1.58-5.82-9.51,2.81-8.33,7.16,1.67,6.15,1.49,12.38,1,18.68-.27,3.39-.64,6.77-1,10.15-.17,1.72.22,7.55-.86,8.79-1.72,2-10.77.52-14,.39-6.76-.28-13.54-.29-20.3-.38-27.08-.37-54.16-.37-81.24-1-4.67-.1-9.3,10.86-4.13,11,32.62.72,65.24.57,97.85,1.26,11.21.23,27.25,2.41,30-12.53,1.31-7,1.57-14.48,2.16-21.6C176.79,179.12,176.9,171.82,174.94,164.6Z" opacity="0.15"/><path d="M329.48,206.36s1.43,4.08-3.23,5.09c-1.15.25-57.05.9-58.05,0-2.42-2.15-2.19-9.39-2.19-9.39s-1.12-33-.79-36c.15-1.37-.42-3.3,1.58-4.45,3.65-2.09,58.59-2.35,60.65-1.47C332.47,162.27,329.48,206.36,329.48,206.36Z" fill="#f7941f"/><path d="M253.64,161.78c-.2-1-3-2.1-5.17-2.62-.54-.13-61.24-1.23-63.43.28-1.31.91-1.84,7.61-1.8,8.39,0,0,.24,39.79.39,41.35.08.7,2.66,2.47,3.6,3.06,1.73,1.08,55.78.11,59.42.39,6.66.51,6.48-3.91,6.58-5.19S253.84,162.8,253.64,161.78Z" fill="#f7941f"/><path d="M40,208.23c.23,1,4.21,4.62,4.93,4.68,1.56.15,118.71-.32,120.33-.42,4.05-.25,4.68-6.28,4.63-7.06l-.28-38.16c-.18-1.56,0-7.33-3.09-7.9C164.24,159,46,159,44.79,159.29a4.12,4.12,0,0,0-3.41,4C41.26,164.57,39.75,207.21,40,208.23Z" fill="#f7941f"/><path d="M447.74,164.58c-.2-1-3.65-4.9-5.85-5.42-.55-.13-93.13-1.75-96.15.28s-3.27,7.61-3.23,8.39l-.08,36.65c.16,1.57.56,6.33,1.59,6.73,7.34,2.84,93.36.64,97,.92,6.65.51,6.47-5.91,6.58-7.19S447.94,165.6,447.74,164.58Z" fill="#f7941f"/><path d="M165.76,161.8c-20.65-1.42-41.34-2.86-62-2.32-9.73.26-19.46,1-29.2.77-7.31-.18-14.57-.93-21.8-.25a2.48,2.48,0,0,0-2.31.1c-.22.1-.45.18-.68.26-1.14.18-2.29.4-3.43.67-2.43.58-4.9,5.49-3.58,7.37a34.68,34.68,0,0,0-.2,5.57q-1,13.07-1.9,26.13a1.9,1.9,0,0,0,.76,1.84,13.11,13.11,0,0,0,2.5,9.3c2.4,3.2,7.69-4,5.58-6.79-4.05-5.4.26-13.48.35-19.67a59.58,59.58,0,0,0-.34-6.27c-.09-3.54-.2-8.42.53-10.27,7.72-.84,15.52.18,23.31.27,9.77.12,19.52-.64,29.29-.84,20-.4,40.08,1,60.07,2.37C166.15,170.28,169.71,162.08,165.76,161.8Z" fill="#fff" opacity="0.25"/><path d="M251.63,160.83c-3.23-2.2-8.08-1.7-11.83-1.87q-7.23-.33-14.45-.2t-14.44.71a27.6,27.6,0,0,0-6.13.88c-4.75-.26-9.51-.55-14.26-.84a2.64,2.64,0,0,0-1,.12c-2.56-2.69-5.71,3.49-5.83,5.42q-.53,8.16-.69,16.33c0,2,.83,2.45,1.93,2.16l.06,2.05q.38,11.29.74,22.59c.17,5.31,6.6-.15,6.48-3.6-.28-8.71-.63-17.43-.84-26.15-.07-3.09.58-6.84.58-10.41l8.19.48c.5.55,1.31.71,2.46.13a384.92,384.92,0,0,0,45.19.22C250.68,168.66,254.85,163,251.63,160.83Z" fill="#fff" opacity="0.25"/><path d="M327.39,160.32a118.45,118.45,0,0,0-28.8-2.29,123.3,123.3,0,0,0-12.86,1.27c-2.68.41-5.42,1.2-8.17,1.78a2.28,2.28,0,0,0-1.14-.61c-5.89-1.34-12.9,2.58-11.82,9.56a5,5,0,0,0,1.35,3,54.64,54.64,0,0,0-1.34,11.28,110.39,110.39,0,0,0,.45,16.86c.4,3.8.11,9.22,3.64,11.53,2.43,1.6,5.11-2.91,5.41-4.7a151.28,151.28,0,0,0,1.95-19.24c.21-6.12-1.05-13.06,1.52-18.79a4.45,4.45,0,0,0,.37-1.39c.85-.2,1.71-.39,2.57-.55a109.12,109.12,0,0,1,15-1.76,118,118,0,0,1,28.8,2.3C327.67,169.24,331.42,161.13,327.39,160.32Z" fill="#fff" opacity="0.25"/><path d="M445.68,162.28l-1.7-.54a2.46,2.46,0,0,0-1-.08c-11.83-2.26-24.12-2-36.11-2.59-12.66-.6-25.37-1.47-38-1.42-6.67,0-18.23-1.06-22.8,4.66-1.4,1.21-2.64,3.1-2.64,4.6l0,22.79c0,6.31-.58,12.92,1.56,19,1.46,4.11,6-1.29,6.28-3.48a141.29,141.29,0,0,0,.3-32.82c-.16-1.39-.35-2.77-.54-4.16l-.18-1.28.47-.16,1.9-.24c1.64-.19,3.29-.32,4.93-.42,6.06-.37,12.14-.23,18.21,0,10.57.37,21.15.92,31.72,1.41,11.29.52,22.76.39,33.86,2.79C444.92,170.94,448.81,163.26,445.68,162.28Z" fill="#fff" opacity="0.25"/><path d="M448.62,200.73c0-7.09-.07-14.18-.13-21.27-.05-4.92.32-10.09-.24-15a.53.53,0,0,0,0-.39c-3.11-7.88-12.21-6-18.87-6-13.16-.15-26.32-.22-39.49-.3-8.05-.05-16.1-.08-24.15-.15-6.06-.05-12.76-1-18.67.64-4.79,1.34-5.66,5.73-5.61,10.15.11,11.16-.07,22.32-.13,33.48,0,4.11-.75,9.73,4.05,11,5.86,1.59,13.11.81,19.18,1,22.91.6,45.79-.35,68.71-.63,3.71,0,10.1,1.06,13-1.62S448.63,204.29,448.62,200.73Zm-2,4c-.16,2.49-.56,5.33-3.41,6.16-1.46.42-3.78,0-5.33,0-19.8-.08-39.64,1.29-59.43,1-6-.09-11.92-.31-17.88-.46l-6.11-.13c-1.7,0-3.4,0-5.09-.19-4.19-.36-5.61-2.54-5.79-6.69-.41-9.4,0-18.9,0-28.3,0-3-.15-6.08,0-9.1.21-5.73,3.4-7,8.41-7.4a107.66,107.66,0,0,1,10.78,0c6.38.15,12.76.09,19.14.13l39.57.19,15.43.07c4.18,0,7.78-.16,10,4.55,1,9.38,0,19.46-.1,28.88C446.71,197.21,446.83,201,446.6,204.77Z" fill="#1e1e1e"/><path d="M331.22,175.68c-.06-3.7-.36-7.54-.79-11.21-.29-2.52-.79-4.73-3.36-5.62-3.29-1.14-7.54-.4-10.95-.6-3.82-.21-7.6-.34-11.43-.32-9,.07-18,.43-27,.58-3.58.06-7.78,0-11,1.85-2.49,1.45-2.59,3.24-2.66,5.91-.27,11.54.8,23.08.85,34.61,0,4.77-.52,11.48,5.5,12.12a92.42,92.42,0,0,0,10.79.14.91.91,0,0,0,.77.38c7.73,0,15.47.13,23.2,0h1.23l.13,0c3.33-.08,6.67-.19,10-.38s6.81,0,10-.77c3.9-.93,3.52-2.64,3.73-6,0,0,0-.08,0-.12.7-4.59.48-9.48.61-14.1C331,186.67,331.3,181.15,331.22,175.68Zm-5.68,34.94a21.83,21.83,0,0,1-4.05.28c-3.43.2-6.86.38-10.29.49-1.51.05-3,.07-4.52.1a.82.82,0,0,0-.28-.06c-9.65-.17-19.3-.42-28.95-.42-3.3,0-8.43,1.05-9.88-2.72-.85-2.24-.46-4.85-.47-7.2,0-10.24-.68-20.48-.78-30.72a25.51,25.51,0,0,1,0-4.1c.93-5.87,6.83-5.39,11.38-5.47,7.64-.13,15.28-.39,22.92-.54,6.46-.12,12.86.25,19.3.33a24.56,24.56,0,0,1,4.93.15c3.46.8,3.38,3.13,3.68,6.17s.66,6,.75,8.91c.15,5.08-.07,10.21-.13,15.29-.05,4.9.41,10.21-.38,15.07h0a.53.53,0,0,0-.05.18C328.46,208.68,328.94,209.74,325.54,210.62Z" fill="#1e1e1e"/><path d="M254.36,162a.69.69,0,0,0-.08-.58c-3.08-5.06-14.24-3.38-19-3.44q-13.92-.19-27.82-.33c-2.71,0-5.42,0-8.14.08s-5.49.13-8.24.23c-1.64.06-4.36-.3-5.91.38-4.17,1.85-3,12.16-3,16.2,0,9.36-.18,18.74-.1,28.1,0,3-.62,7.54,2,9.48,3.42,2.52,10,1.49,14.09,1.59,9.5.23,19,.54,28.45.39,5.43-.08,10.86-.37,16.3-.39,3.72,0,8.77,1,10.79-3,1-2,.69-4.81.71-7,0-5.22,0-10.43.05-15.65C254.48,179.52,255.3,170.48,254.36,162Zm-1.65,18q-.22,12.39-.53,24.79c-.07,3.15.23,6.19-4,6.74-4.55.59-9.65-.05-14.25.07-8,.22-16,.33-24.05.12-4.49-.13-9-.26-13.47-.35-2.33,0-4.68,0-7-.27-4-.4-5-3.31-5.14-6.93-.29-7.14,0-14.35,0-21.49,0-6.27-.67-13,.53-19.2.49-2.53.2-3.1,2.64-3.28s5-.23,7.46-.3c3.44-.1,6.89-.22,10.34-.23,7.92,0,15.84.13,23.76.2l13.71.12c2.93,0,8.26-.6,10.24,2.11C253.56,167.92,252.82,174.18,252.71,180Z" fill="#1e1e1e"/><path d="M171,205.3c0-12-.07-24-.21-36.05-.05-4.19,1.21-9.91-3.9-10.86s-11.3-.27-16.66-.32c-24.37-.23-48.74-.61-73.1-.51-8.84,0-17.7-.24-26.53.22-3.06.15-7.5-.2-9.38,2.84-1.33,2.13-1,5.11-1.14,7.55-.3,7.19-.35,14.4-.51,21.6-.12,5.91-1,12.39-.26,18.29a.78.78,0,0,0,0,.37c2.15,7.45,12.23,5.57,18.2,5.64,3.65.05,7.29.05,10.93.05q20.1,0,40.21,0c12.09,0,24.18,0,36.27,0,5.49,0,11-.11,16.47-.34,2.35-.1,6,0,8-1.59S171,207.57,171,205.3Zm-4.65,5.84c-3,1.22-7.42.67-10.53.75s-6.23.16-9.34.19c-8.73.06-17.47,0-26.21,0l-45.18,0-11.05,0c-3,0-6,0-9,0-4.46,0-12.51,1.23-14.31-4.11,0,0,0,0,0-.05-.48-4.14.19-8.74.32-12.87q.34-10.4.73-20.79c.07-2,.12-4.11.23-6.15.21-3.95.62-7.76,5.33-8.11,7-.53,14.14-.28,21.2-.25q34.41.15,68.82.42l16.35.14,3.72,0c1.89,0,3.78-.05,5.66,0,4,.08,5.16-.06,5.35,4.06.51,11,.27,22.06.37,33.07,0,2.26,0,4.51.05,6.77C168.84,207,169.36,209.87,166.3,211.14Z" fill="#1e1e1e"/><path d="M15.08,143.19a24.42,24.42,0,0,0,1.08,10c.47,1.46,2.79.83,2.31-.64a22.7,22.7,0,0,1-1-9.4c.16-1.54-2.24-1.53-2.4,0Z" fill="#fff"/><path d="M23.35,125a41.48,41.48,0,0,0-5.27,8.09c-.68,1.38,1.39,2.6,2.07,1.21a39,39,0,0,1,4.9-7.6c1-1.19-.71-2.89-1.7-1.7Z" fill="#fff"/><path d="M39,113.19a44.1,44.1,0,0,0-8.49,5c-1.21.92,0,3,1.22,2.07a43.5,43.5,0,0,1,8.49-5c1.4-.63.18-2.7-1.22-2.07Z" fill="#fff"/><path d="M57.79,108.36A77.73,77.73,0,0,0,48.21,110c-1.5.37-.86,2.68.64,2.32a73.09,73.09,0,0,1,8.94-1.6c1.52-.17,1.54-2.57,0-2.4Z" fill="#fff"/><path d="M79.65,108.6a126.78,126.78,0,0,0-13.36-.71,1.2,1.2,0,0,0,0,2.4,126.78,126.78,0,0,1,13.36.71c1.54.16,1.53-2.24,0-2.4Z" fill="#fff"/><path d="M101.5,112.07c-4-.77-8-1.5-12.06-2.15-1.51-.25-2.16,2.07-.64,2.31,4,.65,8,1.39,12.06,2.16,1.51.29,2.16-2,.64-2.32Z" fill="#fff"/><path d="M120.46,115.35c-3.37-.51-6.72-1.08-10.06-1.68-1.52-.27-2.16,2-.64,2.32,3.34.59,6.7,1.17,10.06,1.68,1.51.22,2.16-2.09.64-2.32Z" fill="#fff"/><path d="M145.15,119.17l-15.78-2.44c-1.51-.23-2.16,2.08-.63,2.31q7.88,1.23,15.77,2.44c1.52.23,2.17-2.08.64-2.31Z" fill="#fff"/><path d="M165.74,122.17q-5.49-.77-11-1.57c-1.51-.22-2.16,2.09-.64,2.32,3.66.53,7.32,1.06,11,1.56,1.51.21,2.16-2.1.64-2.31Z" fill="#fff"/><path d="M189.16,125.35l-14.47-2c-1.51-.21-2.16,2.11-.63,2.31l14.46,2c1.51.2,2.17-2.11.64-2.31Z" fill="#fff"/><path d="M208.21,127.85q-5.19-.66-10.38-1.35c-1.52-.2-1.51,2.2,0,2.4q5.19.69,10.38,1.35c1.53.19,1.52-2.21,0-2.4Z" fill="#fff"/><path d="M231,130.63q-6.88-.81-13.78-1.66c-1.53-.19-1.52,2.22,0,2.4q6.89.85,13.78,1.66c1.53.18,1.52-2.23,0-2.4Z" fill="#fff"/><path d="M249.91,132.72c-3.39-.35-6.77-.72-10.16-1.09-1.53-.17-1.52,2.23,0,2.4,3.39.37,6.77.74,10.16,1.09,1.54.17,1.53-2.24,0-2.4Z" fill="#fff"/><path d="M269.78,134.71c-3.61-.39-7.22-.74-10.83-1.09-1.54-.15-1.53,2.25,0,2.4,3.61.35,7.22.7,10.83,1.09,1.53.16,1.52-2.24,0-2.4Z" fill="#fff"/><path d="M288.36,135.83c-3.32-.1-6.65-.26-10-.47-1.55-.1-1.54,2.3,0,2.4,3.32.21,6.65.37,10,.47,1.55.05,1.55-2.35,0-2.4Z" fill="#fff"/><path d="M307.28,136.26a69.71,69.71,0,0,1-10.42.2c-1.54-.08-1.54,2.32,0,2.4a69.71,69.71,0,0,0,10.42-.2c1.52-.16,1.53-2.56,0-2.4Z" fill="#fff"/><path d="M323,135.65c-2.06.15-4.12.26-6.18.36-1.53.07-1.54,2.47,0,2.4,2.06-.1,4.12-.21,6.18-.36,1.53-.1,1.54-2.5,0-2.4Z" fill="#fff"/><path d="M344.17,134.93a80.12,80.12,0,0,0-12.19.53c-1.52.2-.87,2.52.64,2.31a76.79,76.79,0,0,1,11.55-.44,1.2,1.2,0,0,0,0-2.4Z" fill="#fff"/><path d="M366.93,133.74q-6.9.69-13.82,1.16c-1.53.11-1.54,2.51,0,2.4q6.92-.48,13.82-1.16c1.52-.15,1.54-2.55,0-2.4Z" fill="#fff"/><path d="M387.39,131.64q-6.12.71-12.25,1.33c-1.52.15-1.54,2.55,0,2.4q6.12-.63,12.25-1.33c1.52-.17,1.53-2.58,0-2.4Z" fill="#fff"/><path d="M409.41,128.35c-4.14.47-8.23,1.33-12.38,1.8-1.51.18-1.53,2.58,0,2.4,4.15-.47,8.24-1.33,12.38-1.8,1.52-.18,1.53-2.58,0-2.4Z" fill="#fff"/><path d="M427,124.11c-3.2,1-6.44,1.89-9.7,2.67-1.5.36-.87,2.67.64,2.31,3.26-.77,6.49-1.68,9.7-2.67,1.47-.45.84-2.77-.64-2.31Z" fill="#fff"/><path d="M448.61,114.41a70.83,70.83,0,0,1-12.72,6.7c-1.41.58-.79,2.9.64,2.32a74,74,0,0,0,13.29-7c1.28-.85.08-2.93-1.21-2.07Z" fill="#fff"/><path d="M462.6,102.29a64.48,64.48,0,0,1-6.17,6.31c-1.16,1,.54,2.72,1.7,1.69A63.38,63.38,0,0,0,464.3,104c1-1.17-.69-2.87-1.7-1.69Z" fill="#fff"/><path d="M467.37,85.15a25.17,25.17,0,0,1-.61,8.34,1.2,1.2,0,0,0,2.32.63,27.33,27.33,0,0,0,.69-9c-.13-1.52-2.53-1.54-2.4,0Z" fill="#fff"/><path d="M457.25,71.68a13.68,13.68,0,0,1,7.17,5.15c.89,1.24,3,0,2.07-1.21a16.36,16.36,0,0,0-8.6-6.26c-1.48-.45-2.11,1.86-.64,2.32Z" fill="#fff"/><path d="M30.91,162.52c-.21-1.53-2.44-1-2.54.35-.17,2.15-.44,4.37-.49,6.57-1.48-2.7-3.15-5.28-4.8-7.89-.82-1.3-2.9-.1-2.07,1.22,1.86,2.94,3.75,5.87,5.37,9a44,44,0,0,0-7.08.32.91.91,0,0,0,0,1.74,87.89,87.89,0,0,0,10.13.65,1.35,1.35,0,0,0,1.28-1.68C30.21,169.33,31.37,165.93,30.91,162.52Z" fill="#fff"/></g></svg>