<svg xmlns="http://www.w3.org/2000/svg" viewBox="0 0 490 600.2"><defs><style>.cls-1{fill:none;}.cls-2{fill:#995db5;}.cls-3,.cls-5,.cls-7{isolation:isolate;}.cls-3{opacity:0.2;}.cls-4{fill:#1e1e1e;}.cls-5{opacity:0.15;}.cls-6{fill:#f7941f;}.cls-7{fill:#fff;opacity:0.25;}.cls-8{fill:#7f3f98;}</style></defs><g id="Layer_2" data-name="Layer 2"><g id="Layer_1-2" data-name="Layer 1"><rect class="cls-1" width="490" height="600.2"/><path class="cls-2" d="M477.24,289.38c-3.31-17.34-3-35.34-9.15-52.52l6.67-41.55c.72-4.55-4.4-7.63-11.87-8.78-32.61-5-69.44-4-103.1-4.67q-53.13-1-106.32-1-106.35,0-212.51,4c-14.87.56-25.79,7.31-30.78,14.58-1.95,2.94-4,10.29.15,14.16-5,5.52-6.82,11.75-5.12,17.84,1.42,5,5.6,9.6,6.12,14.65,1.3,12.39-2.81,25.23-3.52,37.62A293.26,293.26,0,0,0,8,321.19q.65,9.36,1.93,18.69c.78,5.68-.67,14.26,5.92,19.08,5.89,4.33,18.59,4.91,27.68,5.25,11.33.42,22.66-.31,33.93-.81,23.13-.92,46.35-1,69.5-.18,46.81,1.36,93.33,3.08,140.25,3.08,25.83,0,51.66-.38,77.47,0s51.71,1.14,77.65,1c20.1-.06,38.42-15.53,32.67-25.75-4.2-7.46-.65-14.48,1.45-22A65.26,65.26,0,0,0,477.24,289.38ZM400.12,237c.53.3.34.42-.5.4l-.12-.46Zm24.49,1.57a18.93,18.93,0,0,0-2.2,3.51c-2.29-.35-4.57-.68-6.88-1a55.93,55.93,0,0,0,9.23-3.4c0,.27-.11.54-.15.84Z"/><path class="cls-2" d="M481.32,111.89a49.27,49.27,0,0,0-5-16.81A97.48,97.48,0,0,0,479.27,60c-.52-4.71-2.93-8.71-8.28-7.49-6.2,1.42-12.43,2.56-18.68,3.35a5.65,5.65,0,0,0-2.38-.62q-165.27-6.12-330.7-3.5-46.82.75-93.62,2.21a12,12,0,0,0-4.09.88c-2-1.21-4.61-1.23-7.53.34C8.12,58.28,2.87,66.66,3.38,73.49q1.23,16.62,2.48,33.19A17,17,0,0,0,5.15,112q.27,7.14.53,14.25c.11,3.12,1.66,7.81,5.65,7.72,59.6-1.38,119.45-4.38,179.06-2.28,14.46.52,28.87,1.11,43.35,1,15-.1,30.1-.41,45.13.26,28.87,1.28,57.64,2.89,86.55,2.91,33.36,0,66.7-1.35,99.93-4.29C473.85,130.87,482.46,120.8,481.32,111.89ZM446.76,89.72ZM179.08,103.55c2.85.14,5.71.27,8.56.39-2.88-.06-5.75-.11-8.63-.14A1.82,1.82,0,0,0,179.08,103.55Z"/><path class="cls-3" d="M472,56.4c-35.86.39-71.73.71-107.59.15-17.93-.28-35.85-.78-53.76-1.6-17.4-.8-34.79-2.32-52.21-2.68s-35,.92-52.47,1-35,2.36-52.61,2.58-35.4-1.16-53.08-1.41q-26.09-.36-52.17.22c-10.16.22-20.35.44-30.5,1-7.79.42-11,5.21-11.69,12.7a308.69,308.69,0,0,0,.56,59.33c.66,6.2,8-.16,7.57-4.21a306.59,306.59,0,0,1-1.27-49.6c.11-2,.24-3.89.39-5.84a23.41,23.41,0,0,1,.1-2.51l.73-.26c1.55-.58,4.23-.18,5.9-.24,2.62-.1,5.25-.2,7.87-.28q12.3-.42,24.6-.62,25.11-.42,50.21,0c16.67.3,33.44,1.7,50.1,1.26s33.07-2.42,49.68-2.52,33-1.24,49.53-1.07C269,62,286,63.51,303.06,64.34S336.9,65.69,353.82,66c38.19.72,76.38.38,114.57,0C472.51,66,476.5,56.35,472,56.4Z"/><path class="cls-4" d="M478.57,63.19c-.23-2.69-.28-7.91-3.28-9-1.45-.52-3.83-.1-5.34-.12-29.36-.37-58.74-.3-88.1-.35q-73.12-.15-146.26-.2-68.94-.06-137.87-.06c-21.49,0-43,.1-64.48,0-5.62,0-11.22,0-16.84.28s-10.1.65-11.24,7.12a.81.81,0,0,0,0,.22c-.81,8.75-.3,17.8-.38,26.57-.09,9.54-.39,19.1-.22,28.64.07,3.87.06,9.48,2.67,12.62,2.81,3.4,10.77,2.48,14.64,2.67,3.47.17,6.93.16,10.4.16q42.18.06,84.35.21,73.29.18,146.59.15,69.32,0,138.64.06h44.9c7,0,14.17.37,21.16-.22,2.68-.23,6-.47,8.23-2.21s2-4,2.09-6.49c.21-4.87.59-9.72.61-14.6q.07-16.61.16-33.22C479,71.39,478.93,67.29,478.57,63.19Zm-2,45.53c0,4.79-.4,9.55-.63,14.33-.14,2.8.34,4.3-3,5.82-2.11,1-4.89.92-7.14,1-.78,0-1.57.06-2.36.07H422.2l-124.6,0-146.39-.1Q98.58,129.8,46,130H28.89c-2.74,0-5.47-.06-8.21-.2-3-.15-7.92.34-10.69-1-4.09-1.91-3.73-9.41-3.77-13.44-.11-10.07,0-20.16.11-30.23,0-7.86-.47-16,.24-23.82v-.07c1.08-5.39,5.24-5.54,9.83-5.69q6.62-.21,13.23-.16H41.32l35,.06q62.1.12,124.2.13,72.84.07,145.69.2,53.85.1,107.7.36,7,0,14.08.11c1.64,0,5.38-.65,6.88.12,1.27.65,1.57,6.58,1.66,8.72.17,3.82.33,7.56.31,11.39Z"/><path class="cls-5" d="M197.14,75.19c-.5-7.09-9,.19-8.65,4.81.55,7.8.91,15.61,1,23.43.06,3.67-.11,7.25-.3,10.89l-.55.08c-1.9-.32-4.76.64-6.71.85a188.72,188.72,0,0,1-45-.77,2.91,2.91,0,0,0-2.35-.53l-1.7.22c-3.65.48-8.35,10.11-3.08,10.88a195.76,195.76,0,0,0,30.78,2.17c9.12-.1,19.62,0,28.49-2.42,7.88-2.11,8.87-12,9.11-18.78A291,291,0,0,0,197.14,75.19Z"/><path class="cls-6" d="M124.8,116.47c.2,1,3,2.6,5.29,3.12.55.12,53.73,2,57.55-.4s4.05-8,4-8.77l-.57-38.79s.57-4-4.54-4.87c-5.36-.9-51.35-.37-55.08-.65-6.81-.5-6.62,3.91-6.73,5.19S124.6,115.45,124.8,116.47Z"/><path class="cls-7" d="M190.08,69.05c-4-1.59-9.74-1.06-14-1.31-5.25-.32-10.51-.56-15.77-.75a125.88,125.88,0,0,0-15.78.06c-2.08.2-4.14.57-6.21.81-2.4.27-5.09-.35-7.39.06-2.69.48-4.27,2.81-4.89,5.34-1.19,4.82-.71,10.46-1,15.42-.53,9.89-.94,19.15,1.8,28.8,1.08,3.83,5.33-.68,6-2.42,2.1-5.7.75-12.11.89-18.06a85.18,85.18,0,0,1,3-21c1.24-.17,2.48-.36,3.72-.51a95.38,95.38,0,0,1,14.83-.28q7.41.24,14.79.64c2.63.15,5.25.31,7.88.49,1.91.12,4.82-.16,6.87.31.25.76.89,1.13,2.06.73l.21-.07a6.46,6.46,0,0,0,4-5.85V71.2C191.11,70.52,190.76,69.32,190.08,69.05Zm-5.35,5.75v0Z"/><path class="cls-4" d="M192.64,104.35q-.13-13.2-.26-26.4v-2.6c-.08-1.69.43-5.21-.28-6.62-1.65-3.26-8.48-3.29-11.61-3.53-9.15-.7-18.41-.69-27.58-.53-5.13.09-10.25.33-15.38.37-4,0-8.87-.94-12,2.21-1.78,1.8-1.94,3.86-1.94,6.22,0,4.58.1,9.17.16,13.75.12,9.15.44,18.32.34,27.47a.66.66,0,0,0,0,.28c.66,6.91,9.8,5.68,14.75,5.77,9,.16,18,.26,27.08.37,2.32,0,4.64,0,7,.08,4.6.09,10.75,1,15.14-.78C193.51,118.17,192.69,109.28,192.64,104.35Zm-2,6.07c-.14,2-.69,5.46-2.06,7-1.72,2-5.39,1.63-7.79,1.69-4,.11-7.91,0-11.86-.07l-20.17-.2-13.42-.14c-3.32,0-9,.71-9.78-4h0c.15-13.91-.18-27.86.31-41.76.13-3.78,2.12-5.65,6.36-5.77s8.37,0,12.55-.06c7.7-.19,15.35-.43,23.05-.14,4.22.16,8.48.13,12.69.44,2.09.16,6.69.23,8.42,1.56,1.35,1,1.12,4.32,1.24,6.25.35,6,.16,12,.24,18,0,5.74.58,11.58.17,17.2Z"/><path class="cls-5" d="M115.51,94c-.36-6.81-2.63-13.55-1.78-20.38,1-7.79-7.76-3-8.41,2.14-.95,7.64,1,14.53,1.49,22.1a93.27,93.27,0,0,1,0,11.34c-.09,1.58-.21,3.15-.34,4.73-.06.75-.13,1.5-.2,2.25-2.74,0-6.1-.85-8.14-1q-5.31-.52-10.63-1-11.11-.85-22.27-1.14a439.14,439.14,0,0,0-44.58,1.15c-2.83.21-4.91,2.56-5.86,5.13-.54,1.45-1.12,6.06,1.74,5.85a444.46,444.46,0,0,1,77.47.94c4.62.46,11.22,2.09,15.43-.57,4.52-2.86,5-8.1,5.39-12.91A130.21,130.21,0,0,0,115.51,94Z"/><path class="cls-6" d="M108.3,71c-.24-1-1.48-3.85-4.14-4.37-.66-.13-16.92-1.06-21.62-1,0,0-66,.28-67.58.64-1.25.28-4.78,1.17-4.73,7.06l-.69,38.16c.19,1.56,1.36,7.86,5.23,7.9,4.6,0,87.82.92,89.1.58a5.21,5.21,0,0,0,4-4.52C108,114.16,108.54,72,108.3,71Z"/><path class="cls-7" d="M106.21,67.52C93.7,65.8,81.08,65.44,68.47,65.19c-12.32-.25-24.54,1.12-36.85,1.29-2.72,0-5.45.1-8.18.11-2,0-4.63-.63-6.59-.26-3.27.63-5.07,4.07-5.32,7.14-.38,4.72.38,9.74.72,14.62a50,50,0,0,0-.73,25.76c1,4.24,6.08-1.41,6.28-3.48.66-6.75,1.09-13.5,1.11-20.28V85.51A37.31,37.31,0,0,1,23.8,76.2a5.31,5.31,0,0,0,.61-1.4c3.15,0,6.3-.07,9.44-.13,7.55-.15,15-1.12,22.57-1.28a293.85,293.85,0,0,1,46.69,2.41C106.55,76.24,110.21,68.08,106.21,67.52Z"/><path class="cls-4" d="M109.23,104.68V83.84c0-4.13.36-8.54-.16-12.66a.54.54,0,0,0,0-.18c-.7-5.67-4.24-5.42-9.19-5.73C94,64.91,88,64.62,82.12,64.6H51.45c-9.34,0-18.66,0-28,.2-4,.1-12.28-.92-13.94,3.88-.95,2.74-.39,7-.45,9.89-.2,10.65-1,21.47-.63,32.12.15,4.11,1,8.88,5.47,9.73s9.63.22,14.2.27c21.38.25,42.82,1,64.2.51,3.83-.08,14.53,1.53,16.4-3.28C110.05,114.41,109.24,108.45,109.23,104.68ZM107.61,81.1q-.09,8.52-.21,17c-.06,4.14,0,8.3-.18,12.43a21.26,21.26,0,0,1-.43,5.22c-1.11,3.72-4.79,2.87-7.91,3-19.63.72-39.34,0-59-.23l-14-.14H22.3c-4,0-9.13,1.2-10.83-3.19-1.23-3.18-.79-6.7-.75-10,.08-5.23.18-10.46.27-15.69.08-4.72.17-9.44.23-14.15V73.11c0-2-.21-3.24,1.44-4.64,1.44-1.23,3.09-1.22,4.85-1.33,8.46-.52,17-.42,25.46-.43H77.82c3.55,0,7.09,0,10.64.11,3.78.11,7.56.24,11.33.44,3.3.17,7,0,7.74,4v.1C108.05,74.45,107.64,77.94,107.61,81.1Z"/><path class="cls-5" d="M322,86.65c-.16-4.26.89-12.47-2.82-15.42-.8-.64-2.35-.17-3.08.25l-.31.17A8.73,8.73,0,0,0,311.55,79a3.19,3.19,0,0,0,1.5,2.77,44.12,44.12,0,0,0,.1,5.75q.27,4.44.32,8.85c0,5,.51,10.92-.58,15.87a2.85,2.85,0,0,0-.11,1,1.35,1.35,0,0,0-.42.2c-1,.63-3.06.48-4.22.58-2.56.21-5.13.35-7.69.46-5.49.21-11,.19-16.46,0-21.17-.86-42.21-.91-63.4-.76-4.67,0-9.24,11-4.12,11,13.65-.1,27.31-.41,41-.23,14,.18,27.8,1.64,41.77.88,5-.28,10.88,0,15.24-2.83,4.93-3.15,6.56-8.74,7-14.24A171.92,171.92,0,0,0,322,86.65Z"/><path class="cls-6" d="M207.38,72.15c.43-2,1.33-4.74,6.1-5.75,1.18-.25,90-2.66,99.58,2.16,2.93,1.48,2.86,5.56,2.72,7.89-.09,1.51.18,33-.17,36-.15,1.37-.6,4.81-2.67,5.92-2.76,1.49-91.54,1.56-99.36.81-2.85-.27-5.64-5.68-5.86-8.16S207,74.13,207.38,72.15Z"/><path class="cls-7" d="M312.67,69.31c-21.24-4.61-43.42-3.77-65-2l-4.89.38a1.89,1.89,0,0,0-1.45-.85c-5.64-.76-13.25-1.48-19.52.2-4.92-.23-9.33.62-11.74,5.48-1,2-1.3,4.63-.36,6.44a66.82,66.82,0,0,0-2.22,17c-.06,6.31-.55,14.53,3.91,19.57,2.36,2.67,5.56-2.16,5.94-4.2,1.65-8.68-2.27-17.89-1.83-26.75,0-.79.09-2.25.24-3.74,1.56-.35,3.12-1,4.57-1.38,3.2-.88,6.45-1.58,9.72-2.15,13-2.28,26.33-2.76,39.48-3,13.43-.27,26.84.41,40,3.27C312.92,78.27,316.69,70.18,312.67,69.31Z"/><path class="cls-4" d="M316.24,71.55c-1.82-5.19-6.5-5.1-11.27-5.65-12.05-1.41-24.46-.9-36.59-.9-13.85,0-27.73-.34-41.58.14-5.05.18-11.36-.4-16.25,1-5.37,1.53-3.53,7.36-3.91,11.52v.14c-1.19,8-.16,16.87,0,25,.09,4.72-1,12.21,3.2,15.76,3.28,2.78,9.82,1.63,13.87,1.86,19.1,1.09,38.41.11,57.54-.13,9.45-.11,19.56.83,28.93-.38,5.61-.72,6.59-2.76,6.6-7.93,0-9.88.1-19.77.07-29.65C316.84,78.9,317.38,74.8,316.24,71.55Zm-4.75,45.79c-3.19,1.25-7.9.4-11.25.41-4.74,0-9.49.1-14.23.15-17.82.21-35.63.59-53.45.46-3.71,0-7.41-.15-11.12-.32-4.54-.2-9.52,1-11.88-3.77-1.62-3.29-1-7.68-1.13-11.26-.3-8-1.61-17.07-.39-25a.58.58,0,0,0,.05-.14c.23-1.62,0-3.25.13-4.88.28-3.82,2.21-5,5.51-5.21,4.68-.3,9.37-.53,14.06-.65,11.5-.3,23-.06,34.52,0,9.22,0,18.42.06,27.64.26,6.51.14,13,.13,19.42,1.33,5.43,1,5.32,6,5.31,10.49,0,9.15.05,18.31,0,27.46C314.6,110.25,315.47,115.8,311.49,117.34Z"/><path class="cls-5" d="M244.93,204c-.5-7.09-9,.19-8.65,4.81.55,7.8.91,15.61,1,23.43.06,3.67-.11,7.25-.3,10.89l-.55.08c-1.9-.32-4.76.64-6.71.85a188.72,188.72,0,0,1-45-.77,2.91,2.91,0,0,0-2.35-.53l-1.7.22c-3.65.48-8.35,10.11-3.08,10.88A194.49,194.49,0,0,0,208.37,256c9.12-.1,19.62,0,28.49-2.42,7.88-2.11,8.87-12,9.11-18.78A291.19,291.19,0,0,0,244.93,204Z"/><path class="cls-6" d="M172.59,245.24c.2,1,3,2.6,5.29,3.12.55.12,53.73,1.95,57.55-.4s4-8,4-8.77l-.57-38.79s.57-4-4.54-4.87c-5.36-.9-51.35-.37-55.08-.65-6.81-.5-6.62,3.91-6.73,5.19S172.39,244.22,172.59,245.24Z"/><path class="cls-7" d="M237.87,197.82c-4-1.59-9.74-1.06-14-1.31-5.25-.32-10.51-.56-15.77-.75a125.88,125.88,0,0,0-15.78.06c-2.08.2-4.14.57-6.21.81-2.4.27-5.09-.35-7.39.06-2.69.48-4.27,2.81-4.89,5.34-1.19,4.82-.71,10.46-1,15.42-.53,9.89-.94,19.15,1.8,28.8,1.08,3.83,5.33-.68,6-2.42,2.1-5.7.75-12.11.89-18.06a85.25,85.25,0,0,1,3-21c1.24-.17,2.48-.36,3.72-.51a96.61,96.61,0,0,1,14.83-.28q7.41.24,14.79.64c2.63.15,5.25.31,7.88.49,1.91.12,4.82-.16,6.87.31.25.76.89,1.13,2.06.73l.21-.07a6.48,6.48,0,0,0,4-5.85V200C238.9,199.29,238.55,198.09,237.87,197.82Zm-5.35,5.75v0Z"/><path class="cls-4" d="M240.43,233.12q-.13-13.2-.26-26.4v-2.6c-.08-1.69.43-5.21-.28-6.62-1.65-3.26-8.48-3.29-11.61-3.53-9.15-.7-18.41-.69-27.58-.53-5.13.09-10.25.33-15.38.37-4,0-8.87-.94-12,2.21-1.78,1.8-1.94,3.86-1.94,6.22,0,4.58.1,9.17.16,13.75.12,9.15.44,18.32.34,27.47a.66.66,0,0,0,0,.28c.66,6.91,9.8,5.68,14.75,5.77,9,.16,18.05.26,27.08.37,2.32,0,4.64,0,7,.08,4.6.09,10.75,1,15.14-.78C241.3,246.94,240.48,238.05,240.43,233.12Zm-2,6.07c-.14,2-.69,5.46-2.06,7-1.72,2-5.39,1.63-7.79,1.69-4,.11-7.91,0-11.86-.07l-20.17-.2-13.42-.14c-3.32,0-9,.71-9.78-4h0c.15-13.91-.18-27.86.31-41.76.13-3.78,2.12-5.65,6.36-5.77s8.37,0,12.55-.06c7.7-.19,15.35-.43,23.05-.14,4.22.16,8.48.13,12.69.44,2.09.16,6.69.23,8.42,1.56,1.35,1,1.12,4.32,1.24,6.25.35,6,.16,12,.24,18,0,5.74.58,11.58.17,17.2Z"/><path class="cls-5" d="M129,222.81c-.36-6.81-2.63-13.55-1.78-20.38,1-7.79-7.76-3-8.41,2.14-.95,7.64,1,14.53,1.49,22.1a93.27,93.27,0,0,1,0,11.34c-.09,1.58-.21,3.15-.34,4.73-.06.75-.13,1.5-.2,2.25-2.74,0-6.1-.85-8.14-1q-5.31-.53-10.63-1-11.11-.86-22.27-1.14A442.13,442.13,0,0,0,34.15,243c-2.83.21-4.91,2.56-5.86,5.13-.54,1.45-1.12,6.06,1.74,5.85a445.42,445.42,0,0,1,77.47.94c4.62.46,11.22,2.09,15.43-.57,4.52-2.86,5-8.1,5.39-12.91A128.77,128.77,0,0,0,129,222.81Z"/><path class="cls-6" d="M121.8,199.77c-.24-1-1.48-3.85-4.14-4.37-.66-.13-16.92-1.06-21.62-1,0,0-66,.28-67.58.64-1.25.28-4.78,1.17-4.73,7.06L23,240.26c.19,1.56,1.36,7.86,5.23,7.9,4.6,0,87.82.92,89.1.58a5.19,5.19,0,0,0,4-4.52C121.5,242.93,122,200.79,121.8,199.77Z"/><path class="cls-7" d="M119.71,196.29C107.2,194.57,94.58,194.21,82,194c-12.32-.25-24.54,1.12-36.85,1.29-2.72,0-5.45.1-8.18.11-2,0-4.63-.63-6.59-.26-3.27.63-5.07,4.07-5.32,7.14-.38,4.72.38,9.74.72,14.62A50,50,0,0,0,25,242.62c1,4.24,6.08-1.41,6.28-3.48.66-6.75,1.09-13.5,1.11-20.28v-4.58A37.31,37.31,0,0,1,37.3,205a5,5,0,0,0,.61-1.4c3.15,0,6.3-.07,9.44-.13,7.55-.15,15-1.12,22.57-1.28a295,295,0,0,1,46.69,2.41C120.05,205,123.71,196.85,119.71,196.29Z"/><path class="cls-4" d="M122.73,233.45V212.61c0-4.13.36-8.54-.16-12.66a.54.54,0,0,0,0-.18c-.7-5.67-4.24-5.42-9.19-5.73-5.88-.36-11.88-.65-17.76-.67H65c-9.34,0-18.66,0-28,.2-4,.1-12.28-.92-13.94,3.88-1,2.74-.39,7-.45,9.89-.2,10.65-1,21.47-.63,32.12.15,4.11,1,8.88,5.47,9.73s9.63.22,14.2.27c21.38.25,42.82,1,64.2.51,3.83-.08,14.53,1.53,16.4-3.28C123.55,243.18,122.74,237.22,122.73,233.45Zm-1.62-23.58q-.09,8.52-.21,17c-.06,4.14,0,8.3-.18,12.43a21.22,21.22,0,0,1-.43,5.22c-1.11,3.72-4.79,2.87-7.91,3-19.63.72-39.34,0-59-.23l-14-.14H35.8c-4,0-9.13,1.2-10.83-3.19-1.23-3.18-.79-6.7-.75-10,.08-5.23.18-10.46.27-15.69.08-4.72.17-9.44.23-14.15v-2.24c0-2-.21-3.24,1.44-4.64C27.6,196,29.25,196,31,195.91c8.46-.52,17-.42,25.46-.43H91.32c3.55,0,7.09,0,10.64.11,3.78.11,7.56.24,11.33.44,3.3.17,7,0,7.74,4.05v.1C121.55,203.22,121.14,206.71,121.11,209.87Z"/><path class="cls-5" d="M401.6,215.42c-.16-4.26.89-12.47-2.82-15.42-.8-.64-2.35-.17-3.08.25l-.31.17a8.78,8.78,0,0,0-4.24,7.35,3.19,3.19,0,0,0,1.5,2.77,44.12,44.12,0,0,0,.1,5.75q.27,4.44.32,8.85c.05,5.05.51,10.92-.58,15.87a3.11,3.11,0,0,0-.11,1,1.62,1.62,0,0,0-.42.2c-1,.63-3.06.48-4.22.58-2.56.21-5.13.35-7.69.46-5.49.21-11,.19-16.46,0-21.17-.86-42.21-.91-63.4-.76-4.67,0-9.24,11-4.12,11,13.65-.1,27.31-.41,41-.23,14,.18,27.8,1.64,41.77.88,5-.28,10.88,0,15.24-2.83,4.93-3.15,6.56-8.74,7-14.24A170,170,0,0,0,401.6,215.42Z"/><path class="cls-6" d="M287,200.92c.43-2,1.33-4.74,6.1-5.75,1.18-.25,90-2.66,99.58,2.16,2.93,1.48,2.86,5.56,2.72,7.89-.09,1.51.18,33-.17,36-.15,1.37-.6,4.81-2.67,5.92-2.76,1.49-91.54,1.56-99.36.81-2.85-.27-5.64-5.68-5.86-8.16S286.6,202.9,287,200.92Z"/><path class="cls-7" d="M392.27,198.08c-21.24-4.61-43.42-3.77-65-2l-4.89.38a1.92,1.92,0,0,0-1.45-.85c-5.64-.76-13.25-1.48-19.52.2-4.92-.23-9.33.62-11.74,5.48-1,2-1.3,4.63-.36,6.44a67.33,67.33,0,0,0-2.22,17c-.06,6.31-.55,14.53,3.91,19.57,2.36,2.67,5.56-2.16,5.94-4.2,1.65-8.68-2.27-17.89-1.83-26.75,0-.79.09-2.25.24-3.74,1.56-.35,3.12-1,4.57-1.38,3.2-.88,6.45-1.58,9.72-2.15,13-2.28,26.33-2.76,39.48-3,13.43-.27,26.84.41,40,3.27C392.52,207,396.29,199,392.27,198.08Z"/><path class="cls-4" d="M395.84,200.32c-1.82-5.19-6.5-5.1-11.27-5.65-12.05-1.41-24.46-.9-36.59-.9-13.85,0-27.73-.34-41.58.14-5,.18-11.36-.4-16.25,1-5.37,1.53-3.53,7.36-3.91,11.52v.14c-1.19,8-.16,16.87,0,25,.09,4.72-1,12.21,3.2,15.76,3.28,2.78,9.82,1.63,13.87,1.86,19.1,1.09,38.41.11,57.54-.13,9.45-.11,19.56.83,28.93-.38,5.61-.72,6.59-2.76,6.6-7.93,0-9.88.1-19.77.07-29.65C396.44,207.67,397,203.57,395.84,200.32Zm-4.75,45.79c-3.19,1.25-7.9.4-11.25.41-4.74,0-9.49.1-14.23.15-17.82.21-35.63.59-53.45.46-3.71,0-7.41-.15-11.12-.32-4.54-.2-9.52,1-11.88-3.77-1.62-3.29-1-7.68-1.13-11.26-.3-8-1.61-17.07-.39-25a.34.34,0,0,0,.05-.14c.23-1.62,0-3.25.13-4.88.28-3.82,2.21-5,5.51-5.21,4.68-.3,9.37-.53,14.06-.65,11.5-.3,23-.06,34.52,0,9.22,0,18.42.06,27.64.26,6.51.14,13,.13,19.42,1.33,5.43,1,5.32,6,5.31,10.49,0,9.15.05,18.31,0,27.46C394.2,239,395.07,244.57,391.09,246.11Z"/><path class="cls-5" d="M244.93,303.64c-.5-7.09-9,.19-8.65,4.81.55,7.8.91,15.61,1,23.43.06,3.67-.11,7.25-.3,10.89l-.55.08c-1.9-.32-4.76.64-6.71.85a189.76,189.76,0,0,1-45-.77,2.84,2.84,0,0,0-2.35-.53l-1.7.22c-3.65.48-8.35,10.11-3.08,10.88a196.88,196.88,0,0,0,30.78,2.17c9.12-.1,19.62,0,28.49-2.42,7.88-2.11,8.87-12,9.11-18.78A291,291,0,0,0,244.93,303.64Z"/><path class="cls-6" d="M172.59,344.92c.2,1,3,2.6,5.29,3.12.55.12,53.73,1.95,57.55-.4s4-8,4-8.77l-.57-38.79s.57-4-4.54-4.87c-5.36-.9-51.35-.37-55.08-.65-6.81-.5-6.62,3.91-6.73,5.19S172.39,343.9,172.59,344.92Z"/><path class="cls-7" d="M237.87,297.5c-4-1.59-9.74-1.06-14-1.31-5.25-.32-10.51-.56-15.77-.75a122.19,122.19,0,0,0-15.78.06c-2.08.2-4.14.57-6.21.81-2.4.27-5.09-.35-7.39.06-2.69.48-4.27,2.81-4.89,5.34-1.19,4.82-.71,10.46-1,15.42-.53,9.89-.94,19.15,1.8,28.8,1.08,3.83,5.33-.68,6-2.42,2.1-5.7.75-12.11.89-18.06a85.12,85.12,0,0,1,3-21c1.24-.17,2.48-.36,3.72-.51a94.14,94.14,0,0,1,14.83-.28q7.41.24,14.79.64c2.63.15,5.25.31,7.88.49,1.91.12,4.82-.16,6.87.31.25.76.89,1.13,2.06.73l.21-.07a6.51,6.51,0,0,0,4-5.85v-.26C238.9,299,238.55,297.77,237.87,297.5Zm-5.35,5.75v0Z"/><path class="cls-4" d="M240.43,332.8q-.13-13.2-.26-26.4v-2.6c-.08-1.69.43-5.21-.28-6.62-1.65-3.26-8.48-3.29-11.61-3.53-9.15-.7-18.41-.69-27.58-.53-5.13.09-10.25.33-15.38.37-4,0-8.87-.94-12,2.21-1.78,1.8-1.94,3.86-1.94,6.22,0,4.58.1,9.17.16,13.75.12,9.15.44,18.32.34,27.47a.66.66,0,0,0,0,.28c.66,6.91,9.8,5.68,14.75,5.77,9,.16,18.05.26,27.08.37,2.32,0,4.64,0,7,.08,4.6.09,10.75,1,15.14-.78C241.3,346.62,240.48,337.73,240.43,332.8Zm-2,6.07c-.14,2-.69,5.46-2.06,7-1.72,2-5.39,1.63-7.79,1.69-4,.11-7.91,0-11.86-.07l-20.17-.2-13.42-.14c-3.32,0-9,.71-9.78-4h0c.15-13.91-.18-27.86.31-41.76.13-3.78,2.12-5.65,6.36-5.77s8.37,0,12.55-.06c7.7-.19,15.35-.43,23.05-.14,4.22.16,8.48.13,12.69.44,2.09.16,6.69.23,8.42,1.56,1.35,1,1.12,4.32,1.24,6.25.35,6,.16,12,.24,18,0,5.74.58,11.58.17,17.2Z"/><path class="cls-5" d="M129,322.49c-.36-6.81-2.63-13.55-1.78-20.38,1-7.79-7.76-3-8.41,2.14-.95,7.64,1,14.53,1.49,22.1a93.27,93.27,0,0,1,0,11.34c-.09,1.58-.21,3.15-.34,4.73-.06.75-.13,1.5-.2,2.25-2.74,0-6.1-.85-8.14-1q-5.31-.53-10.63-1-11.11-.87-22.27-1.14a436.33,436.33,0,0,0-44.58,1.15c-2.83.21-4.91,2.56-5.86,5.13-.54,1.45-1.12,6.06,1.74,5.85a443.46,443.46,0,0,1,77.47.94c4.62.46,11.22,2.09,15.43-.57,4.52-2.86,5-8.1,5.39-12.91A128.87,128.87,0,0,0,129,322.49Z"/><path class="cls-6" d="M121.8,299.45c-.24-1-1.48-3.85-4.14-4.37-.66-.13-16.92-1.06-21.62-1,0,0-66,.28-67.58.64-1.25.28-4.78,1.17-4.73,7.06L23,339.94c.19,1.56,1.36,7.86,5.23,7.9,4.6,0,87.82.92,89.1.58a5.21,5.21,0,0,0,4-4.52C121.5,342.61,122,300.47,121.8,299.45Z"/><path class="cls-7" d="M119.71,296c-12.51-1.72-25.13-2.08-37.74-2.33-12.32-.25-24.54,1.12-36.85,1.29-2.72,0-5.45.1-8.18.11-2,0-4.63-.63-6.59-.26-3.27.63-5.07,4.07-5.32,7.14-.38,4.72.38,9.74.72,14.62A50,50,0,0,0,25,342.3c1,4.24,6.08-1.41,6.28-3.48.66-6.75,1.09-13.5,1.11-20.28V314a37.14,37.14,0,0,1,4.89-9.31,5.27,5.27,0,0,0,.61-1.4c3.15,0,6.3-.07,9.44-.13,7.55-.15,15-1.12,22.57-1.28a292.61,292.61,0,0,1,46.69,2.41C120.05,304.69,123.71,296.53,119.71,296Z"/><path class="cls-4" d="M122.73,333.13V312.29c0-4.13.36-8.54-.16-12.66a.54.54,0,0,0,0-.18c-.7-5.67-4.24-5.42-9.19-5.73-5.88-.36-11.88-.65-17.76-.67H65c-9.34,0-18.66,0-28,.2-4,.1-12.28-.92-13.94,3.88-1,2.74-.39,7-.45,9.89-.2,10.65-1,21.47-.63,32.12.15,4.11,1,8.88,5.47,9.73s9.63.22,14.2.27c21.38.25,42.82,1,64.2.51,3.83-.08,14.53,1.53,16.4-3.28C123.55,342.86,122.74,336.9,122.73,333.13Zm-1.62-23.58q-.09,8.51-.21,17c-.06,4.14,0,8.3-.18,12.43a21.3,21.3,0,0,1-.43,5.22c-1.11,3.72-4.79,2.87-7.91,3-19.63.72-39.34,0-59-.23l-14-.14H35.8c-4,0-9.13,1.2-10.83-3.19-1.23-3.18-.79-6.7-.75-10,.08-5.23.18-10.46.27-15.69.08-4.72.17-9.44.23-14.15v-2.24c0-2-.21-3.24,1.44-4.64,1.44-1.23,3.09-1.22,4.85-1.33,8.46-.52,17-.42,25.46-.43H91.32c3.55,0,7.09,0,10.64.11,3.78.11,7.56.24,11.33.44,3.3.17,7,0,7.74,4.05v.1C121.55,302.9,121.14,306.39,121.11,309.55Z"/><path class="cls-5" d="M401.6,315.1c-.16-4.26.89-12.47-2.82-15.42-.8-.64-2.35-.17-3.08.25l-.31.17a8.75,8.75,0,0,0-4.24,7.35,3.21,3.21,0,0,0,1.5,2.77,44.18,44.18,0,0,0,.1,5.75q.27,4.42.32,8.85c.05,5.05.51,10.92-.58,15.87a3,3,0,0,0-.11,1,1.35,1.35,0,0,0-.42.2c-1,.63-3.06.48-4.22.58-2.56.21-5.13.35-7.69.46-5.49.21-11,.19-16.46,0-21.17-.86-42.21-.91-63.4-.76-4.67,0-9.24,11-4.12,11,13.65-.1,27.31-.41,41-.23,14,.18,27.8,1.64,41.77.88,5-.28,10.88,0,15.24-2.83,4.93-3.15,6.56-8.74,7-14.24A170.06,170.06,0,0,0,401.6,315.1Z"/><path class="cls-6" d="M287,300.6c.43-2,1.33-4.74,6.1-5.75,1.18-.25,90-2.66,99.58,2.16,2.93,1.48,2.86,5.56,2.72,7.89-.09,1.51.18,33-.17,36-.15,1.37-.6,4.81-2.67,5.92-2.76,1.49-91.54,1.56-99.36.81-2.85-.27-5.64-5.68-5.86-8.16S286.6,302.58,287,300.6Z"/><path class="cls-7" d="M392.27,297.76c-21.24-4.61-43.42-3.77-65-2l-4.89.38a1.87,1.87,0,0,0-1.45-.85c-5.64-.76-13.25-1.48-19.52.2-4.92-.23-9.33.62-11.74,5.48-1,2-1.3,4.63-.36,6.44a67.21,67.21,0,0,0-2.22,17c-.06,6.31-.55,14.53,3.91,19.57,2.36,2.67,5.56-2.16,5.94-4.2,1.65-8.68-2.27-17.89-1.83-26.75,0-.79.09-2.25.24-3.74,1.56-.35,3.12-1,4.57-1.38,3.2-.88,6.45-1.58,9.72-2.15,13-2.28,26.33-2.76,39.48-3,13.43-.27,26.84.41,40,3.27C392.52,306.72,396.29,298.63,392.27,297.76Z"/><path class="cls-4" d="M395.84,300c-1.82-5.19-6.5-5.1-11.27-5.65-12.05-1.41-24.46-.9-36.59-.9-13.85,0-27.73-.34-41.58.14-5,.18-11.36-.4-16.25,1-5.37,1.53-3.53,7.36-3.91,11.52v.14c-1.19,8-.16,16.87,0,25,.09,4.72-1,12.21,3.2,15.76,3.28,2.78,9.82,1.63,13.87,1.86,19.1,1.09,38.41.11,57.54-.13,9.45-.11,19.56.83,28.93-.38,5.61-.72,6.59-2.76,6.6-7.93,0-9.88.1-19.77.07-29.65C396.44,307.35,397,303.25,395.84,300Zm-4.75,45.79c-3.19,1.25-7.9.4-11.25.41-4.74,0-9.49.1-14.23.15-17.82.21-35.63.59-53.45.46-3.71,0-7.41-.15-11.12-.32-4.54-.2-9.52,1-11.88-3.77-1.62-3.29-1-7.68-1.13-11.26-.3-8-1.61-17.07-.39-25a.48.48,0,0,0,.05-.14c.23-1.62,0-3.25.13-4.88.28-3.82,2.21-5,5.51-5.21,4.68-.3,9.37-.53,14.06-.65,11.5-.3,23-.06,34.52,0,9.22,0,18.42.06,27.64.26,6.51.14,13,.13,19.42,1.33,5.43,1,5.32,6,5.31,10.49,0,9.15.05,18.31,0,27.46C394.2,338.7,395.07,344.25,391.09,345.79Z"/><path class="cls-8" d="M19.52,43.14a6.09,6.09,0,0,1-1.08.18A10.63,10.63,0,0,1,14.32,43a12.83,12.83,0,0,1-2.67-1.13,1.72,1.72,0,0,1-.47-.46,1.09,1.09,0,0,1-.18-.61.87.87,0,0,1,.18-.53,1.56,1.56,0,0,1,.44-.41,1.22,1.22,0,0,1,.56-.17.9.9,0,0,1,.56.17,7.71,7.71,0,0,0,2.12,1,8.14,8.14,0,0,0,2.4.35,4.34,4.34,0,0,0,2.84-.91,5.28,5.28,0,0,0,1.63-2.34c.06-.29.11-.6.17-.91s.13-.77.2-1.38a5.38,5.38,0,0,1-1,1,7.94,7.94,0,0,1-1.27.83,6.32,6.32,0,0,1-1.46.57,5.78,5.78,0,0,1-1.54.21,6.48,6.48,0,0,1-2.38-.44,6.07,6.07,0,0,1-2.06-1.29,6.27,6.27,0,0,1-1.44-2,6.85,6.85,0,0,1,0-5.38,6.14,6.14,0,0,1,1.46-2,6.62,6.62,0,0,1,2.05-1.28,6.21,6.21,0,0,1,2.37-.46A6,6,0,0,1,19.8,26a7.39,7.39,0,0,1,2,1.68c0-.28-.07-.47-.09-.58a.56.56,0,0,0-.07-.2,1.12,1.12,0,0,1,.17-1,1.08,1.08,0,0,1,.85-.47,1.06,1.06,0,0,1,1,.34,2.63,2.63,0,0,1,.42.91c.1.86.2,1.81.29,2.84s.15,2.11.15,3.21a27.63,27.63,0,0,1-.21,3.41,12.43,12.43,0,0,1-.78,3.11A8,8,0,0,1,22,41.69,5.24,5.24,0,0,1,19.52,43.14ZM17.26,36a5,5,0,0,0,2-.37,4.21,4.21,0,0,0,1.43-.95,3.67,3.67,0,0,0,.86-1.34,4.28,4.28,0,0,0,.29-1.53,4.36,4.36,0,0,0-.29-1.56,3.91,3.91,0,0,0-.87-1.35,4.7,4.7,0,0,0-1.44-1,5.34,5.34,0,0,0-3.66-.09,4,4,0,0,0-1.37.85A4.13,4.13,0,0,0,13.28,30,4.42,4.42,0,0,0,13,31.78a4,4,0,0,0,.35,1.71,4.13,4.13,0,0,0,.93,1.34,4.18,4.18,0,0,0,1.37.88A4.58,4.58,0,0,0,17.26,36Z"/><path class="cls-8" d="M38.45,31.52c0,.33,0,.63,0,.91v.83c0,.64,0,1.31,0,2s-.08,1.55-.18,2.55a2.62,2.62,0,0,1-.29,1.09,1,1,0,0,1-1,.44,1,1,0,0,1-.94-.52,1.69,1.69,0,0,1-.25-1v0A6.25,6.25,0,0,1,34,39a6.11,6.11,0,0,1-2.57.48,6.63,6.63,0,0,1-1.88-.27,5.08,5.08,0,0,1-1.66-.83A4.58,4.58,0,0,1,26.67,37a4,4,0,0,1-.44-1.91,4.4,4.4,0,0,1,.43-2,4.07,4.07,0,0,1,1.2-1.41,5.31,5.31,0,0,1,1.84-.86,9.35,9.35,0,0,1,2.38-.29,12.79,12.79,0,0,1,2.16.17c.64.11,1.24.25,1.79.4a5,5,0,0,0-.14-1.44,2.25,2.25,0,0,0-.61-1.06A2.75,2.75,0,0,0,34.1,28a7.27,7.27,0,0,0-1.86-.25,6.42,6.42,0,0,0-1.76.19,12.63,12.63,0,0,0-1.54.51,1.22,1.22,0,0,1-.56.07,1.31,1.31,0,0,1-.51-.19,1.09,1.09,0,0,1-.38-.36,1,1,0,0,1-.14-.51,1.11,1.11,0,0,1,.23-.7,1,1,0,0,1,.5-.36l0,0a13.23,13.23,0,0,1,2.07-.69,10.49,10.49,0,0,1,2.33-.24,7.19,7.19,0,0,1,2.53.4A6,6,0,0,1,36.87,27a4.26,4.26,0,0,1,1.24,2.07A9,9,0,0,1,38.45,31.52Zm-6.68,5.93a5.27,5.27,0,0,0,1.61-.25,4.36,4.36,0,0,0,1.34-.69,3.18,3.18,0,0,0,.92-1A2.64,2.64,0,0,0,36,34.15l0-1.07a14.4,14.4,0,0,0-1.7-.37,13.63,13.63,0,0,0-2-.15,4.58,4.58,0,0,0-2.67.66A2.12,2.12,0,0,0,28.7,35a2,2,0,0,0,.9,1.79A3.68,3.68,0,0,0,31.77,37.45Z"/><path class="cls-8" d="M48.28,39.45a6.17,6.17,0,0,1-1.85-.26A5.93,5.93,0,0,1,45,38.53a5.74,5.74,0,0,1-1-.86,8.13,8.13,0,0,1-.69-.82c0,.78,0,1.43.06,2s.06,1,.08,1.34.06.67.09.92.06.5.08.75a.4.4,0,0,1,0,.15v.1a1.53,1.53,0,0,1-.24,1,1,1,0,0,1-.8.47,1.43,1.43,0,0,1-.65-.08.89.89,0,0,1-.42-.31,1.82,1.82,0,0,1-.25-.48,3.4,3.4,0,0,1-.14-.59c-.07-.6-.13-1.13-.18-1.58s-.09-.88-.12-1.3,0-.85,0-1.29,0-1,0-1.57c0-1.3,0-2.7.17-4.21s.29-3.27.55-5.28a2.45,2.45,0,0,1,.39-1,1.14,1.14,0,0,1,1-.42.94.94,0,0,1,.84.44,1.67,1.67,0,0,1,.26,1A.48.48,0,0,1,44,27a6.92,6.92,0,0,1,1.82-1.25,5.7,5.7,0,0,1,2.47-.49,6.26,6.26,0,0,1,2.39.48,6.49,6.49,0,0,1,2.1,1.4,7.23,7.23,0,0,1,1.48,2.24,7.56,7.56,0,0,1,.56,3,7.74,7.74,0,0,1-.56,3,6.8,6.8,0,0,1-1.48,2.22,6.6,6.6,0,0,1-2.1,1.38A6.7,6.7,0,0,1,48.28,39.45Zm4-7.15a5.59,5.59,0,0,0-.35-2,4.61,4.61,0,0,0-1-1.52,4.19,4.19,0,0,0-1.4-1,4.69,4.69,0,0,0-1.72-.32,4.16,4.16,0,0,0-1.66.35,4.56,4.56,0,0,0-1.45,1,4.75,4.75,0,0,0-1,1.52,5.32,5.32,0,0,0,0,3.95,4.75,4.75,0,0,0,1,1.52,4.56,4.56,0,0,0,1.45,1,4.16,4.16,0,0,0,1.66.35,4.11,4.11,0,0,0,1.42-.22,4.59,4.59,0,0,0,1.08-.56,3.61,3.61,0,0,0,.79-.77,4.27,4.27,0,0,0,.53-.89A6.83,6.83,0,0,0,52.31,32.3Z"/><path class="cls-8" d="M57.74,26.94a1.46,1.46,0,0,1,2.92,0v.55a1.41,1.41,0,0,1-.41,1,1.58,1.58,0,0,1-2.1,0,1.41,1.41,0,0,1-.41-1Zm0,10.43a1.39,1.39,0,0,1,.41-1,1.58,1.58,0,0,1,2.1,0,1.39,1.39,0,0,1,.41,1v.49a1.47,1.47,0,0,1-.41,1.07,1.55,1.55,0,0,1-2.1,0,1.47,1.47,0,0,1-.41-1.07Z"/><path class="cls-8" d="M75,23.48l-1.06.37-1.07.34a1.47,1.47,0,0,1-1.11-.08,1.1,1.1,0,0,1-.28-1.64,1.58,1.58,0,0,1,.64-.39L75,21l.58-.17a3,3,0,0,1,.64-.06,1.19,1.19,0,0,1,.9.37,1.29,1.29,0,0,1,.35.87v16a1.22,1.22,0,0,1-.37.9,1.16,1.16,0,0,1-.88.37,1.19,1.19,0,0,1-.87-.37,1.23,1.23,0,0,1-.38-.9Z"/><path class="cls-8" d="M89.05,39.53a6.66,6.66,0,0,1-3.2-.76,7.45,7.45,0,0,1-2.43-2,9.41,9.41,0,0,1-1.54-3,12.21,12.21,0,0,1-.53-3.63,11.7,11.7,0,0,1,.55-3.61,9.3,9.3,0,0,1,1.56-3,7.48,7.48,0,0,1,2.44-2,6.66,6.66,0,0,1,3.2-.76,6.56,6.56,0,0,1,3.18.76,7.41,7.41,0,0,1,2.42,2,9.43,9.43,0,0,1,1.55,3,12.4,12.4,0,0,1,0,7.24,9.5,9.5,0,0,1-1.56,3,7.52,7.52,0,0,1-2.45,2A6.62,6.62,0,0,1,89.05,39.53Zm0-2.34a3.91,3.91,0,0,0,2.13-.58,5.21,5.21,0,0,0,1.6-1.54,7.46,7.46,0,0,0,1-2.25,9.91,9.91,0,0,0,.35-2.71,9.78,9.78,0,0,0-.36-2.67,7.49,7.49,0,0,0-1-2.25,5.23,5.23,0,0,0-1.62-1.56,4.18,4.18,0,0,0-4.25,0,5.36,5.36,0,0,0-1.61,1.54,7.27,7.27,0,0,0-1,2.25,10.34,10.34,0,0,0,0,5.41,7.56,7.56,0,0,0,1,2.26A5.22,5.22,0,0,0,87,36.61,4,4,0,0,0,89.1,37.19Z"/><path class="cls-8" d="M106.88,39.45a5.76,5.76,0,0,1-4.3-1.78,8.13,8.13,0,0,1-.69-.82c0,.78,0,1.43.07,2s.05,1,.07,1.34.06.67.09.92a6.36,6.36,0,0,1,.08.75.4.4,0,0,1,0,.15v.1a1.47,1.47,0,0,1-.24,1,1,1,0,0,1-.8.47,1.43,1.43,0,0,1-.65-.08,1,1,0,0,1-.42-.31,1.8,1.8,0,0,1-.24-.48,3.39,3.39,0,0,1-.15-.59c-.07-.6-.13-1.13-.18-1.58s-.09-.88-.12-1.3,0-.85-.05-1.29,0-1,0-1.57c0-1.3.06-2.7.17-4.21s.3-3.27.56-5.28a2.22,2.22,0,0,1,.39-1,1.12,1.12,0,0,1,1-.42.94.94,0,0,1,.83.44,1.6,1.6,0,0,1,.26,1,.48.48,0,0,1,0,.18,6.92,6.92,0,0,1,1.82-1.25,5.73,5.73,0,0,1,2.47-.49,6.22,6.22,0,0,1,2.39.48,6.39,6.39,0,0,1,2.1,1.4,7.05,7.05,0,0,1,1.48,2.24,7.56,7.56,0,0,1,.56,3,7.74,7.74,0,0,1-.56,3,6.64,6.64,0,0,1-1.48,2.22,6.49,6.49,0,0,1-2.1,1.38A6.65,6.65,0,0,1,106.88,39.45Zm4-7.15a5.39,5.39,0,0,0-.35-2,4.61,4.61,0,0,0-1-1.52,4.09,4.09,0,0,0-1.4-1,4.69,4.69,0,0,0-1.72-.32,4.19,4.19,0,0,0-1.66.35,4.42,4.42,0,0,0-1.44,1,4.62,4.62,0,0,0-1,1.52,5.32,5.32,0,0,0,0,3.95,4.62,4.62,0,0,0,1,1.52,4.42,4.42,0,0,0,1.44,1,4.19,4.19,0,0,0,1.66.35,4.11,4.11,0,0,0,1.42-.22,4.23,4.23,0,0,0,1.08-.56,3.61,3.61,0,0,0,.79-.77,3.88,3.88,0,0,0,.53-.89A6.83,6.83,0,0,0,110.91,32.3Z"/><path class="cls-8" d="M127,37.4a2.88,2.88,0,0,1,.24,1,1,1,0,0,1-.55.84l0,0a.81.81,0,0,1-.84.1,1.37,1.37,0,0,1-.7-.57c-.59-1-1.22-2-1.9-3a27.39,27.39,0,0,0-2.1-2.81c-.73.87-1.45,1.81-2.15,2.81s-1.34,2-1.91,3a1.49,1.49,0,0,1-.71.57.84.84,0,0,1-.85-.1l0,0a1.1,1.1,0,0,1-.55-.85,1.75,1.75,0,0,1,.26-1c.76-1.18,1.51-2.29,2.25-3.34s1.45-2,2.15-2.8c-.58-.6-1.19-1.22-1.85-1.84s-1.4-1.3-2.21-2a1.12,1.12,0,0,1-.34-.83.87.87,0,0,1,.37-.76,1.27,1.27,0,0,1,.5-.26,1.29,1.29,0,0,1,.48,0,1.13,1.13,0,0,1,.43.2,2.8,2.8,0,0,1,.38.32v0c.69.6,1.33,1.19,1.92,1.75s1.19,1.18,1.8,1.83c.57-.6,1.17-1.21,1.8-1.82s1.27-1.19,1.92-1.76v0a2.73,2.73,0,0,1,.37-.32,1.2,1.2,0,0,1,.43-.2,1.29,1.29,0,0,1,.48,0,1.24,1.24,0,0,1,.51.26.89.89,0,0,1,.36.76,1.15,1.15,0,0,1-.33.83c-.84.74-1.57,1.42-2.21,2s-1.26,1.22-1.85,1.84c.68.82,1.37,1.74,2.09,2.78s1.46,2.16,2.23,3.36Z"/><path class="cls-8" d="M19.52,174.82a6.09,6.09,0,0,1-1.08.18,10.63,10.63,0,0,1-4.12-.37,12.83,12.83,0,0,1-2.67-1.13,1.72,1.72,0,0,1-.47-.46,1.09,1.09,0,0,1-.18-.61.87.87,0,0,1,.18-.53,1.56,1.56,0,0,1,.44-.41,1.22,1.22,0,0,1,.56-.17,1,1,0,0,1,.56.17,7.71,7.71,0,0,0,2.12,1,8.14,8.14,0,0,0,2.4.35A4.34,4.34,0,0,0,20.1,172a5.28,5.28,0,0,0,1.63-2.34c.06-.29.11-.6.17-.91s.13-.77.2-1.38a5.38,5.38,0,0,1-1,1,7.94,7.94,0,0,1-1.27.83,6.84,6.84,0,0,1-1.46.58,6.2,6.2,0,0,1-1.54.2,6.48,6.48,0,0,1-2.38-.44,6.07,6.07,0,0,1-2.06-1.29,6.27,6.27,0,0,1-1.44-2,6.85,6.85,0,0,1,0-5.38,6.14,6.14,0,0,1,1.46-2,6.62,6.62,0,0,1,2.05-1.28,6.21,6.21,0,0,1,2.37-.46,6,6,0,0,1,2.95.66,7.39,7.39,0,0,1,2,1.68c0-.28-.07-.47-.09-.58a.56.56,0,0,0-.07-.2,1.12,1.12,0,0,1,.17-1,1.08,1.08,0,0,1,.85-.47,1.06,1.06,0,0,1,1,.34,2.63,2.63,0,0,1,.42.91c.1.86.2,1.81.29,2.84s.15,2.11.15,3.22a27.59,27.59,0,0,1-.21,3.4,12.43,12.43,0,0,1-.78,3.11A8,8,0,0,1,22,173.37,5.24,5.24,0,0,1,19.52,174.82Zm-2.26-7.12a5,5,0,0,0,2-.37,4.21,4.21,0,0,0,1.43-1,3.67,3.67,0,0,0,.86-1.34,4.28,4.28,0,0,0,.29-1.53,4.36,4.36,0,0,0-.29-1.56,3.91,3.91,0,0,0-.87-1.35,4.7,4.7,0,0,0-1.44-1,5.34,5.34,0,0,0-3.66-.09,4,4,0,0,0-1.37.85,4.13,4.13,0,0,0-.93,1.34,4.42,4.42,0,0,0-.33,1.74,4,4,0,0,0,.35,1.71,4.13,4.13,0,0,0,.93,1.34,4.18,4.18,0,0,0,1.37.88A4.58,4.58,0,0,0,17.26,167.7Z"/><path class="cls-8" d="M38.45,163.2c0,.33,0,.63,0,.91v.83c0,.64,0,1.31,0,2s-.08,1.55-.18,2.55a2.62,2.62,0,0,1-.29,1.09,1,1,0,0,1-1,.44,1,1,0,0,1-.94-.52,1.69,1.69,0,0,1-.25-1v0A6.25,6.25,0,0,1,34,170.7a6.11,6.11,0,0,1-2.57.48,6.63,6.63,0,0,1-1.88-.27,5.08,5.08,0,0,1-1.66-.83,4.58,4.58,0,0,1-1.17-1.38,4,4,0,0,1-.44-1.91,4.4,4.4,0,0,1,.43-2,4.07,4.07,0,0,1,1.2-1.41,5.31,5.31,0,0,1,1.84-.86,9.35,9.35,0,0,1,2.38-.29,12.79,12.79,0,0,1,2.16.17,16.33,16.33,0,0,1,1.79.41,5.07,5.07,0,0,0-.14-1.45,2.25,2.25,0,0,0-.61-1.06,2.75,2.75,0,0,0-1.18-.65,7.27,7.27,0,0,0-1.86-.25,6.42,6.42,0,0,0-1.76.19,12.63,12.63,0,0,0-1.54.51,1.22,1.22,0,0,1-.56.07,1.31,1.31,0,0,1-.51-.19,1.09,1.09,0,0,1-.38-.36,1,1,0,0,1-.14-.51,1.11,1.11,0,0,1,.23-.7,1,1,0,0,1,.5-.36l0,0a13.23,13.23,0,0,1,2.07-.69,10.49,10.49,0,0,1,2.33-.24,7.19,7.19,0,0,1,2.53.4,6,6,0,0,1,1.89,1.13,4.26,4.26,0,0,1,1.24,2.07A9,9,0,0,1,38.45,163.2Zm-6.68,5.93a5.27,5.27,0,0,0,1.61-.25,4.36,4.36,0,0,0,1.34-.69,3.18,3.18,0,0,0,.92-1.05,2.64,2.64,0,0,0,.34-1.31l0-1.07a12.76,12.76,0,0,0-1.7-.36,12.41,12.41,0,0,0-2-.16,4.58,4.58,0,0,0-2.67.66,2.12,2.12,0,0,0-.92,1.81,2,2,0,0,0,.9,1.79A3.68,3.68,0,0,0,31.77,169.13Z"/><path class="cls-8" d="M48.28,171.13a6.17,6.17,0,0,1-1.85-.26,5.57,5.57,0,0,1-1.41-.66,5.74,5.74,0,0,1-1-.86,8.13,8.13,0,0,1-.69-.82c0,.78,0,1.43.06,2s.06,1,.08,1.34.06.67.09.92.06.5.08.75a.4.4,0,0,1,0,.15v.1a1.53,1.53,0,0,1-.24,1,1,1,0,0,1-.8.47,1.43,1.43,0,0,1-.65-.08.89.89,0,0,1-.42-.31,1.82,1.82,0,0,1-.25-.48,3.4,3.4,0,0,1-.14-.59c-.07-.6-.13-1.13-.18-1.58s-.09-.88-.12-1.3,0-.85,0-1.29,0-1,0-1.57c0-1.3,0-2.7.17-4.21s.29-3.27.55-5.28a2.45,2.45,0,0,1,.39-1,1.14,1.14,0,0,1,1-.42.94.94,0,0,1,.84.44,1.67,1.67,0,0,1,.26,1,.48.48,0,0,1,0,.18,6.92,6.92,0,0,1,1.82-1.25,5.7,5.7,0,0,1,2.47-.49,6.26,6.26,0,0,1,2.39.48,6.49,6.49,0,0,1,2.1,1.4A7.23,7.23,0,0,1,54.25,161a7.56,7.56,0,0,1,.56,3,7.74,7.74,0,0,1-.56,3,6.8,6.8,0,0,1-1.48,2.22,6.6,6.6,0,0,1-2.1,1.38A6.7,6.7,0,0,1,48.28,171.13Zm4-7.15a5.59,5.59,0,0,0-.35-2,4.61,4.61,0,0,0-1-1.52,4.19,4.19,0,0,0-1.4-.95,4.69,4.69,0,0,0-1.72-.32,4.16,4.16,0,0,0-1.66.35,4.56,4.56,0,0,0-1.45,1,4.75,4.75,0,0,0-1,1.52,5.32,5.32,0,0,0,0,3.95,4.75,4.75,0,0,0,1,1.52,4.56,4.56,0,0,0,1.45,1,4.16,4.16,0,0,0,1.66.35,4.11,4.11,0,0,0,1.42-.22,4.59,4.59,0,0,0,1.08-.56,3.61,3.61,0,0,0,.79-.77,4.27,4.27,0,0,0,.53-.89A6.83,6.83,0,0,0,52.31,164Z"/><path class="cls-8" d="M57.74,158.62a1.46,1.46,0,0,1,2.92,0v.55a1.39,1.39,0,0,1-.41,1,1.58,1.58,0,0,1-2.1,0,1.39,1.39,0,0,1-.41-1Zm0,10.43a1.39,1.39,0,0,1,.41-1,1.58,1.58,0,0,1,2.1,0,1.39,1.39,0,0,1,.41,1v.49a1.47,1.47,0,0,1-.41,1.07,1.55,1.55,0,0,1-2.1,0,1.47,1.47,0,0,1-.41-1.07Z"/><path class="cls-8" d="M78.57,171.21a8.21,8.21,0,0,1-3.65-.77,8.69,8.69,0,0,1-2.69-2A4.79,4.79,0,0,1,72,168a1.09,1.09,0,0,1-.12-.46,1.33,1.33,0,0,1,.31-.86,1.12,1.12,0,0,1,.89-.36,1.26,1.26,0,0,1,.57.12,1,1,0,0,1,.36.27,6.84,6.84,0,0,0,2.07,1.61,5.58,5.58,0,0,0,2.54.55,4.63,4.63,0,0,0,1.41-.22,3.41,3.41,0,0,0,1.15-.65,3.32,3.32,0,0,0,.76-1,3,3,0,0,0,.29-1.34,2.62,2.62,0,0,0-.34-1.36,2.83,2.83,0,0,0-1-1,4.84,4.84,0,0,0-1.48-.61,8.07,8.07,0,0,0-1.9-.21h-.65a1.06,1.06,0,0,1-.83-.35,1.16,1.16,0,0,1-.32-.79,1.12,1.12,0,0,1,.14-.5,1.09,1.09,0,0,1,.39-.44c.41-.48.81-.95,1.2-1.39l1.17-1.31,1.17-1.32c.39-.44.8-.9,1.21-1.39H73.73a1.2,1.2,0,0,1-.84-.31,1,1,0,0,1-.35-.8,1.09,1.09,0,0,1,.35-.85,1.17,1.17,0,0,1,.84-.33h9.65a1.2,1.2,0,0,1,.92.3,1.08,1.08,0,0,1,.28.74,1.63,1.63,0,0,1-.16.64A2,2,0,0,1,84,155l-2.43,2.71-2.43,2.72a10.38,10.38,0,0,1,2.18.48,5.64,5.64,0,0,1,1.77,1,4.7,4.7,0,0,1,1.19,1.56,5,5,0,0,1,.45,2.2,5.28,5.28,0,0,1-1.8,4,5.78,5.78,0,0,1-2,1.14A7.12,7.12,0,0,1,78.57,171.21Z"/><path class="cls-8" d="M95.68,171.21a6.66,6.66,0,0,1-3.2-.76,7.45,7.45,0,0,1-2.43-2,9.19,9.19,0,0,1-1.53-3,11.89,11.89,0,0,1-.54-3.63,11.7,11.7,0,0,1,.55-3.61,9.3,9.3,0,0,1,1.56-3,7.48,7.48,0,0,1,2.44-2,6.66,6.66,0,0,1,3.2-.76,6.56,6.56,0,0,1,3.18.76,7.31,7.31,0,0,1,2.42,2,9.43,9.43,0,0,1,1.55,3,12.19,12.19,0,0,1,0,7.24,9.3,9.3,0,0,1-1.56,3,7.59,7.59,0,0,1-2.44,2A6.69,6.69,0,0,1,95.68,171.21Zm0-2.34a3.91,3.91,0,0,0,2.13-.58,5.1,5.1,0,0,0,1.6-1.54,7.73,7.73,0,0,0,1-2.25,10.32,10.32,0,0,0,.35-2.71,9.78,9.78,0,0,0-.37-2.67,7.73,7.73,0,0,0-1-2.25,5.37,5.37,0,0,0-1.63-1.56,4.18,4.18,0,0,0-4.25,0A5.36,5.36,0,0,0,92,156.83a7.27,7.27,0,0,0-1,2.25,10.34,10.34,0,0,0,0,5.41,7.56,7.56,0,0,0,1,2.26,5.22,5.22,0,0,0,1.64,1.54A4,4,0,0,0,95.73,168.87Z"/><path class="cls-8" d="M113.51,171.13a6.05,6.05,0,0,1-1.84-.26,5.64,5.64,0,0,1-1.42-.66,6.1,6.1,0,0,1-1-.86,8.13,8.13,0,0,1-.69-.82c0,.78,0,1.43.07,2s0,1,.07,1.34.06.67.1.92.06.5.07.75a.4.4,0,0,1,0,.15v.1a1.52,1.52,0,0,1-.23,1,1,1,0,0,1-.81.47,1.43,1.43,0,0,1-.65-.08,1,1,0,0,1-.42-.31,1.8,1.8,0,0,1-.24-.48,4.61,4.61,0,0,1-.15-.59c-.07-.6-.13-1.13-.18-1.58s-.09-.88-.12-1.3,0-.85,0-1.29,0-1,0-1.57c0-1.3.06-2.7.17-4.21s.3-3.27.56-5.28a2.22,2.22,0,0,1,.39-1,1.13,1.13,0,0,1,1-.42.94.94,0,0,1,.83.44,1.6,1.6,0,0,1,.26,1,.48.48,0,0,1,0,.18A6.92,6.92,0,0,1,111,157.4a5.73,5.73,0,0,1,2.47-.49,6.27,6.27,0,0,1,2.4.48,6.45,6.45,0,0,1,2.09,1.4,7.05,7.05,0,0,1,1.48,2.24,7.56,7.56,0,0,1,.56,3,7.74,7.74,0,0,1-.56,3,6.64,6.64,0,0,1-1.48,2.22,6.56,6.56,0,0,1-2.09,1.38A6.71,6.71,0,0,1,113.51,171.13Zm4-7.15a5.39,5.39,0,0,0-.35-2,4.61,4.61,0,0,0-1-1.52,4.09,4.09,0,0,0-1.4-.95,4.69,4.69,0,0,0-1.72-.32,4.19,4.19,0,0,0-1.66.35,4.42,4.42,0,0,0-1.44,1,4.62,4.62,0,0,0-1,1.52,5.46,5.46,0,0,0,0,3.95,4.62,4.62,0,0,0,1,1.52,4.42,4.42,0,0,0,1.44,1,4.19,4.19,0,0,0,1.66.35,4.11,4.11,0,0,0,1.42-.22,4.23,4.23,0,0,0,1.08-.56,3.4,3.4,0,0,0,.79-.77,4.32,4.32,0,0,0,.54-.89A7.05,7.05,0,0,0,117.54,164Z"/><path class="cls-8" d="M133.61,169.08a2.88,2.88,0,0,1,.24,1,1,1,0,0,1-.55.85l0,0a.81.81,0,0,1-.84.1,1.37,1.37,0,0,1-.7-.57c-.59-1-1.22-2-1.9-3a27.39,27.39,0,0,0-2.1-2.81c-.73.87-1.45,1.81-2.15,2.81s-1.34,2-1.91,3a1.49,1.49,0,0,1-.71.57.84.84,0,0,1-.85-.1l0,0a1.14,1.14,0,0,1-.55-.86,1.75,1.75,0,0,1,.26-1c.76-1.18,1.51-2.29,2.25-3.34s1.45-2,2.15-2.8c-.58-.6-1.19-1.22-1.85-1.84s-1.4-1.3-2.21-2a1.12,1.12,0,0,1-.34-.83.87.87,0,0,1,.37-.76,1.27,1.27,0,0,1,.5-.26,1.29,1.29,0,0,1,.48,0,1.13,1.13,0,0,1,.43.2,2.8,2.8,0,0,1,.38.32v0c.69.6,1.33,1.19,1.92,1.75s1.19,1.18,1.8,1.83c.57-.6,1.17-1.21,1.8-1.81s1.27-1.2,1.92-1.77v0a2.73,2.73,0,0,1,.37-.32,1.2,1.2,0,0,1,.43-.2,1.29,1.29,0,0,1,.48,0,1.24,1.24,0,0,1,.51.26.89.89,0,0,1,.36.76,1.15,1.15,0,0,1-.33.83c-.84.74-1.57,1.42-2.21,2s-1.26,1.22-1.85,1.84c.68.82,1.37,1.74,2.09,2.78s1.46,2.16,2.23,3.36Z"/><path class="cls-3" d="M460.75,186.9c-28.64-2.9-57.6-4.8-86.69-5.68-24.36-.67-48.87.53-73.23,1.13l-86.71,2.28c-27.47.7-55.71,2.39-83.11.64-25.58-1.72-49-6.1-75-3.34-9.72,1-21.41,2.5-29.38,5.91-9.11,3.9-10.3,9.73-11.1,15.54-2,15.74-3.25,31.46-3.9,47.28a563.78,563.78,0,0,0,5.68,105.83c1.05,7.05,16.58-.18,15.89-4.77a567.44,567.44,0,0,1-6-87.8q.24-22.55,2.25-45.06c.61-6.75,1.8-13.5,2.1-20.25a22.74,22.74,0,0,1,.29-2.27l-.44-.13c.86-.89,8.75-1.82,10.49-2.12,5.75-.94,11.64-1.61,17.61-2,25-1.57,48.91,3.68,73.65,4.54,25.79.85,51.94-.54,77.64-1.2l80.52-2.07c23.08-.59,46.52-1.76,69.73-1.34,31,.74,61.86,2.7,92.33,5.88C461.48,198.63,470.59,187.86,460.75,186.9Z"/><path class="cls-4" d="M474.6,203.77c-.23-6.65,2-14-9.36-18.33-4.45-1.67-9-1.68-14.29-1.86-21.7-.77-43.52-.76-65.26-.89-68.52-.39-137-.23-205.54,0-43.1.13-86.24,0-129.3.47-14.42.1-35-1.72-38.26,8.37a1,1,0,0,0,0,.24c-1.4,8.39-.4,17-.52,25.49q-.37,26.84-.63,53.68c-.25,25.74-1.91,51.61-.71,77.34.21,4.13.56,9.31,4.42,13,2.94,2.81,6.91,3.09,12.38,3.41q18.57,1.09,37.27,1H117l203.25.16h87.4c15.44,0,31.62.63,47-.42,7.43-.51,15.89-1.35,17.84-5.78,2.1-4.94,1.49-11,1.78-16.05.15-2.58,0-5.16,0-7.73V290.75C474.45,261.84,475.58,232.76,474.6,203.77Zm-5,139.87c-.23,3.77-1.09,7.53-1.32,11.36-.19,3.27,1,5.34-6.3,7.12-6.08,1.5-14.1,1.21-20.71,1.25H354l-198.36-.14c-41.34,0-83.94,1.37-125.15-.83-4.78-.25-8.39,0-11.35-2.28s-3.13-6.27-3.51-9a34.57,34.57,0,0,1-.29-3.58V292.5c0-31.31-.21-62.63,0-93.95a42.51,42.51,0,0,1,.13-6.38h0c2.72-7.6,15.63-6.48,26.63-6.66,9.77-.15,19.53-.07,29.37-.07h11l62.95-.19Q244.2,185,343,185.11c26.94.07,53.88.16,80.8.53,12.47.16,36.75-1.85,44.07,4.81,3.46,3.14,2.1,9.56,2.2,13.1v15.88q0,24.31-.21,48.61c0,25,1.33,50.38-.29,75.6Z"/><path class="cls-2" d="M477.24,503.22c-3.31-14.75-3-30.07-9.15-44.68l6.67-35.36c.72-3.86-4.4-6.48-11.87-7.46-32.61-4.29-69.44-3.44-103.1-4q-53.13-.84-106.32-.84-106.35,0-212.51,3.38c-14.87.47-25.79,6.21-30.78,12.4-1.95,2.5-4,8.76.15,12-5,4.71-6.82,10-5.12,15.19,1.42,4.22,5.6,8.17,6.12,12.46,1.3,10.54-2.81,21.47-3.52,32A212.4,212.4,0,0,0,8,530.28q.65,8,1.93,15.9c.78,4.83-.67,12.13,5.92,16.24,5.89,3.68,18.59,4.18,27.68,4.47,11.33.35,22.66-.28,33.93-.7,23.13-.78,46.35-.83,69.5-.15,46.81,1.15,93.33,2.62,140.25,2.62,25.83,0,51.66-.32,77.47,0s51.71,1,77.65.85c20.1,0,38.42-13.21,32.67-21.91-4.2-6.34-.65-12.31,1.45-18.68A47.49,47.49,0,0,0,477.24,503.22Zm-77.12-44.54c.53.25.34.35-.5.33l-.12-.39ZM424.61,460a16,16,0,0,0-2.2,3c-2.29-.3-4.57-.58-6.88-.84a63.35,63.35,0,0,0,9.23-2.9c0,.23-.11.46-.15.71Z"/><path class="cls-5" d="M244.93,434c-.5-7.09-9,.19-8.65,4.81.55,7.8.91,15.61,1,23.43.06,3.67-.11,7.25-.3,10.89l-.55.08c-1.9-.32-4.76.64-6.71.85a188.72,188.72,0,0,1-45-.77,2.91,2.91,0,0,0-2.35-.53l-1.7.22c-3.65.48-8.35,10.11-3.08,10.88A194.49,194.49,0,0,0,208.37,486c9.12-.1,19.62,0,28.49-2.42,7.88-2.11,8.87-12,9.11-18.78A291.19,291.19,0,0,0,244.93,434Z"/><path class="cls-6" d="M172.59,475.27c.2,1,3,2.6,5.29,3.12.55.12,53.73,1.95,57.55-.4s4-8,4-8.77l-.57-38.79s.57-4-4.54-4.87c-5.36-.9-51.35-.37-55.08-.65-6.81-.5-6.62,3.91-6.73,5.19S172.39,474.25,172.59,475.27Z"/><path class="cls-7" d="M237.87,427.85c-4-1.59-9.74-1.06-14-1.31-5.25-.32-10.51-.56-15.77-.75a125.88,125.88,0,0,0-15.78.06c-2.08.2-4.14.57-6.21.81-2.4.27-5.09-.35-7.39.06-2.69.48-4.27,2.81-4.89,5.34-1.19,4.82-.71,10.46-1,15.42-.53,9.89-.94,19.15,1.8,28.8,1.08,3.83,5.33-.68,6-2.42,2.1-5.7.75-12.11.89-18.06a85.25,85.25,0,0,1,3-21c1.24-.17,2.48-.36,3.72-.51a96.61,96.61,0,0,1,14.83-.28q7.41.24,14.79.64c2.63.15,5.25.31,7.88.49,1.91.12,4.82-.16,6.87.31.25.76.89,1.13,2.06.73l.21-.07a6.48,6.48,0,0,0,4-5.85V430C238.9,429.32,238.55,428.12,237.87,427.85Zm-5.35,5.75v0Z"/><path class="cls-4" d="M240.43,463.15q-.13-13.2-.26-26.4v-2.6c-.08-1.69.43-5.21-.28-6.62-1.65-3.26-8.48-3.29-11.61-3.53-9.15-.7-18.41-.69-27.58-.53-5.13.09-10.25.33-15.38.37-4,0-8.87-.94-12,2.21-1.78,1.8-1.94,3.86-1.94,6.22,0,4.58.1,9.17.16,13.75.12,9.15.44,18.32.34,27.47a.66.66,0,0,0,0,.28c.66,6.91,9.8,5.68,14.75,5.77,9,.16,18.05.26,27.08.37,2.32,0,4.64,0,7,.08,4.6.09,10.75,1,15.14-.78C241.3,477,240.48,468.08,240.43,463.15Zm-2,6.07c-.14,2-.69,5.46-2.06,7-1.72,2-5.39,1.63-7.79,1.69-4,.11-7.91,0-11.86-.07l-20.17-.2-13.42-.14c-3.32,0-9,.71-9.78-4h0c.15-13.91-.18-27.86.31-41.76.13-3.78,2.12-5.65,6.36-5.77s8.37,0,12.55-.06c7.7-.19,15.35-.43,23.05-.14,4.22.16,8.48.13,12.69.44,2.09.16,6.69.23,8.42,1.56,1.35,1,1.12,4.32,1.24,6.25.35,6,.16,12,.24,18,0,5.74.58,11.58.17,17.2Z"/><path class="cls-5" d="M129,452.84c-.36-6.81-2.63-13.55-1.78-20.38,1-7.79-7.76-3-8.41,2.14-.95,7.64,1,14.53,1.49,22.1a93.27,93.27,0,0,1,0,11.34c-.09,1.58-.21,3.15-.34,4.73-.06.75-.13,1.5-.2,2.25-2.74,0-6.1-.85-8.14-1q-5.31-.52-10.63-1-11.11-.86-22.27-1.14A442.13,442.13,0,0,0,34.15,473c-2.83.21-4.91,2.56-5.86,5.13-.54,1.45-1.12,6.06,1.74,5.85a445.42,445.42,0,0,1,77.47.94c4.62.46,11.22,2.09,15.43-.57,4.52-2.86,5-8.1,5.39-12.91A128.77,128.77,0,0,0,129,452.84Z"/><path class="cls-6" d="M121.8,429.8c-.24-1-1.48-3.85-4.14-4.37-.66-.13-16.92-1.06-21.62-1,0,0-66,.28-67.58.64-1.25.28-4.78,1.17-4.73,7.06L23,470.29c.19,1.56,1.36,7.86,5.23,7.9,4.6,0,87.82.92,89.1.58a5.19,5.19,0,0,0,4-4.52C121.5,473,122,430.82,121.8,429.8Z"/><path class="cls-7" d="M119.71,426.32C107.2,424.6,94.58,424.24,82,424c-12.32-.25-24.54,1.12-36.85,1.29-2.72,0-5.45.1-8.18.11-2,0-4.63-.63-6.59-.26-3.27.63-5.07,4.07-5.32,7.14-.38,4.72.38,9.74.72,14.62A50,50,0,0,0,25,472.65c1,4.24,6.08-1.41,6.28-3.48.66-6.75,1.09-13.5,1.11-20.28v-4.58A37.31,37.31,0,0,1,37.3,435a5,5,0,0,0,.61-1.4c3.15,0,6.3-.07,9.44-.13,7.55-.15,15-1.12,22.57-1.28a295,295,0,0,1,46.69,2.41C120.05,435,123.71,426.88,119.71,426.32Z"/><path class="cls-4" d="M122.73,463.48V442.64c0-4.13.36-8.54-.16-12.66a.54.54,0,0,0,0-.18c-.7-5.67-4.24-5.42-9.19-5.73-5.88-.36-11.88-.65-17.76-.67H65c-9.34,0-18.66,0-28,.2-4,.1-12.28-.92-13.94,3.88-1,2.74-.39,7-.45,9.89-.2,10.65-1,21.47-.63,32.12.15,4.11,1,8.88,5.47,9.73s9.63.22,14.2.27c21.38.25,42.82,1,64.2.51,3.83-.08,14.53,1.53,16.4-3.28C123.55,473.21,122.74,467.25,122.73,463.48Zm-1.62-23.58q-.09,8.52-.21,17c-.06,4.14,0,8.3-.18,12.43a21.22,21.22,0,0,1-.43,5.22c-1.11,3.72-4.79,2.87-7.91,3-19.63.72-39.34,0-59-.23l-14-.14H35.8c-4,0-9.13,1.2-10.83-3.19-1.23-3.18-.79-6.7-.75-10,.08-5.23.18-10.46.27-15.69.08-4.72.17-9.44.23-14.15v-2.24c0-2-.21-3.24,1.44-4.64,1.44-1.23,3.09-1.22,4.85-1.33,8.46-.52,17-.42,25.46-.43H91.32c3.55,0,7.09,0,10.64.11,3.78.11,7.56.24,11.33.44,3.3.17,7,0,7.74,4.05v.1C121.55,433.25,121.14,436.74,121.11,439.9Z"/><path class="cls-5" d="M401.6,445.45c-.16-4.26.89-12.47-2.82-15.42-.8-.64-2.35-.17-3.08.25l-.31.17a8.78,8.78,0,0,0-4.24,7.35,3.19,3.19,0,0,0,1.5,2.77,44.12,44.12,0,0,0,.1,5.75q.27,4.44.32,8.85c.05,5.05.51,10.92-.58,15.87a3.11,3.11,0,0,0-.11,1,1.62,1.62,0,0,0-.42.2c-1,.63-3.06.48-4.22.58-2.56.21-5.13.35-7.69.46-5.49.21-11,.19-16.46,0-21.17-.86-42.21-.91-63.4-.76-4.67,0-9.24,11-4.12,11,13.65-.1,27.31-.41,41-.23,14,.18,27.8,1.64,41.77.88,5-.28,10.88,0,15.24-2.83,4.93-3.15,6.56-8.74,7-14.24A170,170,0,0,0,401.6,445.45Z"/><path class="cls-6" d="M287,431c.43-2,1.33-4.74,6.1-5.75,1.18-.25,90-2.66,99.58,2.16,2.93,1.48,2.86,5.56,2.72,7.89-.09,1.51.18,33-.17,36-.15,1.37-.6,4.81-2.67,5.92-2.76,1.49-91.54,1.56-99.36.81-2.85-.27-5.64-5.68-5.86-8.16S286.6,432.93,287,431Z"/><path class="cls-7" d="M392.27,428.11c-21.24-4.61-43.42-3.77-65-2l-4.89.38a1.92,1.92,0,0,0-1.45-.85c-5.64-.76-13.25-1.48-19.52.2-4.92-.23-9.33.62-11.74,5.48-1,2-1.3,4.63-.36,6.44a67.33,67.33,0,0,0-2.22,17c-.06,6.31-.55,14.53,3.91,19.57,2.36,2.67,5.56-2.16,5.94-4.2,1.65-8.68-2.27-17.89-1.83-26.75,0-.79.09-2.25.24-3.74,1.56-.35,3.12-1,4.57-1.38,3.2-.88,6.45-1.58,9.72-2.15,13-2.28,26.33-2.76,39.48-3,13.43-.27,26.84.41,40,3.27C392.52,437.07,396.29,429,392.27,428.11Z"/><path class="cls-4" d="M395.84,430.35c-1.82-5.19-6.5-5.1-11.27-5.65-12.05-1.41-24.46-.9-36.59-.9-13.85,0-27.73-.34-41.58.14-5,.18-11.36-.4-16.25,1-5.37,1.53-3.53,7.36-3.91,11.52v.14c-1.19,8-.16,16.87,0,25,.09,4.72-1,12.21,3.2,15.76,3.28,2.78,9.82,1.63,13.87,1.86,19.1,1.09,38.41.11,57.54-.13,9.45-.11,19.56.83,28.93-.38,5.61-.72,6.59-2.76,6.6-7.93,0-9.88.1-19.77.07-29.65C396.44,437.7,397,433.6,395.84,430.35Zm-4.75,45.79c-3.19,1.25-7.9.4-11.25.41-4.74,0-9.49.1-14.23.15-17.82.21-35.63.59-53.45.46-3.71,0-7.41-.15-11.12-.32-4.54-.2-9.52,1-11.88-3.77-1.62-3.29-1-7.68-1.13-11.26-.3-8-1.61-17.07-.39-25a.34.34,0,0,0,.05-.14c.23-1.62,0-3.25.13-4.88.28-3.82,2.21-5,5.51-5.21,4.68-.3,9.37-.53,14.06-.65,11.5-.3,23-.06,34.52,0,9.22,0,18.42.06,27.64.26,6.51.14,13,.13,19.42,1.33,5.43,1,5.32,6,5.31,10.49,0,9.15.05,18.31,0,27.46C394.2,469.05,395.07,474.6,391.09,476.14Z"/><path class="cls-5" d="M244.93,508.68c-.5-7.09-9,.19-8.65,4.81.55,7.8.91,15.61,1,23.43.06,3.67-.11,7.25-.3,10.89l-.55.08c-1.9-.32-4.76.64-6.71.85a188.72,188.72,0,0,1-45-.77,2.87,2.87,0,0,0-2.35-.53l-1.7.22c-3.65.48-8.35,10.11-3.08,10.88a195.68,195.68,0,0,0,30.78,2.17c9.12-.1,19.62,0,28.49-2.42,7.88-2.11,8.87-12,9.11-18.78A291,291,0,0,0,244.93,508.68Z"/><path class="cls-6" d="M172.59,550c.2,1,3,2.6,5.29,3.12.55.12,53.73,1.95,57.55-.4s4-8,4-8.77l-.57-38.79s.57-4-4.54-4.87c-5.36-.9-51.35-.37-55.08-.65-6.81-.5-6.62,3.91-6.73,5.19S172.39,548.94,172.59,550Z"/><path class="cls-7" d="M237.87,502.54c-4-1.59-9.74-1.06-14-1.31-5.25-.32-10.51-.56-15.77-.75a122.19,122.19,0,0,0-15.78.06c-2.08.2-4.14.57-6.21.81-2.4.27-5.09-.35-7.39.06-2.69.48-4.27,2.81-4.89,5.34-1.19,4.82-.71,10.46-1,15.42-.53,9.89-.94,19.15,1.8,28.8,1.08,3.83,5.33-.68,6-2.42,2.1-5.7.75-12.11.89-18.06a85.18,85.18,0,0,1,3-21c1.24-.17,2.48-.36,3.72-.51a95.36,95.36,0,0,1,14.83-.28q7.41.24,14.79.64c2.63.15,5.25.31,7.88.49,1.91.12,4.82-.16,6.87.31.25.76.89,1.13,2.06.73l.21-.07a6.5,6.5,0,0,0,4-5.85v-.26C238.9,504,238.55,502.81,237.87,502.54Zm-5.35,5.75v0Z"/><path class="cls-4" d="M240.43,537.84q-.13-13.2-.26-26.4v-2.6c-.08-1.69.43-5.21-.28-6.62-1.65-3.26-8.48-3.29-11.61-3.53-9.15-.7-18.41-.69-27.58-.53-5.13.09-10.25.33-15.38.37-4,0-8.87-.94-12,2.21-1.78,1.8-1.94,3.86-1.94,6.22,0,4.58.1,9.17.16,13.75.12,9.15.44,18.32.34,27.47a.66.66,0,0,0,0,.28c.66,6.91,9.8,5.68,14.75,5.77,9,.16,18.05.26,27.08.37,2.32,0,4.64,0,7,.08,4.6.09,10.75,1,15.14-.78C241.3,551.66,240.48,542.77,240.43,537.84Zm-2,6.07c-.14,2-.69,5.46-2.06,7-1.72,2-5.39,1.63-7.79,1.69-4,.11-7.91,0-11.86-.07l-20.17-.2-13.42-.14c-3.32,0-9,.71-9.78-4h0c.15-13.91-.18-27.86.31-41.76.13-3.78,2.12-5.65,6.36-5.77s8.37,0,12.55-.06c7.7-.19,15.35-.43,23.05-.14,4.22.16,8.48.13,12.69.44,2.09.16,6.69.23,8.42,1.56,1.35,1,1.12,4.32,1.24,6.25.35,6,.16,12,.24,18,0,5.74.58,11.58.17,17.2Z"/><path class="cls-5" d="M129,527.53c-.36-6.81-2.63-13.55-1.78-20.38,1-7.79-7.76-3-8.41,2.14-.95,7.64,1,14.53,1.49,22.1a93.27,93.27,0,0,1,0,11.34c-.09,1.58-.21,3.15-.34,4.73-.06.75-.13,1.5-.2,2.25-2.74,0-6.1-.85-8.14-1q-5.31-.53-10.63-1-11.11-.86-22.27-1.14a439.21,439.21,0,0,0-44.58,1.15c-2.83.21-4.91,2.56-5.86,5.13-.54,1.45-1.12,6.06,1.74,5.85a444.44,444.44,0,0,1,77.47.94c4.62.46,11.22,2.09,15.43-.57,4.52-2.86,5-8.1,5.39-12.91A128.82,128.82,0,0,0,129,527.53Z"/><path class="cls-6" d="M121.8,504.49c-.24-1-1.48-3.85-4.14-4.37-.66-.13-16.92-1.06-21.62-1,0,0-66,.28-67.58.64-1.25.28-4.78,1.17-4.73,7.06L23,545c.19,1.56,1.36,7.86,5.23,7.9,4.6,0,87.82.92,89.1.58a5.21,5.21,0,0,0,4-4.52C121.5,547.65,122,505.51,121.8,504.49Z"/><path class="cls-7" d="M119.71,501c-12.51-1.72-25.13-2.08-37.74-2.33-12.32-.25-24.54,1.12-36.85,1.29-2.72,0-5.45.1-8.18.11-2,0-4.63-.63-6.59-.26-3.27.63-5.07,4.07-5.32,7.14-.38,4.72.38,9.74.72,14.62A50,50,0,0,0,25,547.34c1,4.24,6.08-1.41,6.28-3.48.66-6.75,1.09-13.5,1.11-20.28V519a37.14,37.14,0,0,1,4.89-9.31,5.27,5.27,0,0,0,.61-1.4c3.15,0,6.3-.07,9.44-.13,7.55-.15,15-1.12,22.57-1.28a293.79,293.79,0,0,1,46.69,2.41C120.05,509.73,123.71,501.57,119.71,501Z"/><path class="cls-4" d="M122.73,538.17V517.33c0-4.13.36-8.54-.16-12.66a.54.54,0,0,0,0-.18c-.7-5.67-4.24-5.42-9.19-5.73-5.88-.36-11.88-.65-17.76-.67H65c-9.34,0-18.66,0-28,.2-4,.1-12.28-.92-13.94,3.88-1,2.74-.39,7-.45,9.89-.2,10.65-1,21.47-.63,32.12.15,4.11,1,8.88,5.47,9.73s9.63.22,14.2.27c21.38.25,42.82,1,64.2.51,3.83-.08,14.53,1.53,16.4-3.28C123.55,547.9,122.74,541.94,122.73,538.17Zm-1.62-23.58q-.09,8.5-.21,17c-.06,4.14,0,8.3-.18,12.43a21.3,21.3,0,0,1-.43,5.22c-1.11,3.72-4.79,2.87-7.91,3-19.63.72-39.34,0-59-.23l-14-.14H35.8c-4,0-9.13,1.2-10.83-3.19-1.23-3.18-.79-6.7-.75-10,.08-5.23.18-10.46.27-15.69.08-4.72.17-9.44.23-14.15V506.6c0-2-.21-3.24,1.44-4.64,1.44-1.23,3.09-1.22,4.85-1.33,8.46-.52,17-.42,25.46-.43H91.32c3.55,0,7.09,0,10.64.11,3.78.11,7.56.24,11.33.44,3.3.17,7,0,7.74,4.05v.1C121.55,507.94,121.14,511.43,121.11,514.59Z"/><path class="cls-5" d="M401.6,520.14c-.16-4.26.89-12.47-2.82-15.42-.8-.64-2.35-.17-3.08.25l-.31.17a8.75,8.75,0,0,0-4.24,7.35,3.2,3.2,0,0,0,1.5,2.77,44.12,44.12,0,0,0,.1,5.75q.27,4.43.32,8.85c.05,5,.51,10.92-.58,15.87a3,3,0,0,0-.11,1,1.35,1.35,0,0,0-.42.2c-1,.63-3.06.48-4.22.58-2.56.21-5.13.35-7.69.46-5.49.21-11,.19-16.46,0-21.17-.86-42.21-.91-63.4-.76-4.67,0-9.24,11-4.12,11,13.65-.1,27.31-.41,41-.23,14,.18,27.8,1.64,41.77.88,5-.28,10.88,0,15.24-2.83,4.93-3.15,6.56-8.74,7-14.24A170.06,170.06,0,0,0,401.6,520.14Z"/><path class="cls-6" d="M287,505.64c.43-2,1.33-4.74,6.1-5.75,1.18-.25,90-2.66,99.58,2.16,2.93,1.48,2.86,5.56,2.72,7.89-.09,1.51.18,33-.17,36-.15,1.37-.6,4.81-2.67,5.92-2.76,1.49-91.54,1.56-99.36.81-2.85-.27-5.64-5.68-5.86-8.16S286.6,507.62,287,505.64Z"/><path class="cls-7" d="M392.27,502.8c-21.24-4.61-43.42-3.77-65-2l-4.89.38a1.87,1.87,0,0,0-1.45-.85c-5.64-.76-13.25-1.48-19.52.2-4.92-.23-9.33.62-11.74,5.48-1,2-1.3,4.63-.36,6.44a67.27,67.27,0,0,0-2.22,17C287,535.76,286.54,544,291,549c2.36,2.67,5.56-2.16,5.94-4.2,1.65-8.68-2.27-17.89-1.83-26.75,0-.79.09-2.25.24-3.74,1.56-.35,3.12-1,4.57-1.38,3.2-.88,6.45-1.58,9.72-2.15,13-2.28,26.33-2.76,39.48-3,13.43-.27,26.84.41,40,3.27C392.52,511.76,396.29,503.67,392.27,502.8Z"/><path class="cls-4" d="M395.84,505c-1.82-5.19-6.5-5.1-11.27-5.65-12.05-1.41-24.46-.9-36.59-.9-13.85,0-27.73-.34-41.58.14-5,.18-11.36-.4-16.25,1-5.37,1.53-3.53,7.36-3.91,11.52v.14c-1.19,8-.16,16.87,0,25,.09,4.72-1,12.21,3.2,15.76,3.28,2.78,9.82,1.63,13.87,1.86,19.1,1.09,38.41.11,57.54-.13,9.45-.11,19.56.83,28.93-.38,5.61-.72,6.59-2.76,6.6-7.93,0-9.88.1-19.77.07-29.65C396.44,512.39,397,508.29,395.84,505Zm-4.75,45.79c-3.19,1.25-7.9.4-11.25.41-4.74,0-9.49.1-14.23.15-17.82.21-35.63.59-53.45.46-3.71,0-7.41-.15-11.12-.32-4.54-.2-9.52,1-11.88-3.77-1.62-3.29-1-7.68-1.13-11.26-.3-8-1.61-17.07-.39-25a.39.39,0,0,0,.05-.14c.23-1.62,0-3.25.13-4.88.28-3.82,2.21-5,5.51-5.21,4.68-.3,9.37-.53,14.06-.65,11.5-.3,23-.06,34.52,0,9.22,0,18.42.06,27.64.26,6.51.14,13,.13,19.42,1.33,5.43,1,5.32,6,5.31,10.49,0,9.15.05,18.31,0,27.46C394.2,543.74,395.07,549.29,391.09,550.83Z"/><path class="cls-3" d="M460.75,416.27c-28.64-2.58-57.6-4.26-86.69-5-24.36-.6-48.87.47-73.23,1l-86.71,2c-27.47.63-55.71,2.13-83.11.58-25.58-1.54-49-5.42-75-3-9.72.9-21.41,2.22-29.38,5.25-9.11,3.46-10.3,8.64-11.1,13.8-2,14-3.25,27.95-3.9,42a445.55,445.55,0,0,0,5.68,94c1.05,6.27,16.58-.16,15.89-4.24a448.66,448.66,0,0,1-6-78q.24-20,2.25-40c.61-6,1.8-12,2.1-18a17.86,17.86,0,0,1,.29-2l-.44-.11c.86-.8,8.75-1.63,10.49-1.89,5.75-.83,11.64-1.43,17.61-1.78,25-1.39,48.91,3.27,73.65,4,25.79.75,51.94-.48,77.64-1.07L291.22,422c23.08-.52,46.52-1.56,69.73-1.19,31,.66,61.86,2.4,92.33,5.22C461.48,426.7,470.59,417.13,460.75,416.27Z"/><path class="cls-4" d="M474.6,430.38c-.23-5.65,2-11.94-9.36-15.59-4.45-1.42-9-1.43-14.29-1.58-21.7-.66-43.52-.65-65.26-.76-68.52-.34-137-.2-205.54,0-43.1.11-86.24,0-129.3.4-14.42.09-35-1.46-38.26,7.12a.74.74,0,0,0,0,.21c-1.4,7.13-.4,14.5-.52,21.68q-.37,22.83-.63,45.67c-.25,21.9-1.91,43.91-.71,65.8.21,3.51.56,7.92,4.42,11,2.94,2.39,6.91,2.63,12.38,2.9q18.57.94,37.27.83H117l203.25.14h87.4c15.44,0,31.62.53,47-.36,7.43-.43,15.89-1.15,17.84-4.92,2.1-4.2,1.49-9.38,1.78-13.66.15-2.19,0-4.39,0-6.57V504.39C474.45,479.79,475.58,455.05,474.6,430.38Zm-5,119c-.23,3.21-1.09,6.41-1.32,9.67-.19,2.78,1,4.54-6.3,6.06-6.08,1.27-14.1,1-20.71,1.06H354L155.62,566c-41.34,0-83.94,1.17-125.15-.7-4.78-.21-8.39,0-11.35-1.93s-3.13-5.34-3.51-7.66a25,25,0,0,1-.29-3V505.87c0-26.64-.21-53.28,0-79.92a30.94,30.94,0,0,1,.13-5.44h0c2.72-6.46,15.63-5.51,26.63-5.66,9.77-.13,19.53-.06,29.37-.06h11l62.95-.16q98.78-.24,197.57-.12c26.94.06,53.88.14,80.8.45,12.47.13,36.75-1.58,44.07,4.1,3.46,2.66,2.1,8.12,2.2,11.14v13.5q0,20.7-.21,41.36c0,21.27,1.33,42.86-.29,64.32Z"/><path class="cls-8" d="M19.07,404.47a7.61,7.61,0,0,1-1.08.19c-.37,0-.76,0-1.15,0a10.31,10.31,0,0,1-3-.43,12.62,12.62,0,0,1-2.68-1.13,1.44,1.44,0,0,1-.46-.46,1,1,0,0,1-.19-.61.82.82,0,0,1,.19-.53,1.3,1.3,0,0,1,.44-.4,1.11,1.11,0,0,1,.56-.17.84.84,0,0,1,.56.17,7.62,7.62,0,0,0,2.11,1,7.94,7.94,0,0,0,2.41.35,4.31,4.31,0,0,0,2.83-.91,5.19,5.19,0,0,0,1.64-2.34c0-.29.11-.59.17-.91s.13-.77.2-1.37a5.67,5.67,0,0,1-1,1,8,8,0,0,1-1.27.84,7.38,7.38,0,0,1-1.46.57,5.85,5.85,0,0,1-1.55.21,6.57,6.57,0,0,1-2.38-.45,6.16,6.16,0,0,1-2-1.28,6.5,6.5,0,0,1-1.44-2,6.37,6.37,0,0,1-.55-2.71,6.3,6.3,0,0,1,.55-2.68,6.21,6.21,0,0,1,1.45-2A6.51,6.51,0,0,1,14,387.12a6.4,6.4,0,0,1,2.36-.46,5.85,5.85,0,0,1,2.95.67A7.55,7.55,0,0,1,21.39,389c0-.27-.07-.47-.1-.58a.51.51,0,0,0-.06-.2,1.12,1.12,0,0,1,.17-1,1.26,1.26,0,0,1,1.86-.13,2.44,2.44,0,0,1,.41.91q.16,1.31.3,2.85t.15,3.21a27.47,27.47,0,0,1-.21,3.4,12.32,12.32,0,0,1-.78,3.11A7.86,7.86,0,0,1,21.58,403,5.2,5.2,0,0,1,19.07,404.47Zm-2.26-7.12a5.14,5.14,0,0,0,2-.36,4.47,4.47,0,0,0,1.43-.95,3.89,3.89,0,0,0,.86-1.34,4.33,4.33,0,0,0,.29-1.54,4.44,4.44,0,0,0-.29-1.56,3.91,3.91,0,0,0-.87-1.35,4.51,4.51,0,0,0-1.44-1,5.19,5.19,0,0,0-3.66-.09,3.88,3.88,0,0,0-1.38.84,4.1,4.1,0,0,0-.92,1.34,4.43,4.43,0,0,0-.34,1.74,4.2,4.2,0,0,0,.35,1.72,4.43,4.43,0,0,0,.94,1.34,4.33,4.33,0,0,0,1.37.87A4.38,4.38,0,0,0,16.81,397.35Z"/><path class="cls-8" d="M38,392.85c0,.33,0,.63,0,.91v.83c0,.65,0,1.31,0,2s-.08,1.54-.18,2.54a2.72,2.72,0,0,1-.29,1.1,1.12,1.12,0,0,1-1,.44,1,1,0,0,1-1-.52,1.81,1.81,0,0,1-.24-1v0a6.54,6.54,0,0,1-1.8,1.21,6.11,6.11,0,0,1-2.57.48,6.75,6.75,0,0,1-1.89-.27,5.13,5.13,0,0,1-1.65-.83,4.35,4.35,0,0,1-1.17-1.38,4,4,0,0,1-.44-1.91,4.19,4.19,0,0,1,.43-2,3.89,3.89,0,0,1,1.19-1.42,5.45,5.45,0,0,1,1.85-.86,9.31,9.31,0,0,1,2.38-.28,11.83,11.83,0,0,1,2.16.17,16.39,16.39,0,0,1,1.79.4,5.07,5.07,0,0,0-.14-1.45,2.25,2.25,0,0,0-.61-1.06,2.83,2.83,0,0,0-1.19-.65,7.13,7.13,0,0,0-1.85-.25,6.38,6.38,0,0,0-1.76.2,11.76,11.76,0,0,0-1.55.5,1.09,1.09,0,0,1-.56.07,1.43,1.43,0,0,1-.5-.18,1.22,1.22,0,0,1-.38-.37.84.84,0,0,1-.14-.5,1.12,1.12,0,0,1,.23-.71,1,1,0,0,1,.5-.36l0,0a11.18,11.18,0,0,1,2.07-.69,9.82,9.82,0,0,1,2.32-.25,7.24,7.24,0,0,1,2.54.4,5.82,5.82,0,0,1,1.88,1.13,4.25,4.25,0,0,1,1.25,2.07A9,9,0,0,1,38,392.85Zm-6.68,5.93a5,5,0,0,0,1.61-.25,4.36,4.36,0,0,0,1.34-.69,3.18,3.18,0,0,0,.92-1,2.61,2.61,0,0,0,.34-1.31l0-1.07a12.6,12.6,0,0,0-1.71-.36,12.29,12.29,0,0,0-2-.16,4.58,4.58,0,0,0-2.67.66,2.14,2.14,0,0,0-.92,1.81,2.07,2.07,0,0,0,.9,1.8A3.73,3.73,0,0,0,31.32,398.78Z"/><path class="cls-8" d="M47.83,400.78a6.12,6.12,0,0,1-1.85-.26,5.64,5.64,0,0,1-1.42-.66,6.52,6.52,0,0,1-1-.86,10.05,10.05,0,0,1-.69-.82c0,.78,0,1.44.07,2s.05,1,.08,1.33a9.17,9.17,0,0,0,.09.93c0,.25.06.49.08.74a.77.77,0,0,1,0,.15v.11a1.49,1.49,0,0,1-.23,1,1,1,0,0,1-.81.46,1.46,1.46,0,0,1-.65-.07.94.94,0,0,1-.41-.32,1.46,1.46,0,0,1-.25-.48,3.28,3.28,0,0,1-.14-.58l-.18-1.59c-.06-.45-.1-.88-.12-1.3s-.05-.84-.05-1.29,0-1,0-1.57c0-1.3.06-2.7.17-4.21s.3-3.27.56-5.28a2.26,2.26,0,0,1,.39-1,1.14,1.14,0,0,1,1-.41.92.92,0,0,1,.83.44,1.55,1.55,0,0,1,.26,1,.9.9,0,0,1,0,.18,6.76,6.76,0,0,1,1.82-1.25,5.67,5.67,0,0,1,2.47-.49,6.26,6.26,0,0,1,2.39.48,6.35,6.35,0,0,1,2.09,1.4,7,7,0,0,1,1.48,2.24,7.44,7.44,0,0,1,.56,3,7.55,7.55,0,0,1-.56,3,6.61,6.61,0,0,1-6,4.11Zm4-7.15a5.54,5.54,0,0,0-.35-2,4.57,4.57,0,0,0-.95-1.52,3.87,3.87,0,0,0-1.41-1,4.45,4.45,0,0,0-1.71-.33,4.24,4.24,0,0,0-1.67.35,4.82,4.82,0,0,0-2.83,4.49,4.81,4.81,0,0,0,.38,2,4.75,4.75,0,0,0,1,1.52,4.52,4.52,0,0,0,1.44,1,4.36,4.36,0,0,0,3.08.13,3.94,3.94,0,0,0,1.08-.56,3.63,3.63,0,0,0,.8-.76,5.17,5.17,0,0,0,.53-.9A6.78,6.78,0,0,0,51.86,393.63Z"/><path class="cls-8" d="M57.29,388.28a1.45,1.45,0,0,1,.4-1,1.56,1.56,0,0,1,2.11,0,1.41,1.41,0,0,1,.4,1v.54a1.39,1.39,0,0,1-.4,1,1.46,1.46,0,0,1-2.51-1Zm0,10.42a1.44,1.44,0,0,1,.4-1,1.59,1.59,0,0,1,2.11,0,1.4,1.4,0,0,1,.4,1v.5a1.46,1.46,0,0,1-.4,1.06,1.54,1.54,0,0,1-2.11,0,1.5,1.5,0,0,1-.4-1.06Z"/><path class="cls-8" d="M74.53,384.82l-1.07.36-1.06.34a1.43,1.43,0,0,1-1.11-.08.94.94,0,0,1-.53-.93,1,1,0,0,1,.25-.71,1.54,1.54,0,0,1,.63-.39l2.92-1a5.11,5.11,0,0,1,.58-.16,2.41,2.41,0,0,1,.64-.07,1.16,1.16,0,0,1,.89.38,1.21,1.21,0,0,1,.35.87v16a1.25,1.25,0,0,1-.36.9,1.26,1.26,0,0,1-2.13-.9Z"/><path class="cls-8" d="M88.59,400.86a6.76,6.76,0,0,1-3.19-.75,7.49,7.49,0,0,1-2.43-2,9.46,9.46,0,0,1-1.54-3,12.19,12.19,0,0,1-.53-3.62,12,12,0,0,1,.54-3.62,9.71,9.71,0,0,1,1.56-3,7.62,7.62,0,0,1,2.45-2,6.77,6.77,0,0,1,3.2-.75,6.67,6.67,0,0,1,3.18.75,7.41,7.41,0,0,1,2.42,2,9.75,9.75,0,0,1,1.55,3,12.4,12.4,0,0,1,0,7.24,9.65,9.65,0,0,1-1.56,3,7.77,7.77,0,0,1-2.45,2A6.77,6.77,0,0,1,88.59,400.86Zm.06-2.34a4,4,0,0,0,2.13-.57,5.24,5.24,0,0,0,1.6-1.55,7.46,7.46,0,0,0,1-2.25,10.37,10.37,0,0,0,0-5.38,7.74,7.74,0,0,0-1-2.25A5.23,5.23,0,0,0,90.73,385a4,4,0,0,0-2.14-.58,4,4,0,0,0-2.11.57,5.24,5.24,0,0,0-1.62,1.53,7.49,7.49,0,0,0-1,2.25,10.07,10.07,0,0,0,0,5.41,7.45,7.45,0,0,0,1,2.26A5.22,5.22,0,0,0,86.51,398,4.16,4.16,0,0,0,88.65,398.52Z"/><path class="cls-8" d="M106.43,400.78a6.17,6.17,0,0,1-1.85-.26,5.57,5.57,0,0,1-1.41-.66,5.74,5.74,0,0,1-1-.86,7.15,7.15,0,0,1-.69-.82c0,.78,0,1.44.06,2s.06,1,.08,1.33.06.68.09.93.06.49.08.74a.4.4,0,0,1,0,.15v.11a1.56,1.56,0,0,1-.24,1,1,1,0,0,1-.8.46,1.44,1.44,0,0,1-.65-.07.91.91,0,0,1-.42-.32,1.68,1.68,0,0,1-.25-.48,3.28,3.28,0,0,1-.14-.58l-.18-1.59c0-.45-.09-.88-.12-1.3s0-.84,0-1.29,0-1,0-1.57c0-1.3,0-2.7.17-4.21s.29-3.27.55-5.28a2.5,2.5,0,0,1,.39-1,1.14,1.14,0,0,1,1-.41.92.92,0,0,1,.84.44,1.62,1.62,0,0,1,.26,1,.48.48,0,0,1,0,.18,6.92,6.92,0,0,1,1.82-1.25,5.7,5.7,0,0,1,2.47-.49,6.22,6.22,0,0,1,2.39.48,6.49,6.49,0,0,1,2.1,1.4,7.35,7.35,0,0,1,1.48,2.24,7.61,7.61,0,0,1,.56,3,7.73,7.73,0,0,1-.56,3,6.84,6.84,0,0,1-1.48,2.23,6.74,6.74,0,0,1-2.1,1.37A6.45,6.45,0,0,1,106.43,400.78Zm4-7.15a5.54,5.54,0,0,0-.35-2,4.42,4.42,0,0,0-1-1.52,3.91,3.91,0,0,0-1.4-1,4.5,4.5,0,0,0-1.72-.33,4.16,4.16,0,0,0-1.66.35,4.92,4.92,0,0,0-1.45,1,4.87,4.87,0,0,0-1,1.52,5.32,5.32,0,0,0,0,3.95,4.75,4.75,0,0,0,1,1.52,4.56,4.56,0,0,0,1.45,1,4,4,0,0,0,1.66.35,4.11,4.11,0,0,0,1.42-.22,4.25,4.25,0,0,0,1.08-.56,3.81,3.81,0,0,0,.79-.76,4.61,4.61,0,0,0,.53-.9A6.78,6.78,0,0,0,110.46,393.63Z"/><path class="cls-8" d="M126.53,398.73a2.69,2.69,0,0,1,.23,1,1,1,0,0,1-.54.85l0,0a.8.8,0,0,1-.83.11,1.4,1.4,0,0,1-.7-.58c-.59-1-1.22-2-1.9-3a28.82,28.82,0,0,0-2.11-2.8c-.72.86-1.44,1.8-2.14,2.8s-1.34,2-1.91,3a1.54,1.54,0,0,1-.72.58.82.82,0,0,1-.84-.11l0,0a1.13,1.13,0,0,1-.54-.86,1.75,1.75,0,0,1,.26-1c.76-1.18,1.51-2.29,2.25-3.34s1.45-2,2.14-2.79c-.57-.61-1.18-1.23-1.84-1.85s-1.4-1.3-2.21-2a1.1,1.1,0,0,1-.34-.83.86.86,0,0,1,.36-.75,1.18,1.18,0,0,1,.51-.26,1,1,0,0,1,.48,0,1.11,1.11,0,0,1,.43.19,2.9,2.9,0,0,1,.38.33v0c.69.61,1.33,1.19,1.92,1.75s1.19,1.18,1.79,1.84c.58-.61,1.18-1.22,1.81-1.82s1.27-1.2,1.91-1.77v0a2.9,2.9,0,0,1,.38-.33,1.11,1.11,0,0,1,.43-.19,1,1,0,0,1,.48,0,1.24,1.24,0,0,1,.51.26.86.86,0,0,1,.36.75,1.1,1.1,0,0,1-.34.83c-.83.75-1.57,1.42-2.21,2s-1.25,1.22-1.84,1.85c.67.81,1.37,1.74,2.09,2.78s1.46,2.16,2.22,3.35Z"/><path class="cls-8" d="M144.26,400.86a8.24,8.24,0,0,1-3.65-.77,8.69,8.69,0,0,1-2.69-2,3.79,3.79,0,0,1-.25-.45,1.09,1.09,0,0,1-.12-.46,1.29,1.29,0,0,1,.31-.85,1.1,1.1,0,0,1,.89-.37,1.26,1.26,0,0,1,.57.12,1.06,1.06,0,0,1,.36.27,7,7,0,0,0,2.07,1.61,5.58,5.58,0,0,0,2.54.55,4.34,4.34,0,0,0,1.41-.22,3.16,3.16,0,0,0,1.15-.65,3.32,3.32,0,0,0,.76-1,2.86,2.86,0,0,0,.29-1.33,2.65,2.65,0,0,0-.34-1.37,2.83,2.83,0,0,0-1-1,4.84,4.84,0,0,0-1.48-.61,8,8,0,0,0-1.9-.21h-.65a1,1,0,0,1-.83-.35,1.14,1.14,0,0,1-.31-.79,1,1,0,0,1,.13-.49A1.11,1.11,0,0,1,142,390l1.21-1.39,1.17-1.31L145.5,386c.39-.44.79-.91,1.2-1.39h-7.28a1.22,1.22,0,0,1-.84-.32,1,1,0,0,1-.35-.8,1.12,1.12,0,0,1,.35-.85,1.22,1.22,0,0,1,.84-.32h9.65a1.2,1.2,0,0,1,.92.3,1,1,0,0,1,.28.74,1.63,1.63,0,0,1-.16.63,1.79,1.79,0,0,1-.39.59l-2.43,2.72L144.86,390a10.38,10.38,0,0,1,2.18.48,5.64,5.64,0,0,1,1.77,1,4.86,4.86,0,0,1,1.2,1.56,5.14,5.14,0,0,1,.44,2.2,5.28,5.28,0,0,1-1.8,4,5.7,5.7,0,0,1-2,1.15A7.12,7.12,0,0,1,144.26,400.86Z"/><path class="cls-8" d="M161.37,400.86a6.77,6.77,0,0,1-3.2-.75,7.7,7.7,0,0,1-2.43-2,9.24,9.24,0,0,1-1.53-3,11.87,11.87,0,0,1-.54-3.62,11.71,11.71,0,0,1,.55-3.62,9.3,9.3,0,0,1,1.56-3,7.48,7.48,0,0,1,2.44-2,6.8,6.8,0,0,1,3.2-.75,6.73,6.73,0,0,1,3.19.75,7.38,7.38,0,0,1,2.41,2,9.54,9.54,0,0,1,1.55,3,12.19,12.19,0,0,1,0,7.24,9.25,9.25,0,0,1-1.56,3,7.85,7.85,0,0,1-2.44,2A6.8,6.8,0,0,1,161.37,400.86Zm0-2.34a4,4,0,0,0,2.13-.57,5.13,5.13,0,0,0,1.6-1.55,7.73,7.73,0,0,0,1-2.25,10.3,10.3,0,0,0,.35-2.7,9.43,9.43,0,0,0-.37-2.68,7.73,7.73,0,0,0-1-2.25A5.37,5.37,0,0,0,163.5,385a4.21,4.21,0,0,0-4.25,0,5.21,5.21,0,0,0-1.61,1.53,7.51,7.51,0,0,0-1,2.25,10.34,10.34,0,0,0,0,5.41,7.45,7.45,0,0,0,1,2.26,5.25,5.25,0,0,0,1.64,1.55A4.09,4.09,0,0,0,161.42,398.52Z"/><path class="cls-8" d="M179.2,400.78a6.1,6.1,0,0,1-1.84-.26,5.64,5.64,0,0,1-1.42-.66,6.1,6.1,0,0,1-1-.86,10.05,10.05,0,0,1-.69-.82c0,.78,0,1.44.07,2s.05,1,.08,1.33a9.17,9.17,0,0,0,.09.93c0,.25.06.49.07.74a.4.4,0,0,1,0,.15v.11a1.55,1.55,0,0,1-.23,1,1,1,0,0,1-.81.46,1.44,1.44,0,0,1-.65-.07,1,1,0,0,1-.42-.32,1.66,1.66,0,0,1-.24-.48,4.45,4.45,0,0,1-.15-.58l-.18-1.59c-.05-.45-.09-.88-.11-1.3s0-.84-.06-1.29,0-1,0-1.57c0-1.3.06-2.7.17-4.21s.3-3.27.56-5.28a2.26,2.26,0,0,1,.39-1,1.13,1.13,0,0,1,1-.41.92.92,0,0,1,.83.44,1.55,1.55,0,0,1,.26,1,.48.48,0,0,1,0,.18,6.92,6.92,0,0,1,1.82-1.25,5.73,5.73,0,0,1,2.47-.49,6.27,6.27,0,0,1,2.4.48,6.45,6.45,0,0,1,2.09,1.4,7.17,7.17,0,0,1,1.48,2.24,7.61,7.61,0,0,1,.56,3,7.73,7.73,0,0,1-.56,3,6.44,6.44,0,0,1-3.57,3.6A6.5,6.5,0,0,1,179.2,400.78Zm4-7.15a5.33,5.33,0,0,0-.35-2,4.42,4.42,0,0,0-.95-1.52,3.75,3.75,0,0,0-1.4-1,4.5,4.5,0,0,0-1.72-.33,4.19,4.19,0,0,0-1.66.35,4.77,4.77,0,0,0-2.46,2.51,5.46,5.46,0,0,0,0,3.95,4.62,4.62,0,0,0,1,1.52,4.42,4.42,0,0,0,1.44,1,4,4,0,0,0,1.66.35,4.11,4.11,0,0,0,1.42-.22,3.94,3.94,0,0,0,1.08-.56,3.58,3.58,0,0,0,.79-.76,4.67,4.67,0,0,0,.54-.9A6.57,6.57,0,0,0,183.23,393.63Z"/><path class="cls-8" d="M199.3,398.73a2.94,2.94,0,0,1,.24,1,1,1,0,0,1-.55.85l0,0a.81.81,0,0,1-.84.11,1.44,1.44,0,0,1-.7-.58c-.59-1-1.22-2-1.9-3a27.24,27.24,0,0,0-2.1-2.8c-.73.86-1.44,1.8-2.15,2.8s-1.34,2-1.91,3a1.57,1.57,0,0,1-.71.58.84.84,0,0,1-.85-.11l0,0a1.12,1.12,0,0,1-.55-.86,1.84,1.84,0,0,1,.26-1c.77-1.18,1.51-2.29,2.25-3.34s1.45-2,2.15-2.79c-.58-.61-1.19-1.23-1.85-1.85s-1.39-1.3-2.21-2a1.14,1.14,0,0,1-.34-.83.85.85,0,0,1,.37-.75,1.15,1.15,0,0,1,.5-.26,1,1,0,0,1,.48,0,1.11,1.11,0,0,1,.43.19,2.9,2.9,0,0,1,.38.33v0c.69.61,1.34,1.19,1.92,1.75s1.19,1.18,1.8,1.84c.57-.61,1.17-1.22,1.81-1.82s1.27-1.2,1.91-1.77v0a2.83,2.83,0,0,1,.37-.33,1.18,1.18,0,0,1,.43-.19,1,1,0,0,1,.48,0,1.13,1.13,0,0,1,.51.26.86.86,0,0,1,.36.75,1.13,1.13,0,0,1-.33.83c-.84.75-1.57,1.42-2.21,2s-1.26,1.22-1.85,1.85c.68.81,1.37,1.74,2.09,2.78s1.46,2.16,2.23,3.35Z"/></g></g></svg>