<svg xmlns="http://www.w3.org/2000/svg" viewBox="0 0 490 820"><title>justify-content</title><g id="ffb4ddac-0772-419b-9e63-175d7a52bf5a" data-name="Layer 10"><path d="M479.32,773.07c4.51-7.56,5.64-17.81-2-18.89a27,27,0,0,0,2.43-7.23c.7-3.77.26-9-3.82-10.55.22-.61.42-1.21.57-1.8,1-3.66,1.57-13.28-4.85-12.83-30.1,2.09-60.21,4.18-90.38,5q-8,.21-16,.26c-21-1.27-42-2.72-62.79-2.2-2.59.06-5.18.16-7.76.25l-1.82-.1c-29.39-1.73-58.77-3.9-88.22-4a669.59,669.59,0,0,0-71.08,3.73l-2.79-.19c-31.71-2.22-63.38-3.65-95.1-1h-.12l-2.61.22a7.21,7.21,0,0,0-1.58.35q-5.82-.76-11.61-1.74c-10.36-1.76-21.51,20.56-13.3,26.27-5.63,7.21-8.23,18.56.66,21.23.84.25,1.69.48,2.54.7l-.09.1c-5.59,6.75-9.56,20.24.57,24.91,6.62,3.05,15.52,3.2,22.66,4.15a438.43,438.43,0,0,0,44.19,3.48c41.84,1.28,83.5-2.41,125.17-5.83a5.86,5.86,0,0,0,1.81.4c70,3.91,140.44,7.51,210.17-2,17.4,1.11,34.8,2.42,52.18,3.81,6.28.5,11.45-6.07,13.81-11C482.2,784.34,484.3,776.23,479.32,773.07Zm-13.21-33.72H466a4.61,4.61,0,0,1,1.7-1.21A18.64,18.64,0,0,0,466.11,739.35Z" fill="#995db5"/><path d="M471.19,725.17c-35.59-3.15-71.32-3.17-107-3.5s-71.11-.91-106.68-.64c-35.73.27-71.44,1.17-107.18,1.14-35.27,0-70.5.52-105.76,1.32l-15.83.36c-4.25.1-9.19-.49-13.34.41-8.06,1.72-6.68,11.93-6.74,18-.1,9.7-.23,19.4-.3,29.1-.07,8.64.2,17.37,3.89,25.34,2.3,4.95,9-2.69,7.29-6.26-4.38-9.44-3.65-19.84-3.54-30q.07-7.79.16-15.58l.09-8.77c0-.88,0-1.77,0-2.65,1.12,0,2.22.13,2.92.11l5.94-.13,9.89-.23,23.74-.54c14.5-.32,29-.69,43.5-.82,29.31-.27,58.62.1,87.93-.25,29.56-.35,59.1-1.08,88.66-1.08,29.89,0,59.78.56,89.67.81,33.05.27,66.12.51,99.06,3.43C471.63,735.14,475.81,725.58,471.19,725.17ZM16.29,729.9c0-.78,0-.8.05-.06Z" opacity="0.2"/><path d="M477.77,636.83a7,7,0,0,1-1.28-1.54c2.34-3.88,4.48-9.47,2.85-13.69-.94-2.44-.73-4.43-.59-7a42.4,42.4,0,0,0-.16-6.29c0-.21,0-.42,0-.63l0,0c-.1-1-.22-2-.37-3a5.73,5.73,0,0,0-.81-2.3,18.55,18.55,0,0,0,1.39-7.32c-.09-3.21-1.67-7.69-5.65-7.71-117.57-.6-235.11-4.82-352.68-4q-50.49.36-100.94,2.15c-7,.27-12.34,6.6-14.67,12.84-1.19,3.21-2.32,11.46,1.52,13.91a21.33,21.33,0,0,0-1.43,7q0,6.92-.1,13.82l-.06,6.91c0,1,0,2,0,3,0-1.15-.08-1-.26.58-.94,4.24-.7,9.58,2.23,13,2.61,3.06,6.71,3.75,10.51,4.11a261.54,261.54,0,0,0,38.68.59A5.18,5.18,0,0,0,60.8,665c54.74,2.74,109.41-2,164.11-3.62,26.62-.77,53.3-.78,79.87,1.26,13.7,1.05,27.24,3,41,2.93s27.54-1.24,41.33-1.37c13.46-.13,26.78-.52,40.22-1.42,12.65-.85,25.19-1.1,37.78.73,6.14.89,11.6-6.38,13.81-11C481.35,647.39,482.53,640.92,477.77,636.83Z" fill="#995db5"/><path d="M481.51,497.41c.26.36-1.24-1.94-1.56-2.56a.69.69,0,0,1,.05-.13c1.38-3.22,2-8.68-.05-12a19.46,19.46,0,0,0,1.71-8.06c-.09-3-1.41-5.77-3.7-7,2.3-4.71,3.32-10,1.89-14.78-1.86-6.22-7.92-8.71-13.91-9-15.38-.87-31.16.33-46.58.46q-94.08.76-188.15.14c-69.92-.37-139.84-1.1-209.76-1.83-7-.07-12.43,6.82-14.67,12.84-1.33,3.55-2.41,11.87,2,14.07a29,29,0,0,0-2.34,5.09c-2.39,7-1.24,13.6,3.57,18.6-5.3,4.7-8.85,12.49-6.63,18.53,4.59,12.49,20.78,14.41,32.51,14.38,15.66,0,31.33-.64,47-1,30.87-.64,61.75-1.39,92.63-1.79s61.8-.27,92.69.81c31.5,1.1,62.89,2.24,94.4.54,34.8-1.88,69.65-5.38,104.49-2.26C476.93,523.35,487.51,505.55,481.51,497.41Zm-1.58-2.59c-.06-.14-.06-.17.05-.06Z" fill="#995db5"/><path d="M481.07,364c-4.31-11.1-5.37-22.25-2.55-33.84.68-2.83.47-6.75-1.57-9.11.56-4.35,0-10.26-5.32-10.36-39.5-.74-79,.38-118.49,2-19.55-2-39.07-4.27-58.73-4.88-29.18-.91-58.33.94-87.46,2.41-29.51,1.48-58.91,1.71-88.45,1L20.44,309c-7-.16-12.45,6.88-14.67,12.84-1.16,3.1-2.11,9.6.41,12.78-.21.73-.41,1.46-.55,2.18-.94,4.62.13,9.37.69,14s1.12,9.31,1.69,14c0,.11-.07.23-.1.34a46.4,46.4,0,0,0,0,23.72c1,3.83,4.24,5.21,7.87,4.54,28.69-5.25,58-4.61,87-4.59l90.9.05,89.91.06c14.5,0,29-.08,43.5.18,15.06.27,30,1.79,45,2.32,16,.56,32.06.06,48.06.26s32.43-.42,47.92-5.22C475.8,384,484.31,372.29,481.07,364ZM14.72,346.18l-.26.15-.57-.21Z" fill="#995db5"/><path d="M478.14,446.83a41,41,0,0,0-26.43-2c-1.58.4-3,2.32-3.84,4.34-7.39-.51-14.79-1.45-22-1.78-17.43-.79-34.9-.66-52.35-.73l-107.2-.49L51,445.22c-9.94,0-20-.45-29.9-.13-8.19.26-10,7.37-10.6,14.27a282,282,0,0,0,.9,60.08c.75,6.2,8.06-.16,7.57-4.2a279.4,279.4,0,0,1-1.61-51.07c.07-1,.89-6.35,1.12-9.47h0c.92.49,2.91,0,4,0l7,0,25.92.12,102.68.46,206.94.93c18.76.08,37.56-.1,56.32.72,17.5.75,36.28,5,53.29-.89C476.89,455.31,482.16,448.51,478.14,446.83Z" opacity="0.2"/><g opacity="0.2"><path d="M17,378.06a407.86,407.86,0,0,1-2-48.93c.05-2.28-.63-6.87,1.14-8.05,2.43-1.62,9.11-.3,11.91-.27q12.44.13,24.86.31c33.81.49,67.61,1.16,101.42,1.69Q255,324.4,355.65,324.1q57.3-.17,114.6-.94c4.08-.05,8.07-9.66,3.61-9.6q-106.62,1.43-213.25.77c-71.34-.44-142.66-2-214-2.95-8.82-.11-18.46-1.3-27.2,0-7,1-10.77,7.27-11.58,13.84-1.1,8.93-.55,18.38-.31,27.35.27,9.93.93,19.84,1.92,29.72.62,6.2,8-.16,7.57-4.2Z"/></g><path d="M476.07,180.17c-24.48-3.39-49.85-1.56-74.5-1.42l-61.82.34q-7.39-.08-14.8.08a12.77,12.77,0,0,0-7.45,2.75q-4.12-.27-8.23-.57c-23.1-1.62-46.19-2.89-69.34-3.45-46.75-1.14-93.51-.18-140.27.43-26.53.35-53.07.58-79.6.28-7-.07-12.43,6.83-14.67,12.84-1,2.56-1.79,7.6-.54,11-2.23,3.38-4,7.68-3.63,11.54a206.35,206.35,0,0,0,3.35,22.18,25.89,25.89,0,0,0-1.12,4.06c-1.1,6.08,0,13.21,6.15,15.93,2.69,3.71,8.63,2,12-.78A14.86,14.86,0,0,0,24.37,257c5.5,2.41,11.16,1.86,17,1.15,4.05-.5,8.1-1.05,12.15-1.54a5,5,0,0,0,4.41,2.7,371.07,371.07,0,0,0,47-.86c3.36.94,7.93-.52,11-1.08,3.76-.67,7.51-1.37,11.27-2l10.9-.14c26.39-.26,52.78.05,79.16.6,52.71,1.09,105.4,3.14,158.12,3.48,29.76.2,59.52-.17,89.26-1.49,7.06-.31,12.33-6.56,14.67-12.84,1.68-4.52,2.31-11.45-2.33-13.89,0-.95,0-1.9,0-2.83,0-.61-.06-1.21-.11-1.8a25.22,25.22,0,0,0,3.57-15.61c-.45-3.44-1.76-5.84-3.83-6.89a36.21,36.21,0,0,0,5.06-16C482,184.29,479.74,180.68,476.07,180.17Z" fill="#995db5"/><g opacity="0.2"><path d="M14.64,244.25c-2-14.49-1.59-29.15-1.29-43.73.05-2.56-.95-8,1.8-9.39,2.17-1.08,7.31-.28,9.65-.29l21.82-.08,85.31-.33q43.89-.17,87.77-.33,88.14-.28,176.27-.18c24.17.06,48.39-.1,72.56.67,4.09.13,8.16-9.46,3.62-9.6-54.95-1.76-110.06-.78-165-.7q-89.76.14-179.52.56l-99.2.39c-5.85,0-12.67-.84-17.36,3.45C5.9,189.42,6,196.31,5.82,202.77c-.32,16-.7,31.87,1.53,47.74.35,2.53,3.41,1.55,4.67.53a7.5,7.5,0,0,0,2.62-6.79Z"/></g><path d="M481.32,108.09a49.18,49.18,0,0,0-5-16.81,97.41,97.41,0,0,0,2.95-35.13c-.52-4.71-2.93-8.71-8.28-7.49-6.2,1.42-12.43,2.56-18.68,3.35a5.49,5.49,0,0,0-2.38-.62q-165.27-6.12-330.7-3.5-46.81.75-93.62,2.21a12,12,0,0,0-4.09.88c-2-1.21-4.61-1.23-7.53.34C8.12,54.48,2.87,62.86,3.38,69.69Q4.61,86.3,5.86,102.88a17,17,0,0,0-.71,5.35q.27,7.13.53,14.25c.11,3.12,1.66,7.81,5.65,7.72,59.6-1.38,119.45-4.38,179.06-2.28,14.46.52,28.87,1.11,43.35,1,15-.1,30.1-.41,45.13.26,28.87,1.28,57.64,2.89,86.55,2.91,33.36,0,66.7-1.35,99.93-4.29C473.85,127.07,482.46,117,481.32,108.09ZM446.76,85.92v0S446.77,85.91,446.76,85.92ZM179.08,99.75q4.28.21,8.56.39c-2.88-.06-5.75-.11-8.63-.14A1.82,1.82,0,0,0,179.08,99.75Z" fill="#995db5"/><path d="M472,52.6c-35.86.39-71.73.71-107.59.15-17.93-.28-35.85-.78-53.76-1.6-17.4-.8-34.79-2.32-52.21-2.68s-35,.92-52.47,1-35,2.36-52.61,2.58-35.4-1.16-53.08-1.41q-26.09-.36-52.17.22c-10.16.22-20.35.44-30.5,1-7.79.42-11,5.21-11.69,12.7a308.7,308.7,0,0,0,.56,59.33c.66,6.2,8-.16,7.57-4.21a306.62,306.62,0,0,1-1.27-49.6c.11-2,.24-3.89.39-5.84a24,24,0,0,1,.1-2.51l.73-.26c1.55-.58,4.23-.18,5.9-.24,2.62-.1,5.25-.2,7.87-.28q12.3-.42,24.6-.62,25.11-.42,50.21,0c16.67.3,33.44,1.7,50.1,1.26s33.07-2.42,49.68-2.52,33-1.24,49.53-1.07c17.08.18,34.12,1.71,51.17,2.54s33.84,1.35,50.76,1.67c38.19.72,76.38.38,114.57,0C472.51,62.16,476.5,52.55,472,52.6Z" opacity="0.2"/><path d="M115.51,90.24c-.36-6.81-2.63-13.55-1.78-20.38,1-7.79-7.76-3-8.41,2.14-.95,7.64,1,14.53,1.49,22.1a93.28,93.28,0,0,1,0,11.34c-.09,1.58-.21,3.15-.34,4.73-.06.75-.13,1.5-.2,2.25-2.74,0-6.1-.85-8.14-1-3.54-.35-7.08-.68-10.63-1q-11.12-.86-22.27-1.14a439.21,439.21,0,0,0-44.58,1.15c-2.83.21-4.91,2.56-5.86,5.13-.54,1.45-1.12,6.06,1.74,5.85a444.46,444.46,0,0,1,77.47.94c4.62.46,11.22,2.09,15.43-.57,4.52-2.86,5-8.1,5.39-12.91A130.27,130.27,0,0,0,115.51,90.24Z" opacity="0.15"/><path d="M197.14,71.39c-.5-7.09-9,.19-8.65,4.81.55,7.8.91,15.61,1,23.43.06,3.67-.11,7.25-.3,10.89l-.55.08c-1.9-.32-4.76.64-6.71.85a189,189,0,0,1-45-.77,2.87,2.87,0,0,0-2.35-.53l-1.7.22c-3.65.48-8.35,10.11-3.08,10.88a195.76,195.76,0,0,0,30.78,2.17c9.12-.1,19.62,0,28.49-2.42,7.88-2.11,8.87-12,9.11-18.78A291.09,291.09,0,0,0,197.14,71.39Z" opacity="0.15"/><path d="M322,82.85c-.16-4.26.89-12.47-2.82-15.42-.8-.64-2.35-.17-3.08.25l-.31.17a8.73,8.73,0,0,0-4.24,7.35,3.18,3.18,0,0,0,1.5,2.77,43.58,43.58,0,0,0,.1,5.75q.27,4.43.32,8.85c.05,5.05.51,10.92-.58,15.87a2.88,2.88,0,0,0-.11,1,1.32,1.32,0,0,0-.42.2c-1,.63-3.06.48-4.22.58-2.56.21-5.13.35-7.69.46-5.49.21-11,.19-16.46,0-21.17-.86-42.21-.91-63.4-.76-4.67,0-9.24,11-4.12,11,13.65-.1,27.31-.41,41-.23,14,.18,27.8,1.64,41.77.88,5-.28,10.88,0,15.24-2.83,4.93-3.15,6.56-8.74,7-14.24A171.56,171.56,0,0,0,322,82.85Z" opacity="0.15"/><path d="M207.38,68.35c.43-2,1.33-4.74,6.1-5.75,1.18-.25,90-2.66,99.58,2.16,2.93,1.48,2.86,5.56,2.72,7.89-.09,1.51.18,33-.17,36-.15,1.37-.6,4.81-2.67,5.92-2.76,1.49-91.54,1.56-99.36.81-2.85-.27-5.64-5.68-5.86-8.16S207,70.33,207.38,68.35Z" fill="#f7941f"/><path d="M124.8,112.67c.2,1,3,2.6,5.29,3.12.55.12,53.73,1.95,57.55-.4s4.05-8,4-8.77l-.57-38.79s.57-4-4.54-4.87c-5.36-.9-51.35-.37-55.08-.65-6.81-.5-6.62,3.91-6.73,5.19S124.6,111.65,124.8,112.67Z" fill="#f7941f"/><path d="M108.3,67.2c-.24-1-1.48-3.85-4.14-4.37-.66-.13-16.92-1.06-21.62-1,0,0-66,.28-67.58.64-1.25.28-4.78,1.17-4.73,7.06l-.69,38.16c.19,1.56,1.36,7.86,5.23,7.9,4.6,0,87.82.92,89.1.58a5.22,5.22,0,0,0,4-4.52C108,110.36,108.54,68.22,108.3,67.2Z" fill="#f7941f"/><path d="M106.21,63.72C93.7,62,81.08,61.64,68.47,61.39c-12.32-.25-24.54,1.12-36.85,1.29-2.72,0-5.45.1-8.18.11-2,0-4.63-.63-6.59-.26-3.27.63-5.07,4.07-5.32,7.14-.38,4.72.38,9.74.72,14.62a50,50,0,0,0-.73,25.76c1,4.24,6.08-1.41,6.28-3.48.66-6.75,1.09-13.5,1.11-20.28,0-1.53,0-3.05,0-4.58a37,37,0,0,1,4.89-9.31A5.38,5.38,0,0,0,24.41,71c3.15,0,6.3-.07,9.44-.13,7.55-.15,15-1.12,22.57-1.28A293.78,293.78,0,0,1,103.11,72C106.55,72.44,110.21,64.28,106.21,63.72Z" fill="#fff" opacity="0.25"/><path d="M190.08,65.25c-4-1.59-9.74-1.06-14-1.31-5.25-.32-10.51-.56-15.77-.75a124,124,0,0,0-15.78.06c-2.08.2-4.14.57-6.21.81-2.4.27-5.09-.35-7.39.06-2.69.48-4.27,2.81-4.89,5.34-1.19,4.82-.71,10.46-1,15.42-.53,9.89-.94,19.15,1.8,28.8,1.08,3.83,5.33-.68,6-2.42,2.1-5.7.75-12.11.89-18.06a85.54,85.54,0,0,1,3-21c1.24-.17,2.48-.36,3.72-.51a95.38,95.38,0,0,1,14.83-.28q7.41.24,14.79.64c2.63.15,5.25.31,7.88.49,1.91.12,4.82-.16,6.87.31.25.76.89,1.13,2.06.73l.21-.07a6.48,6.48,0,0,0,4-5.85l0-.26C191.11,66.72,190.76,65.52,190.08,65.25ZM184.73,71l0,.21,0-.1Z" fill="#fff" opacity="0.25"/><path d="M192.64,100.55q-.13-13.2-.26-26.4c0-.86,0-1.74,0-2.6-.08-1.69.43-5.21-.28-6.62-1.65-3.26-8.48-3.29-11.61-3.53-9.15-.7-18.41-.69-27.58-.53-5.13.09-10.25.33-15.38.37-4,0-8.87-.94-12,2.21-1.78,1.8-1.94,3.86-1.94,6.22,0,4.58.1,9.17.16,13.75.12,9.15.44,18.32.34,27.47a.62.62,0,0,0,0,.28c.66,6.91,9.8,5.68,14.75,5.77,9,.16,18.05.26,27.08.37,2.32,0,4.64,0,7,.08,4.6.09,10.75,1,15.14-.78C193.51,114.37,192.69,105.48,192.64,100.55Zm-2,6.07c-.14,2-.69,5.46-2.06,7-1.72,2-5.39,1.63-7.79,1.69-4,.11-7.91,0-11.86-.07l-20.17-.2-13.42-.14c-3.32,0-9,.71-9.78-4h0c.15-13.91-.18-27.86.31-41.76.13-3.78,2.12-5.65,6.36-5.77s8.37,0,12.55-.06c7.7-.19,15.35-.43,23.05-.14,4.22.16,8.48.13,12.69.44,2.09.16,6.69.23,8.42,1.56,1.35,1,1.12,4.32,1.24,6.25.35,6,.16,12,.24,18C190.45,95.16,191,101,190.59,106.62Z" fill="#1e1e1e"/><path d="M109.23,100.88q0-10.42,0-20.84c0-4.13.36-8.54-.16-12.66a.53.53,0,0,0,0-.18c-.7-5.67-4.24-5.42-9.19-5.73C94,61.11,88,60.82,82.12,60.8c-10.22,0-20.45,0-30.67,0-9.34,0-18.66,0-28,.2-4,.1-12.28-.92-13.94,3.88-.95,2.74-.39,7-.45,9.89-.2,10.65-1,21.47-.63,32.12.15,4.11,1,8.88,5.47,9.73s9.63.22,14.2.27c21.38.25,42.82,1,64.2.51,3.83-.08,14.53,1.53,16.4-3.28C110.05,110.61,109.24,104.65,109.23,100.88ZM107.61,77.3q-.09,8.51-.21,17c-.06,4.14,0,8.3-.18,12.43a21.5,21.5,0,0,1-.43,5.22c-1.11,3.72-4.79,2.87-7.91,3-19.63.72-39.34,0-59-.23l-14-.14-3.58,0c-4,0-9.13,1.2-10.83-3.19-1.23-3.18-.79-6.7-.75-10,.08-5.23.18-10.46.27-15.69.08-4.72.17-9.44.23-14.15l0-2.24c0-2-.21-3.24,1.44-4.64,1.44-1.23,3.09-1.22,4.85-1.33,8.46-.52,17-.42,25.46-.43l34.85,0c3.55,0,7.09,0,10.64.11,3.78.11,7.56.24,11.33.44,3.3.17,7,0,7.74,4.05a1,1,0,0,0,0,.1C108.05,70.65,107.64,74.14,107.61,77.3Z" fill="#1e1e1e"/><path d="M312.67,65.51c-21.24-4.61-43.42-3.77-65-2l-4.89.38a1.89,1.89,0,0,0-1.45-.85c-5.64-.76-13.25-1.48-19.52.2-4.92-.23-9.33.62-11.74,5.48-1,2-1.3,4.63-.36,6.44a66.72,66.72,0,0,0-2.22,17c-.06,6.31-.55,14.53,3.91,19.57,2.36,2.67,5.56-2.16,5.94-4.2,1.65-8.68-2.27-17.89-1.83-26.75,0-.79.09-2.25.24-3.74,1.56-.35,3.12-1,4.57-1.38,3.2-.88,6.45-1.58,9.72-2.15,13-2.28,26.33-2.76,39.48-3,13.43-.27,26.84.41,40,3.27C312.92,74.47,316.69,66.38,312.67,65.51Z" fill="#fff" opacity="0.25"/><path d="M316.24,67.75c-1.82-5.19-6.5-5.1-11.27-5.65-12.05-1.41-24.46-.9-36.59-.9-13.85,0-27.73-.34-41.58.14-5.05.18-11.36-.4-16.25,1-5.37,1.53-3.53,7.36-3.91,11.52a.66.66,0,0,0,0,.14c-1.19,8-.16,16.87,0,25,.09,4.72-1,12.21,3.2,15.76,3.28,2.78,9.82,1.63,13.87,1.86,19.1,1.09,38.41.11,57.54-.13,9.45-.11,19.56.83,28.93-.38,5.61-.72,6.59-2.76,6.6-7.93,0-9.88.1-19.77.07-29.65C316.84,75.1,317.38,71,316.24,67.75Zm-4.75,45.79c-3.19,1.25-7.9.4-11.25.41-4.74,0-9.49.1-14.23.15-17.82.21-35.63.59-53.45.46-3.71,0-7.41-.15-11.12-.32-4.54-.2-9.52,1-11.88-3.77-1.62-3.29-1-7.68-1.13-11.26-.3-8-1.61-17.07-.39-25a.58.58,0,0,0,.05-.14c.23-1.62,0-3.25.13-4.88.28-3.82,2.21-5,5.51-5.21,4.68-.3,9.37-.53,14.06-.65,11.5-.3,23-.06,34.52,0,9.22,0,18.42.06,27.64.26,6.51.14,13,.13,19.42,1.33,5.43,1,5.32,6,5.31,10.49,0,9.15.05,18.31,0,27.46C314.6,106.45,315.47,112,311.49,113.54Z" fill="#1e1e1e"/><path d="M477.69,486.78a172.27,172.27,0,0,0-2.17-20c-.42-2.88-3.88-1.77-5.34-.6a8.58,8.58,0,0,0-3,7.76c1.09,7.39,2.07,14.83,1.86,22.31a83.31,83.31,0,0,1-1.24,9.27c-2.93,0-6.16-.47-8.23-.49l-11.87-.1L423,504.71l-23.75-.21c-8-.08-17.28,1.19-24.94-1.1-4.29-1.29-9.45,9.38-4.12,11,6.53,2,14.21,1,21,1.06l20.77.19,42.54.38c5.4,0,12.73,1.47,17.72-1a9.7,9.7,0,0,0,4.71-5.5c.83-2.34.06-3.45-.32-5.59-.31-1.73.55-4.74.78-7.12A77.77,77.77,0,0,0,477.69,486.78Z" opacity="0.15"/><path d="M281,495.16c-.26-9.9-.61-19.8-.81-29.7,0-2.64-2.16-3.65-4.41-2.55-2.47,1.21-4.3,4.65-4.24,7.35.15,7.64.19,15.29.47,22.93.14,3.8.25,7.48.17,11.27l-.21.88a2.93,2.93,0,0,0-1,.31c-1.54-.29-3.93.55-5.47.7-15.76,1.54-31.71-.46-47.35-2.4-4.6-.57-9.45,10.32-4.13,11,9.9,1.22,19.81,2.41,29.78,2.78a143.17,143.17,0,0,0,14.94-.17c4.23-.28,9.2-.26,13.15-1.9C279.5,512.45,281.15,502.48,281,495.16Z" opacity="0.15"/><path d="M116.41,460.68c-.47-2.86-3.86-1.79-5.34-.6a8.52,8.52,0,0,0-3,7.76,169.15,169.15,0,0,1,2.16,33c0,1.3-.09,2.6-.17,3.91a7.09,7.09,0,0,1-.13.91,6.72,6.72,0,0,1-1,0c-1.32-.07-2.64-.18-4-.27q-8.43-.58-16.85-1-32.72-1.61-65.49-.85c-4.67.1-9.21,11.09-4.13,11q40.69-.91,81.35,1.78c5,.33,10.27,1.53,14.2-2.26,3.69-3.55,4.3-8.31,4.61-13.15A178.67,178.67,0,0,0,116.41,460.68Z" opacity="0.15"/><path d="M366.46,457.21c8.48-3.31,80-.75,88-.62,3.48.06,13.33,1.23,14.35,2.12,2.48,2.16,2.86,5.57,2.73,7.9-.09,1.51,1.17,33,.83,36-.16,1.36-1.06,4.29-3.11,5.44-3.74,2.1-99,1.63-101,.71s-4.55-5.1-4.77-7.58S361.92,459,366.46,457.21Z" fill="#f7941f"/><path d="M207.73,506.1c.2,1,3.08,3.12,5.33,3.64.56.13,56.51.92,59.26-.4,3.3-1.58,3.34-8,3.3-8.77,0,0-1.73-38.29-1.89-39.86-.07-.7-1.12-3.08-2.09-3.67-1.76-1.08-53.48-.49-57.21-.77-6.81-.51-6.62,3.9-6.73,5.18S207.53,505.08,207.73,506.1Z" fill="#f7941f"/><path d="M112.31,460.15a6.45,6.45,0,0,0-4.64-3.87c-.66-.13-87.59-.24-89.2.11a16.79,16.79,0,0,0-4.33,2.47C12.76,460,13,501.61,13,501.61c.19,1.57,2.51,7.21,3.65,7.8,2.09,1.07,92,.67,93.07-.05,1.64-1.1,1.84-6.3,2-7.55C111.72,501.81,112.55,461.17,112.31,460.15Z" fill="#f7941f"/><path d="M107.89,458.51l-1-.81c-.84-.69-1.88-.42-2.82.35-20.36-1.63-40.92-1.42-61.32-1.56-5,0-9.9,0-14.85.24-2.23.11-4.63,0-6.68.74-.14-.32-.28-.64-.43-1-1.59-3.33-5.69,2.77-5.95,4.2a74.33,74.33,0,0,0,0,26.44,1.68,1.68,0,0,0,.4.86,70.06,70.06,0,0,0,1,18c.39,2.16,2.86,1.34,4,.45a6.27,6.27,0,0,0,2.24-5.81c-1.58-8.6-.66-16.53.38-25.1a46.09,46.09,0,0,0,.29-10.26,34.82,34.82,0,0,0,4.4-.42c8.12-.28,16.26-.08,24.38,0,17.37.22,34.79.1,52.1,1.65C107.35,466.81,110.58,460.72,107.89,458.51Z" fill="#fff" opacity="0.25"/><path d="M265.2,456.36q-9.18-.67-18.41-.64a241.16,241.16,0,0,0-27,1.7,11,11,0,0,0-4.94.64l-3.78.54c-2.56.39-4.55,4.41-3.89,6.73,1.7,5.94-.35,11.83,2.46,17.61a1.92,1.92,0,0,0,.22.35c-.66,7.52-2.8,16.64.43,23.1.37.75,1.37.73,2,.65l.41-.05c1.57-.19,3.21-2.4,3.62-3.78,0-.12.07-.23.1-.35.66-2.21.14-3.45-.81-3.89-.72-2.22-.18-5.61-.09-7.77.14-3.41.54-6.81.77-10.21a67.26,67.26,0,0,0,.06-9.09,35.17,35.17,0,0,1-.29-6c11.09.11,22.12.79,33.17,1.84,6.34.6,22.25,2.68,23-7.19C272.65,456.18,268.43,456.6,265.2,456.36Z" fill="#fff" opacity="0.25"/><path d="M469,459.93l-2.5-1.23a2.72,2.72,0,0,0-2.87.52,641.17,641.17,0,0,0-77.52-3.55c-5,.07-11.66-.71-16.4,1.26-4.22,1.76-5.22,6.29-5.56,10.37C363.06,480,362.6,493,366,505.38c1.2,4.37,7.14-2.11,6.25-5.36-2.86-10.41-2.7-21.07-2-31.75.24-3.65-.79-3.83,3-4.08,2.91-.2,5.83-.22,8.75-.27q8.33-.15,16.66-.07a642.59,642.59,0,0,1,66.5,4.1C468.07,468.28,472.19,461.52,469,459.93Z" fill="#fff" opacity="0.25"/><path d="M276.47,495.26c-.34-8.85-.7-17.71-1-26.57-.1-3,.41-7.3-.69-9.89-1.51-3.54-8-3.29-11.18-3.46q-13.86-.76-27.72-.52c-5.13.09-10.25.33-15.37.38-4,0-8.88-.95-12,2.2-1.79,1.81-1.94,3.86-1.94,6.23,0,4.58.09,9.16.15,13.74.12,9.15.44,18.32.35,27.48a.59.59,0,0,0,0,.27c.67,6.9,9.77,5.68,14.71,5.77,9.19.16,18.37.26,27.56.36,7.05.08,15.24,1.49,22-.5C277.32,509,276.66,500.31,276.47,495.26ZM274.54,501c-.19,2.63-1.13,6.71-3.78,7.74-2.08.81-5,.57-7.2.6-3.6.05-7.2-.07-10.8-.1q-10.8-.09-21.59-.21l-12.94-.13c-3.31,0-9,.7-9.74-4h0c.16-13.84,0-27.7.31-41.53.09-3.49,1.56-5.78,5.63-6s8.5.09,12.71,0c7.71-.19,15.37-.47,23.07-.17,4.26.16,8.53.22,12.79.41,2.56.11,7.1-.24,8.93,1.7,1.26,1.32,1.05,4.39,1.18,6.28.45,6.29.54,12.62.8,18.92C274.12,489.87,275,495.61,274.54,501Z" fill="#1e1e1e"/><path d="M473.46,493.08c-.24-9.46.1-19.28-.88-28.68-.62-6-3.89-7.23-9.11-8-7.07-1-14.17-1-21.29-1.1-10.94-.23-21.87-.14-32.81-.17-14,0-29.18-1.15-43.1,1.36a.55.55,0,0,0-.32.17c-2,1-2.33,4.17-2.66,6a99.45,99.45,0,0,0-1.08,14.94q-.12,6.81.08,13.64c.12,4.54-.58,9.51,1.08,13.82,2.36,6.15,7.74,5,13.34,5.26,3.88.18,7.75.35,11.64.39,11.37.11,22.75,0,34.12-.16,12.6-.16,25.2-.48,37.8-.39,5.23,0,11.8.24,13-6C473.88,500.56,473.55,496.7,473.46,493.08Zm-2.3,9.71c-1.29,5.77-6.94,5.2-11.7,5.14s-9.24,0-13.86.09l-16.39.19c-16.76.23-33.7,1-50.45.06-2.78-.16-5.82.2-8.55-.29-6.44-1.17-5.63-8-5.81-13.09-.11-2.86-.29-5.71-.36-8.57-.14-5.18-.18-10.38,0-15.56.1-2.23-.26-11.66,2.48-12.82,9.83-1.24,20.24-.8,30.12-.81,10.14,0,20.28.07,30.43.09,10.56,0,21.31-.31,31.82.74,2.46.24,6.09.2,8.42,1.3,3.09,1.47,3.06,5.07,3.14,8,.1,3.76.22,7.51.34,11.26.17,5,.33,10,.44,15C471.35,496.46,471.8,499.89,471.16,502.79Z" fill="#1e1e1e"/><path d="M113,461.32c0-.05,0-.1,0-.17-.4-5.89-3.74-5.35-8.94-5.68-6.09-.39-12.2-.68-18.31-.72-10.12-.05-20.25,0-30.37,0-9.09,0-18.17-.05-27.26.17-3.75.09-12.54-1-14.81,3-1.45,2.55-.73,7.48-.79,10.42-.21,10.77-1,21.71-.64,32.47.14,3.7.82,8.61,4.87,9.62,4.34,1.07,9.61.33,14.14.38,21.6.25,43.26,1,64.86.51,3.83-.08,14.53,1.53,16.4-3.28,1.33-3.44.58-9.46.63-13.2Q113,484.42,113,474C113.07,469.87,113.52,465.44,113,461.32Zm-1.54,9.93c-.12,5.68-.27,11.35-.41,17-.11,4.14-.14,8.29-.34,12.43a23,23,0,0,1-.44,5.21c-1.14,3.8-5.29,2.9-8.49,3-19.44.66-39-.05-58.4-.25l-14.28-.15-3.42,0c-1.72,0-3.45.09-5.17,0-3.35-.14-4.6-.61-5.7-3.79-1-3-.63-6.31-.58-9.44q.12-8.32.28-16.66c.07-4.47.18-8.94.22-13.4,0-.75,0-1.52,0-2.27.07-2.35,0-4.16,2.62-5.2a13,13,0,0,1,4.12-.54c8.46-.44,17-.4,25.42-.41l35.05,0c3.76,0,7.51,0,11.26.15,3.5.12,7,.24,10.49.42s7.31-.51,7.84,3.83a.6.6,0,0,0,.06.19h0C112.05,464.51,111.56,468.07,111.49,471.25Z" fill="#1e1e1e"/><path d="M478.57,59.39c-.23-2.69-.28-7.91-3.28-9-1.45-.52-3.83-.1-5.34-.12-29.36-.37-58.74-.3-88.1-.35q-73.12-.15-146.26-.2-68.94-.06-137.87-.06c-21.49,0-43,.1-64.48,0-5.62,0-11.22,0-16.84.28s-10.1.65-11.24,7.12a.79.79,0,0,0,0,.22c-.81,8.75-.3,17.8-.38,26.57-.09,9.54-.39,19.1-.22,28.64.07,3.87.06,9.48,2.67,12.62,2.81,3.4,10.77,2.48,14.64,2.67,3.47.17,6.93.16,10.4.16q42.18.06,84.35.21,73.29.18,146.59.15,69.31,0,138.64.06h44.9c7,0,14.17.37,21.16-.22,2.68-.23,6-.47,8.23-2.21s2-4,2.09-6.49c.21-4.87.59-9.72.61-14.6q.07-16.61.16-33.22C479,67.59,478.93,63.49,478.57,59.39Zm-2,45.53c0,4.79-.4,9.55-.63,14.33-.14,2.8.34,4.3-3,5.82-2.11,1-4.89.92-7.14,1-.78,0-1.57.06-2.36.07-2.25,0-4.51,0-6.76,0q-17.23,0-34.48,0L297.6,126.1,151.21,126q-52.64,0-105.25.15c-5.69,0-11.38,0-17.07,0-2.74,0-5.47-.06-8.21-.2-3-.15-7.92.34-10.69-1-4.09-1.91-3.73-9.41-3.77-13.44-.11-10.07,0-20.16.11-30.23,0-7.86-.47-16,.24-23.82,0,0,0,0,0-.07C7.65,52,11.81,51.85,16.4,51.7q6.62-.21,13.23-.16l4.31,0h7.38l35,.06q62.1.12,124.2.13,72.84.07,145.69.2,53.85.1,107.7.36,7,0,14.08.11c1.64,0,5.38-.65,6.88.12,1.27.65,1.57,6.58,1.66,8.72.17,3.82.33,7.56.31,11.39Z" fill="#1e1e1e"/><path d="M478.81,212.28c-.39-3.51-1.93-7.12-1.35-10.67.38-2.28-.46-4.81-3.19-4.32s-4.82,4-5.22,6.46c-.87,5.32.87,9.82,1.26,15.06a96,96,0,0,1-.75,18.17c0,.28-.14,1.52-.27,2.64l-1.23.2c-2.53-.45-6,.5-8.68.51-6.05,0-12.11-.12-18.15-.19L406,239.71c-10.4-.13-21.11-1.05-31.46,0-4.46.45-8.26,11.41-2,10.79,5.47-.55,11.16,0,16.65,0l20.56.25q20.57.25,41.13.5c10,.11,23.69,1.35,26.37-11.07a102.53,102.53,0,0,0,1.8-18.76A66.82,66.82,0,0,0,478.81,212.28ZM469,241.36c0,.14-.07.22-.1.23Z" opacity="0.15"/><path d="M354.41,229a114.48,114.48,0,0,1-1.51-15.68c-.15-4.17.7-10.26-1.46-14-1.4-2.42-4.9.08-5.93,1.41l-.15.2c-1.5,2-3.23,5.71-1.27,7.87.09.93-.07,2.93,0,3.65.08,1.89.13,3.78.2,5.66.13,3.77.3,7.53.75,11.27.23,2,2.2,8.1,1.72,10.48-.28-.59-3,.21-3.73.26-2.22.16-4.46.19-6.68.23-14.18.3-28.32-.59-42.47-1.28-4.66-.23-9.35,10.72-4.12,11,9.06.45,18.11,1,27.18,1.23,5.41.13,10.82.18,16.23,0,4.31-.1,9.7.38,13.67-1.56C354.73,245.9,355.75,236.73,354.41,229Z" opacity="0.15"/><path d="M270.57,201.33c-1-7.08-9.28.18-8.66,4.8.82,6,1.66,12.06,2.47,18.09.53,3.95,2.26,11.21,1.11,16-2.86.49-6.76-.21-9.18-.21l-9.86,0c-7.63,0-15.25,0-22.88-.08-14.92-.15-29.83-.6-44.71-1.63-4.65-.32-9.39,10.62-4.13,11,25.78,1.78,51.63,1.74,77.46,1.69,4.61,0,10.73,1.09,14.93-1.23,4.35-2.39,5.87-7.63,6.54-12.22C275.37,225.7,272.16,213,270.57,201.33Z" opacity="0.15"/><path d="M363.25,196.61c.43-2-1.46-4.08,3.31-5.09,1.18-.25,79.94-1.25,88-1.11,3.49.05,13.33,1.22,14.35,2.11,2.48,2.16,2.87,5.57,2.73,7.9-.09,1.51,1.17,34.47.83,37.51-.15,1.36-.78,5.63-3.11,5.94-6.44.88-100.49-.1-102.56-1s-4-4.87-4.23-7.35S362.82,198.59,363.25,196.61Z" fill="#f7941f"/><path d="M280.63,240.42c.21,1,3.08,3.11,5.33,3.63.56.13,55,1.73,58.82-.4,3-1.84,2.79-8,2.74-8.77,0,0-.72-38.29-.89-39.85a9.26,9.26,0,0,0-2.82-3.64c-1.77-1.08-51.83-.5-56.47-.31-6.83.28-6.63,3.91-6.73,5.18S280.43,239.4,280.63,240.42Z" fill="#f7941f"/><path d="M264.18,195.47c-.24-1-1.32-4.72-6.26-4.66-1.6,0-85-.46-86.58-.1-1.25.27-4.75-.42-4.74,7l-1.19,38.16c.2,1.57,2.32,6.64,3.47,7.23,2.08,1.08,91.59,1.1,92.87.76,3-.81,3.21-2.77,3.48-4C266.07,236,264.42,196.49,264.18,195.47Z" fill="#f7941f"/><path d="M261.14,193a73.21,73.21,0,0,0-17-1.9,3.12,3.12,0,0,0-1.82.7l-1-.14c-6.42-.8-12.86-1.47-19.32-1.94a255.6,255.6,0,0,0-37.74-.15c-4.06.3-9.46,0-12.9,2.48-3.59,2.57-3.45,6.82-3.58,10.78-.19,6.09-.4,12.18-.57,18.28-.14,5.25.45,10.4.65,15.59-.67,1.38-1,2.91,0,3.84l.25.25c1.44,1.39,3.39.36,4.45-1.07,2.94-3.93,1.32-8,1.13-12.64-.26-6.24.12-12.52.32-18.76.09-3,.19-6.06.28-9.09,0-.18,0-.42.06-.7l1.33-.2a147,147,0,0,1,20-1.14,304.93,304.93,0,0,1,37.73,2.13c6.43.73,12.85,1.62,19.24,2.61,4.95.76,7.59.16,9.81-4.55C263.17,195.88,263.06,193.47,261.14,193Z" fill="#fff" opacity="0.25"/><path d="M343.14,194c-2.48-2.12-6-1.64-9.1-1.71l-11.88-.3-24.74-.61c-5.06-.13-11.3-1.45-14.54,3.48-3.41,5.19-1.55,14-1.49,19.84a2,2,0,0,0,1.5,2.16c0,1.17-.07,2.34-.12,3.51q-.42,10-1.15,20c-.15,2.07,1.73,2.62,3.3,1.91,2-.9,3-3.49,3.19-5.51.59-8.23,1.05-16.47,1.33-24.71.11-3.29,1-8,.64-12.16,2,.17,4.76-.23,6.22-.19l8.91.22,15.84.39,8.91.22c2.67.07,6.51-.55,8.68,1.3C341.27,204,346,196.48,343.14,194Z" fill="#fff" opacity="0.25"/><path d="M466.11,193.27a41.86,41.86,0,0,0-18.66-.79,2.38,2.38,0,0,0-.65.22L416,191.79l-24.55-.72c-7.11-.21-14.18-.42-21.09,1.47a6.2,6.2,0,0,0-.54-.46c-2.05-1.53-4.55,2.33-5.1,3.63-2.7,6.35-2.22,14.21-2.4,21s-1.3,14.47,1.78,20.59a1.56,1.56,0,0,0,.81.8c0,.6.07,1.21.11,1.81.37,5.32,6.73-.14,6.49-3.6-.18-2.62-.31-5.24-.42-7.87,1-5.5,1.41-11.09,1.93-16.71.3-3.27,1.45-8,1.24-12.13,5.3-.66,10.67-.37,16.06-.21l24.55.72L463,201.5C466.31,201.6,470.24,194.4,466.11,193.27Z" fill="#fff" opacity="0.25"/><path d="M472.91,207.32c-.11-3.23.2-6.81-.36-10-1.08-6.17-5.11-6.63-10.48-7.32-12.11-1.55-24.61-.54-36.82-.55-14.06,0-28.15-.31-42.21.13-5.19.17-11.57-.38-16.61,1-5.37,1.48-3.53,7.39-3.92,11.51a.43.43,0,0,0,0,.12c-1.31,8.09-1,16.94-1,25.12,0,4.68-.94,12.29,3.28,15.71,3.36,2.72,9.9,1.56,14,1.79,19.6,1.13,39.28-.61,58.89.06,9.54.33,19.68,1.64,29.18.45,5.61-.71,6.8-2.7,6.74-7.93C473.55,227.39,473.22,217.35,472.91,207.32Zm-4.54,35.49c-3,1.34-8.08.4-11.25.4-4.6,0-9.19-.15-13.78-.35-18.48-.84-37,.09-55.51,0q-5.5,0-11-.28c-3.86-.18-9.53,1-12-2.69-2.16-3.32-1.5-8.54-1.56-12.3-.11-8.09-.71-17.1.61-25.11,0,0,0-.08.05-.13.23-1.62,0-3.25.13-4.88.28-4,2.48-5,5.94-5.24,4.62-.28,9.25-.52,13.87-.63,11.56-.29,23.13-.05,34.69,0,9.56,0,19.11.06,28.67-.07,6-.08,13.69-.66,19.4,1.44,4.6,1.71,3.87,7,4,11,.24,9.44.59,18.87.74,28.3,0,1.48,0,3,0,4.43C471.39,239.35,471.28,241.49,468.37,242.81Z" fill="#1e1e1e"/><path d="M348.52,229.32c-.09-8.68-.12-17.37-.28-26,0-.84-.05-1.65-.09-2.48-.09-1.87.5-5.83-.14-7.46-1.29-3.27-8.28-3.36-11.11-3.62a233,233,0,0,0-27.84-.57c-5.23.17-10.44.63-15.67.79-3.86.12-8.58-.83-11.71,2-1.9,1.73-2.19,3.84-2.21,6.23,0,4.61.1,9.22.16,13.83.12,9,.43,18.11.34,27.16a.59.59,0,0,0,0,.27c.66,6.91,9.8,5.69,14.74,5.78,9,.16,18.06.26,27.09.36,7.06.08,15.23,1.46,22-.54C349.64,243.32,348.57,234.21,348.52,229.32Zm-2,5.77c-.11,2.54-.4,6.53-2.89,7.85-1.76.93-4.78.62-6.73.68-4,.11-8.06-.05-12.09-.08-6.72,0-13.45-.13-20.17-.19l-13.42-.14c-3.32,0-9,.7-9.78-4h0c.15-13.74-.19-27.53.31-41.27.13-3.81,2.23-5.62,6.36-5.76s8.36-.1,12.55-.32c7.9-.41,15.7-.64,23.6-.35,4.21.16,8.49.08,12.69.46,1.78.16,7,.33,8.33,1.78.84.93.5,4.4.61,5.88.45,6,.32,12.12.4,18.16C346.32,223.54,346.71,229.36,346.47,235.09Z" fill="#1e1e1e"/><path d="M266.38,230.51c-.43-11,.17-22.65-1.49-33.54a.67.67,0,0,0,0-.2c-1-6.24-3.32-6.68-9.17-7s-11.82-.64-17.73-.67c-10.23,0-20.45,0-30.67,0-9.46,0-18.91-.06-28.36.21-4.45.12-12.21-.82-13.29,4.88-.56,3-.24,6.58-.33,9.6l-.58,18c-.15,4.47-.79,9.21-.46,13.67.28,3.83,2.19,8.62,6.27,9.46s9.13.22,13.4.27c21.26.25,42.58.9,63.84.51,4.08-.07,8.17-.14,12.24-.41,1.91-.12,4.31-.13,5.53-1.91C267.63,240.33,266.53,234.11,266.38,230.51Zm-1.8,5.09c-.06,2.26.2,6.21-2.33,7.3-2.19.93-6.17.3-8.5.37-19.3.54-38.66-.09-58-.29l-14.28-.15c-4.29-.05-10.87,1.42-13.26-2.52-2.05-3.39-1.65-6.26-1.54-10,.15-5.48.32-11,.48-16.44l.42-13.9c0-.74.06-1.49.07-2.23,0-1.19-.36-3,.26-4.08,1.14-1.94,3.77-2,5.71-2.13,8.52-.58,17.12-.44,25.67-.44l35.05-.05c3.75,0,7.5,0,11.26.15,3.5.12,7,.24,10.49.43a20,20,0,0,1,3.38.21c3.14.77,3.42,2.69,4,5.31,0,.05,0,.07,0,.11,1.33,8.69.58,18.19.8,27C264.4,228,264.67,231.82,264.58,235.6Z" fill="#1e1e1e"/><path d="M25.07,22.08c-1.35-2.31-4.79-.95-5.86,1a6.33,6.33,0,0,0-.66,2.79c-.43,0-.85.06-1.26.11-1.13.14-1.66,1.92-.3,2.19a15.79,15.79,0,0,0,1.62.23c0,.47.06.92.07,1.35.07,3,0,6-.17,9-.1,1.79,2.73,1.8,2.79,0,.12-3.22.09-6.43-.06-9.65,0-.21,0-.44,0-.67A13.24,13.24,0,0,0,23,28.24a1.25,1.25,0,0,0-.33-2.45H21.08a2.63,2.63,0,0,1,1.44-2.35c.56-.27,1.63-.18,2.32-.47A.66.66,0,0,0,25.07,22.08Z" fill="#7f3f98"/><path d="M28.1,21.26c-1.57,2.14-.91,5.1-.92,7.65,0,3.42-.06,6.83-.14,10.25a1.24,1.24,0,0,0,2.47,0c.12-3.65.2-7.29.18-10.93,0-2.48.46-5-1.14-7a.28.28,0,0,0-.45.06Z" fill="#7f3f98"/><path d="M44.57,36.32c-3.33,3.35-7.86,2-8.73-2a18,18,0,0,0,2.36.21,36.07,36.07,0,0,0,6.73-.26,1.42,1.42,0,0,0,1.37-1.38c.23-3.35-1.82-6.76-5.33-7.27a6.46,6.46,0,0,0-7.15,4.83c-1,3.48-.52,7.27,2.73,9.34s7.29,1,9.92-1.61A1.34,1.34,0,0,0,44.57,36.32Zm-1.09-4.63c-1.61.16-3.22.28-4.83.29-1,0-1.94-.13-2.88-.06C36.54,26.77,42.74,27.33,43.48,31.69Z" fill="#7f3f98"/><path d="M59.89,38.3l-4-4.82c1.12-1.74,2.07-3.57,3.34-5.2a1.11,1.11,0,0,0,.28-1.05c-.06-.15-.13-.44-.3-.53L59,26.59a1.11,1.11,0,0,0-1.31.17,22.87,22.87,0,0,0-3.55,4.63c-1.4-1.73-2.79-4.24-4.93-4.95a.61.61,0,0,0-.76.58c.12,2.45,2.54,4.66,4,6.55l.06.08c-1.37,1.7-2.9,3.28-4.41,4.85-1.24,1.29.72,3.25,2,2,1.44-1.5,2.86-3,4.15-4.63,1.2,1.53,2.41,3.05,3.66,4.54S61.09,39.73,59.89,38.3Z" fill="#7f3f98"/><path d="M62.7,34.44a12.47,12.47,0,0,0,5.88.39c1.54-.35,1-2.38-.34-2.54-1.71-.2-3.49-.14-5.21-.29-1.43-.13-1.64,2.06-.33,2.44Z" fill="#7f3f98"/><path d="M81.59,27.68c-2-2.49-8.79-3.56-9.85.38-.62,2.31.87,4.21,2.84,5.18,1.3.63,3.64.73,4.51,1.92,2.54,3.47-4.13,4.57-5.9,1.68-.76-1.22-2.74,0-1.9,1.11a6.53,6.53,0,0,0,6.51,2.63c2.28-.4,4.55-2.1,4.28-4.66s-3-3.56-5.16-4.15c-1.42-.38-4.3-1.28-2.76-3.17a2.42,2.42,0,0,1,2.43-.83,9,9,0,0,1,3.68,1.63c1.1.77,2-.83,1.32-1.72Z" fill="#7f3f98"/><path d="M90.07,37.42c-1.5,1.14-1.71-3.18-1.77-3.87-.11-1.44-.15-2.89-.14-4.33,0-.13,0-.26,0-.39a4.54,4.54,0,0,0,2.2,0,1.28,1.28,0,0,0,.3-2.3,4.75,4.75,0,0,0-2.3-.32A11,11,0,0,0,88.27,23a.88.88,0,0,0-1.6-.21,13.83,13.83,0,0,0-.91,3.29,10.48,10.48,0,0,0-1.58.1c-1,.17-.74,1.5,0,1.8a7.82,7.82,0,0,0,1.33.4,32.56,32.56,0,0,0,.71,8.93c.62,2.58,3.72,4.49,5.49,1.76C92.33,38.11,91,36.69,90.07,37.42Z" fill="#7f3f98"/><path d="M105,32.7c-.25-1.77-.31-4-1.58-5.35-2.23-2.47-6.54-1.84-8.61.47A.68.68,0,0,0,95.27,29c2.72,0,6.12-2,6.76,2.16,0,.2,0,.4.08.6a9.17,9.17,0,0,0-4.82-.61,5.08,5.08,0,0,0-4.07,5.53c.52,4.8,6.12,4.8,9.48,2.58v.34c0,1.9,3.08,1.88,3,0C105.49,37.26,105.31,35,105,32.7Zm-5.68,5.42c-1.42.35-3.26,0-3.63-1.59-.53-2.3,1.63-3.1,3.46-2.94a18.2,18.2,0,0,1,3.3.87c0,.59.1,1.19.14,1.79A11.53,11.53,0,0,1,99.31,38.12Z" fill="#7f3f98"/><path d="M115.74,26.73c-1.52-.72-2.94.59-4.08,1.5-.1.07-.18.15-.27.22a4.17,4.17,0,0,0-.84-2,.48.48,0,0,0-.68,0c-1.2,1.51-.9,3.37-.92,5.24,0,2.61-.1,5.24,0,7.85a1.3,1.3,0,0,0,2.6,0c.06-2.61,0-5.24,0-7.85v-.53a16.75,16.75,0,0,1,1.4-1.12c.39-.29.8-.56,1.21-.81s1.17-.41,1.66-.78S116.5,27.08,115.74,26.73Z" fill="#7f3f98"/><path d="M125.64,26.4a7.82,7.82,0,0,0-2.94-.4,12.73,12.73,0,0,0-.52-3.14.85.85,0,0,0-1.63,0,12.9,12.9,0,0,0-.46,3.16,7.7,7.7,0,0,0-1.87.31,1,1,0,0,0,0,1.88,11.31,11.31,0,0,0,1.86.34c0,.52,0,1,0,1.55,0,2.42-.4,5.26.19,7.62.68,2.72,3.65,4,5.43,1.48.91-1.3-1.17-2.92-2.21-1.7-.17.2-.62-3.38-.63-3.89,0-1.36,0-2.73-.09-4.09,0-.27,0-.53,0-.8a21.81,21.81,0,0,1,2.18.19A1.3,1.3,0,0,0,125.64,26.4Z" fill="#7f3f98"/><path d="M478.47,197.42c0-4.47,1.06-11.92-1.84-15.75-1.51-2-4.24-2.09-6.55-2.46-5.35-.87-10.52-.39-15.91-.3-1.61,0-3.21,0-4.81,0q-42.93-.06-85.85-.2-72.35-.19-144.69-.15-68.07,0-136.16-.06c-21.06,0-42.39-1-63.44,0-6.51.3-13.48,2.53-14.39,9.62A124.35,124.35,0,0,0,4.19,203L4,235.54c0,4.57-.33,9.51.52,14,1,5,5.53,7.66,10.32,7.86,5.7.24,11.42,0,17.12,0,25.57.06,51.13,0,76.7,0q70.21,0,140.43,0l137.1,0c21.2,0,42.41-.11,63.62-.06,6.84,0,13.67,0,20.5-.37,5.7-.32,7.21-1.4,7.56-7.23a.39.39,0,0,0,0-.15c.82-8.94.31-18.17.39-27.13C478.36,214,478.47,205.72,478.47,197.42Zm-6,57.65c-1.44.41-3.41.16-4.93.2-4.92.14-9.85.15-14.78.11l-3.76,0h-7.51l-35.23-.05q-61.72-.06-123.45,0l-141.91,0-97.52,0c-6.62,0-13.25-.07-19.87,0a79.91,79.91,0,0,1-9.54,0,7.93,7.93,0,0,1-4-1.45c-3.81-2.5-3.33-6.21-3.51-10.1-.16-3.38-.28-6.65-.26-10q.09-15.92.2-31.83c0-5.88-1.16-15.15,4.07-18.66,2.72-1.82,6.4-2.2,9.61-2.29,2.51-.07,5,0,7.55,0h35l123.23.07q72,0,144.07.06,52.44,0,104.9-.14c6.32,0,12.66.08,19-.05.7,0,1.41,0,2.11-.07,5.11-.22,13-1.56,17.75,1,4.43,2.44,3.08,11.89,3.09,16.23,0,9,0,18-.1,27,0,8.11.47,16.49-.26,24.58a1,1,0,0,0-.05.16C476.23,252.28,475,254.37,472.49,255.07Z" fill="#1e1e1e"/><path d="M479.22,366.29q-.51-16.49-1-33c-.12-3.84-.08-7.58,0-11.43,0-2.69.19-6.52-2-8.52-1.68-1.52-5.18-1.89-7.27-2.33-6.48-1.34-13.24-.56-19.83-.57-25.45-.06-50.9,0-76.35,0l-139.71,0-135.52,0c-20.78,0-41.55.1-62.33.06-7.69,0-16-.83-23.61.88-7.19,1.64-5.39,7.58-5.79,13.79a.66.66,0,0,0,0,.25c.15,16.68-.38,33.47.64,50.12.19,3.15-1.06,10,2.21,11.75,4.5,2.44,12.18,1.53,17.08,1.54,8,0,16-.11,24,0,25.15.43,50.35,0,75.51,0q70,0,140.08-.21l136.39-.28,64.44-.19c5.71,0,12,.68,12.56-6.43A150,150,0,0,0,479.22,366.29Zm-2.51,10.4c-.26,3.87.3,8.67-4.6,9.31a54.91,54.91,0,0,1-6.91,0l-8,0-35.87.09-123.63.25-141.1.3q-48.23.12-96.46.36c-9.54,0-19.1-.33-28.62,0a108.6,108.6,0,0,1-18.74-.47c-3.4-.48-4.11-.71-4.33-4.17s-.46-6.8-.66-10.21c-.46-7.88-.27-15.85-.36-23.75-.09-7.7-.2-15.4-.27-23.11a.29.29,0,0,0,0-.11c.37-4.76-.74-11.25,5.41-12.22,5.63-.88,11.46-.66,17.14-.63l6.1.05h7.27q17.35,0,34.7,0l122.44.05,140.56,0,97,0c8,0,16.08-.09,24.12-.09a28.55,28.55,0,0,1,10.08,1.53c5.33,2.1,3.71,8.14,3.73,12.88,0,3.17.19,6.36.28,9.53q.48,15.76.94,31.53c0,.89.1,1.8.08,2.69C477.06,372.68,476.84,374.71,476.71,376.69Z" fill="#1e1e1e"/><path d="M478.93,507.27c-.17-8.31-.3-16.61-.46-24.92-.14-8,.21-16.18-.64-24.15-.59-5.55-2.2-11.6-8-13.63-7.13-2.5-16.18-.55-23.56-.33-4.3.13-8.55-.37-12.84-.37l-80.86,0q-70.23,0-140.47.22l-133.2.28-43,.11c-7.27,0-15.38-.74-22.59.38-9.21,1.43-7,9.21-6.92,16.42,0,3,0,6,0,9q.13,16,.28,31.94c0,4.16-1.14,8.84-.15,12.84,1.54,6.26,7.71,8.12,13.44,8.37,5.48.25,11-.06,16.49-.07l78.77-.21q69.48-.2,139-.35l133.4-.36c20.64,0,41.29-.21,61.94-.2,7.6,0,15.46.53,23-.79s6-7.66,6.43-13.89A.59.59,0,0,0,478.93,507.27Zm-1.88,7.16c-.45,4.56-3.83,5.31-7.67,5.67a159.52,159.52,0,0,1-16.22.28c-1.46,0-2.91,0-4.37,0-2.46,0-4.92,0-7.37,0q-17.12,0-34.23,0-60.17.11-120.31.24l-139.87.3q-49.11.12-98.23.21c-5.28,0-10.56,0-15.85,0-7.9,0-24.71,2.91-24.42-9.42.09-3.83.39-7.64.37-11.48q-.12-15.78-.23-31.55c0-3.3.08-6.64-.09-9.94-.13-2.44-.78-5.19-.17-7.59,1-4.08,4.74-4.14,8.35-4.33,1.2-.07,2.42-.06,3.63-.07,2.13,0,4.26,0,6.4,0l32.9-.08,119.64-.25,141-.3q50.1-.12,100.21-.37c5.28,0,10.62-.27,15.9-.06,8.23.33,16.31-.21,24.54-.37,4.45-.08,9.95-.05,12.64,4.14,2.13,3.32,2.57,7.63,2.8,11.47.46,7.77.39,15.61.57,23.39s.36,15.41.52,23.11a.45.45,0,0,0,0,.11C477.31,509.84,477.28,512.14,477.05,514.43Z" fill="#1e1e1e"/><path d="M478.93,784.65c-.17-8.3-.3-16.61-.46-24.91-.14-8,.21-16.19-.64-24.15-.59-5.56-2.2-11.6-8-13.63-7.13-2.5-16.18-.55-23.56-.33-4.3.12-8.55-.38-12.84-.38H352.59q-70.23,0-140.47.22-66.6.12-133.2.28l-43,.11c-7.27,0-15.38-.74-22.59.38-9.21,1.43-7,9.21-6.92,16.41,0,3,0,6,0,9q.13,16,.28,31.94c0,4.16-1.14,8.84-.15,12.84,1.54,6.25,7.71,8.11,13.44,8.37,5.48.25,11-.06,16.49-.08l78.77-.21,139-.35,133.4-.35c20.64-.06,41.29-.21,61.94-.21,7.6,0,15.46.54,23-.78s6-7.66,6.43-13.89A.61.61,0,0,0,478.93,784.65Zm-1.88,7.17c-.45,4.56-3.83,5.31-7.67,5.67-5.36.5-10.84.32-16.22.28-1.46,0-2.91,0-4.37,0h-7.37l-34.23,0q-60.17.12-120.31.24L147,798.33l-98.23.2c-5.28,0-10.56,0-15.85,0-7.9,0-24.71,2.91-24.42-9.42.09-3.84.39-7.64.37-11.49q-.12-15.76-.23-31.54c0-3.3.08-6.65-.09-9.94-.13-2.44-.78-5.19-.17-7.59,1-4.08,4.74-4.15,8.35-4.34,1.2-.06,2.42-.05,3.63-.06,2.13,0,4.26,0,6.4,0q16.44-.06,32.9-.08l119.64-.25,141-.31q50.1-.11,100.21-.36c5.28,0,10.62-.28,15.9-.06,8.23.33,16.31-.22,24.54-.37,4.45-.08,9.95-.06,12.64,4.13,2.13,3.32,2.57,7.63,2.8,11.48.46,7.77.39,15.6.57,23.39s.36,15.41.52,23.11a.45.45,0,0,0,0,.11C477.31,787.22,477.28,789.53,477.05,791.82Z" fill="#1e1e1e"/><path d="M24.43,152.08a.63.63,0,0,0,.61-.61l0-.48a1.19,1.19,0,0,0-.85-1.13c-2.71-.87-4.77,1-5.2,3.66a8.52,8.52,0,0,0-.07,2,2.69,2.69,0,0,0-2.16.87.47.47,0,0,0,.07.57,2.79,2.79,0,0,0,2.3.62c.11.84.23,1.67.27,2.47a48.69,48.69,0,0,1-.22,8.45c-.15,1.3,1.95,1.32,2.06,0a64.41,64.41,0,0,0,.34-9.1c0-.6-.1-1.24-.15-1.89A6.69,6.69,0,0,0,24.2,157c.73-.35.43-1.36-.21-1.6a6.14,6.14,0,0,0-2.62-.16A3.11,3.11,0,0,1,24.43,152.08Z" fill="#7f3f98"/><path d="M28.41,151.11c-1.54,1.84-1,4.34-1,6.65,0,3.46-.06,6.94,0,10.4a1.09,1.09,0,0,0,2.18,0c.09-3.46,0-6.94,0-10.4,0-2.31.59-4.81-.95-6.65a.22.22,0,0,0-.32,0Z" fill="#7f3f98"/><path d="M47.2,161.9c-1.16-3-3-6.52-6.66-6.55s-5.54,2-6.7,5.21-.77,6,2.22,7.9,6.68,2.43,9.22-.18a1.21,1.21,0,0,0-1.71-1.71c-1.84,1.72-4.07,1.36-6.12.2a3.58,3.58,0,0,1-2.08-3.53,49,49,0,0,1,5.55.06c1.85.21,3.56.7,5.39.17A1.29,1.29,0,0,0,47.2,161.9Zm-8.27-1.08a18.61,18.61,0,0,0-3.09.34s0,0,0,0c.77-2,1.93-3.51,4.33-3.46,2.16.06,3.24,1.79,4,3.56C42.48,161.24,40.55,160.75,38.93,160.82Z" fill="#7f3f98"/><path d="M59.58,168c-.41-2.22-2.67-3.78-4.29-5.39,1.55-1.92,3.73-4.09,4.13-6.38.07-.38-.25-.88-.7-.7-2.14.83-3.67,3.16-5.09,5.06-.62-.85-1.2-1.74-1.8-2.61s-1.26-2.15-2.28-2.64c-.66-.32-1.51.36-1.07,1.08,1.26,2,2.27,4.13,3.6,6.1-1.53,1.79-3.27,3.72-3.95,5.84-.29.87.85,1.86,1.65,1.27a18.78,18.78,0,0,0,3.95-4.85,30,30,0,0,0,4,4.32A1.14,1.14,0,0,0,59.58,168Z" fill="#7f3f98"/><path d="M62.61,163.48a7.61,7.61,0,0,0,2.85.32c1-.05,2.21-.09,2.77-1.1a1.23,1.23,0,0,0-.44-1.65c-1-.5-1.69,0-2.68.11-.82.13-1.69,0-2.5.15a1.13,1.13,0,0,0,0,2.17Z" fill="#7f3f98"/><path d="M82.54,166c-3.46,3.23-7.57.88-8.45-2.49a37.1,37.1,0,0,0,7.81.1c2-.19,3.14-1,2.86-3.11-.54-4-6.28-7.23-9.8-4.64a8,8,0,0,0-3.11,6.11,1.06,1.06,0,0,0,0,1,7.41,7.41,0,0,0,12.58,4.94C85.73,166.7,83.81,164.77,82.54,166Zm-7-7.58c1.4-1.44,3-1,4.67-.18,1.11.55,2.87,2,1.25,2.9-.93.49-3.33.22-4.38.24s-2.07,0-3.1,0A5.56,5.56,0,0,1,75.54,158.37Z" fill="#7f3f98"/><path d="M100.29,160.33c-.26-1.8-.81-3.83-2.65-4.61-2.4-1-5.15.2-6.73,2.19a2.5,2.5,0,0,0-.83-1.58.3.3,0,0,0-.34,0c-1.65.84-1.35,3.43-1.44,5.05-.13,2.56-.48,5.58.38,8,.33,1,2,1.21,2.2,0,.41-2.44-.1-5.05-.1-7.53a11.66,11.66,0,0,1,.09-1.27,9.51,9.51,0,0,1,2.26-1.88c1.56-.88,3.93-1.41,4.52.84.73,2.8.15,5.79.34,8.63a1.36,1.36,0,0,0,2.72,0A47.63,47.63,0,0,0,100.29,160.33Z" fill="#7f3f98"/><path d="M116.58,150.85a1.07,1.07,0,0,0-2.14,0c-.24,2.17-.32,4.38-.37,6.58-1.95-1.47-4.93-2.36-7.07-1.31-2.38,1.17-3.21,4.36-3.16,6.78,0,2.62,1.33,5.34,3.91,6.31a6.83,6.83,0,0,0,6-.78,2.5,2.5,0,0,0,.52.95,1.47,1.47,0,0,0,2.48-1C116.8,162.59,117,156.6,116.58,150.85Zm-7.77,16.08c-2.56-.6-3.26-3.34-2.84-5.66s1.66-3.72,4.2-3.24c1.32.25,2.56.62,3.87.81,0,1.1,0,2.19-.07,3.27,0,.8-.21,1.88-.34,3C112.16,166.17,110.82,167.4,108.81,166.93Z" fill="#7f3f98"/><path d="M205.27,332c-.5-2.52-3.25-2-4.8-1a8.93,8.93,0,0,0-3.69,7q-.43,10.51-.88,21c-.17,4.14.08,8.75-.08,13.18h-.26l-.76,0c-.15-.07-.31-.13-.45-.21a3.34,3.34,0,0,0-3.47.38h-.07c-2.58.07-5.16.12-7.74.13q-8.7.06-17.4-.3c-10.59-.42-20.95-1.47-31.55-.48a228.71,228.71,0,0,1-35,.19c-4.66-.27-9.37,10.67-4.13,11,6.93.4,13.86.81,20.8.73s14-1.13,21.06-1.46c13.64-.63,27.46,1.37,41.15,1.32,4.05,0,8.68.38,13,0,3,.89,6.4.92,8.91-.8,2.79-1.91,3.58-4.87,3.85-8a19.76,19.76,0,0,0,1.16-3.89C207.25,358.32,207.75,344.5,205.27,332Z" opacity="0.15"/><path d="M398.86,354.3c-.47-7.52-.57-15.05-.4-22.58a2.72,2.72,0,0,0-3.31-3l-2.59.48c-4.21.8-7.75,10.93-2.8,10.87-.07,5.72,0,11.43.34,17.15.25,4.7,1.33,9.95,1.46,14.95-13.49.92-27,1.34-40.53,1.17q-11.34-.14-22.67-.79c-7.27-.42-14.51-1.41-21.78-.71-4.45.43-8.26,11.39-2,10.79,7.11-.68,14.54.62,21.65,1q11.32.62,22.67.7c14.81.12,29.6-.45,44.35-1.63,3.37-.27,5.6-3.45,6.27-6.55C401,369,399.3,361.5,398.86,354.3Z" opacity="0.15"/><path d="M287.64,360.85c-.31-4.87.33-9.73-.11-14.61a73.73,73.73,0,0,0-3-15.22c-1.82-5.82-9.67,2.85-8.33,7.16A66.54,66.54,0,0,1,279,360.7a52.89,52.89,0,0,0,0,5.77c.08,1,1,3.67.65,4.48l.54.22a14.33,14.33,0,0,1-3.13.31c-1.93.11-3.89,0-5.82.08L248,371.9c-7.75.11-17.64,1.9-25-.88-4.73-1.78-10.37,8.75-6,10.4,9.31,3.51,21,1.55,30.75,1.4l16.49-.24c4.69-.07,10,.5,14.61-.8a13.39,13.39,0,0,0,8.51-7.61C289.35,369.61,287.94,365.56,287.64,360.85Z" opacity="0.15"/><path d="M200.05,371.44c-.43,2,0,4.08-4.8,5.09-1.18.25-94.83,3.25-102.88-1-2.91-1.53-2.86-5.56-2.73-7.89.09-1.52.18-40.74,1.78-42.46S142.64,324,142.64,324l50.61.36c2.28,0,5.23,5.68,5.46,8.16S200.48,369.46,200.05,371.44Z" fill="#f7941f"/><path d="M280.62,327.62c-.2-1-3-3.1-5.28-3.62-.56-.12-56.31-.65-57-.52-4.6.92-4.64,8.92-4.6,9.69,0,0,.56,36.73.73,38.29.07.7,3.64,4.59,4.6,5.18,1.77,1.07,53.41.5,55.85.34,6.82-.47,6.63-3.91,6.73-5.19S280.83,328.64,280.62,327.62Z" fill="#f7941f"/><path d="M297.12,372.59c.24,1,1.44,4.13,4.14,4.37,3.54.32,86.55.34,88.2.39,4.74.14,4.79-6.28,4.74-7.06l-.31-38.16c-.19-1.56-2.32-6.63-3.46-7.22-2.09-1.08-5-.74-8.91-.78-4.61-.05-79.69-.32-81,0a4.14,4.14,0,0,0-3.49,4C297,329.43,296.88,371.57,297.12,372.59Z" fill="#f7941f"/><path d="M279.53,326a98,98,0,0,0-31.47-3.4c-5.41.22-10.8.7-16.19,1.16-4.1.35-9.59-.06-13.25,2.09-7.55,4.42-5,16.35-4.45,23.42q.59,8.2,1.68,16.37c.34,2.55-.31,5.92,1.71,7.75,1.18,1.08,3.21-.83,3.9-1.56l.28-.29c1.1-1.17,2.41-4.28,1.14-5.74l-.22-.24-.08-.09c-.5-6.57-1.45-13.2-1.92-19.8-.16-2.26-.3-4.51-.4-6.77,0-1.17-.82-5.11-.2-5.8,1-1.16,7.61-1,9.6-1.18,15.82-1.35,31.34-2.14,46.77,2.32C279.68,335.21,283.53,327.2,279.53,326Z" fill="#fff" opacity="0.25"/><path d="M390.29,325.24c-12.35.28-24.7.71-37.05.8s-24.52-1.56-36.81-2.35c-7.29-.47-19.45-1.69-19.07,8.95.09,2.47.36,4.94.68,7.41-2.69,10.77-1,23.15.74,33.44.7,4.24,6.08-1.43,6.27-3.48a169.73,169.73,0,0,0,.76-21c-.12-3.5-.35-7-.7-10.48-.05-.5-.16-1.1-.28-1.73a17.52,17.52,0,0,1,2.86-4.83q.19-.24.36-.48c1.3.13,2.52.3,3.39.35,3.47.18,6.92.48,10.37.8,7.22.67,14.44,1.44,21.69,1.62,14.54.38,29.16-.42,43.69-.75C390.69,333.4,394.09,325.16,390.29,325.24Z" fill="#fff" opacity="0.25"/><path d="M395.23,365.4c-.08-10.68.29-21.46-.21-32.13-.14-3.11-1.46-7.81-4.29-9.45-3.55-2.06-9.52-.83-13.64-.88-21.23-.25-42.51-.94-63.73-.52-3.78.07-15-1.59-17,3-1.46,3.35-.61,9.14-.56,12.84q.14,10.09.3,20.2c.07,4.11-.23,8.49.33,12.58a.81.81,0,0,0,0,.22c1,6.22,3.31,6.67,9.16,7s11.76.64,17.64.67c10.1.06,20.19,0,30.29,0,9.13,0,18.25.06,27.37-.18,3.79-.1,12,.85,13.87-3.46C395.92,372.67,395.25,368.34,395.23,365.4Zm-5.37,10.77a16.74,16.74,0,0,1-4,.4c-8.09.38-16.18.37-24.28.38l-34.93,0c-3.66,0-7.31,0-11-.15s-7.24-.24-10.87-.44a17.59,17.59,0,0,1-3-.2c-3.13-.77-3.42-2.68-4-5.31,0,0,0-.06,0-.1-.43-3.09-.08-6.46-.09-9.57q0-8.46,0-16.93c0-3.89-.13-7.81,0-11.69.09-2.17-.26-6.28,2.16-7.41,1.87-.88,5.57-.32,7.6-.38,19.47-.62,39,.08,58.48.29l12.8.14,3.57,0c1.84,0,5.12-.54,6.86.35s2.78,3.59,3.24,5.34c.69,2.64.39,5.55.42,8.28q.09,8.19.16,16.38c0,4.38.06,8.76.12,13.14,0,.81.06,1.64.05,2.44C393.1,373.88,393,375.25,389.86,376.17Z" fill="#1e1e1e"/><path d="M282.32,356.56c-.35-9.2-1-18.46-1-27.67a.77.77,0,0,0,0-.27c-.68-7-10.18-5.69-15.18-5.78q-13.45-.22-26.93-.36c-6.92-.08-15.53-1.71-22.09.62-5.57,2-4.43,11.2-4.38,16,.09,8.63.06,17.27.27,25.9.07,2.8-.5,7,1,9.34,1.95,3.17,8.39,3.83,11.66,4.07a248.44,248.44,0,0,0,27.15.46c5.22-.19,10.43-.59,15.65-.76,3.94-.12,8.94.89,12.13-2,1.92-1.75,2.19-3.83,2.17-6.24C282.75,365.44,282.48,361,282.32,356.56ZM275,375.88c-4.17.26-8.44,0-12.63.24-7.71.38-15.38.79-23.09.5-4.26-.17-8.54-.19-12.79-.42a27.61,27.61,0,0,1-7.31-1.37c-3.75-1.28-3.56-4.14-3.78-7.57-.37-5.81-.24-11.68-.32-17.51-.08-5.63-.5-11.37-.22-17,.12-2.61.52-6.59,3.22-7.72,2-.81,4.85-.56,7-.61,3.84-.08,7.68.06,11.52.09l20.67.2,12.93.14c3.31,0,9-.71,9.77,4v0c-.09,13.68.72,27.36.65,41C280.55,373.38,279,375.62,275,375.88Z" fill="#1e1e1e"/><path d="M187.63,325.27,164,324.19c-1.25-.05-2.5,1-3.41,2.29l-7.07-.46-39.82-2.6c-4.8-.32-11.81-2.19-16.21.51-3.21,2-4.62,5.7-5.14,9.25-1.58,10.82-1.67,22.12-1.53,33.13a4.49,4.49,0,0,0-.54,3.06c.24.9.49,1.79.74,2.69,1.26,4.58,6.4-2.14,6.36-4.49-.13-7.67,0-15.34.35-23,.2-3.82.43-7.66.78-11.48.3-3.19,1.59-2.08,4.13-1.95,2,.1,4,.26,6,.39l48.78,3.19,23.9,1.57c5.23.34,11.48,1.94,14.19-3.93C198.41,325.88,192.39,325.49,187.63,325.27Z" fill="#fff" opacity="0.25"/><path d="M200.79,365.94a.68.68,0,0,0,0-.14c1.1-8.06-.6-17-1-25.09-.23-4.82,1-12.28-3.41-15.8-3.39-2.67-10-1.5-14.19-1.72-20.21-1.09-40.49.75-60.71-.15-5-.22-9.91-.47-14.88-.48-4,0-8.27-.48-12.2.36-5.34,1.15-5.16,3.74-5.3,8.48-.31,10.31-.34,20.63-.45,30.94,0,3.36-.58,7.28.64,10.45,2,5.28,7.51,5,12.39,5.54,12.11,1.27,24.66.26,36.85.26,13.94,0,27.92.33,41.85-.2,5.19-.2,11.34.34,16.4-.92C202.26,376.1,200.41,370.07,200.79,365.94Zm-1.59,4.68c-.26,3.74-2.24,5-5.6,5.21-4.93.28-9.87.48-14.81.63-11.39.34-22.8.09-34.19.07-9,0-18-.14-27,0-6.88.12-13.65.17-20.47-.92-4-.64-6.26-2.46-6.44-6.93,0-1.11,0-2.26.07-3.37.15-9.28.23-18.56.42-27.83.06-2.7-.39-6.19.18-8.83,1.07-5,7.85-3.87,11.68-3.83,4.61,0,9.21.06,13.82.28,18.7.89,37.43,0,56.14.12,3.76,0,7.51.09,11.27.27s9.73-1.05,12.15,2.71c2.2,3.42,1.34,8.36,1.56,12.21s.58,8,.83,12c.27,4.2,1.14,9,.56,13.22a.43.43,0,0,0,0,.12C199.1,367.37,199.32,369,199.2,370.62Z" fill="#1e1e1e"/><path d="M29.8,287.41C26.11,282,18.54,287,18,292.24c-.58,6,7,10.78,11.69,6.53,1.36-1.21-.67-3.25-2-2-3,2.81-7.86-.87-7.7-4.4.17-3.79,5.11-6.57,7.94-3.54.89,1,2.6-.3,1.84-1.42Z" fill="#7f3f98"/><path d="M44.56,294.07a1.44,1.44,0,0,0,1.41-1.4c0-8-10.62-9.62-13.57-2.48-1.38,3.36-.78,7.24,2.33,9.41s7.67,1.25,10.43-1.34c1.07-1-.29-2.49-1.49-1.93-2.11,1-4.08,2.46-6.53,1.52a4.36,4.36,0,0,1-2.81-3.54C37.42,295.23,41.6,294.41,44.56,294.07ZM43,291.42c-1.61.16-3.22.29-4.84.39a25.48,25.48,0,0,0-3.73.29C35.75,287.3,42,286.81,43,291.42Z" fill="#7f3f98"/><path d="M61.53,289.89A3.67,3.67,0,0,0,59,286.33c-1.89-.58-5.58,0-7.27,1.78a6.33,6.33,0,0,0-.61-1.95.67.67,0,0,0-1.15,0c-.81,1.76-.59,3.7-.67,5.61a64.28,64.28,0,0,0-.35,7.2c.09,1.33,2.11,1.77,2.44.33a30.75,30.75,0,0,0,.45-7.05c0-.65,0-1.33,0-2,2.08-.78,4.61-3,6.42-1,1,1.17.45,3.12.29,4.61a39.69,39.69,0,0,0-.32,4.87c0,2.21,3.22,1.76,3.12,0C61.09,295.76,61.74,292.83,61.53,289.89Z" fill="#7f3f98"/><path d="M69.47,296.66c-1.4,1-1.35-3.41-1.35-3.75,0-1.32,0-2.63,0-3.94a2.56,2.56,0,0,0,2.61-.62,1.41,1.41,0,0,0,0-1.92c-.71-.81-1.58-.7-2.52-.64a4.89,4.89,0,0,0-1.18-3.35.54.54,0,0,0-.84.11,9.77,9.77,0,0,0-.7,3.17,10.09,10.09,0,0,0-1.1,0,1.14,1.14,0,0,0-.57,2.11,6.41,6.41,0,0,0,1.56.61c0,.43,0,.86-.06,1.28a25.62,25.62,0,0,0,.06,6.43c.52,2.82,3.25,5.12,5.8,2.77C72.4,297.84,70.82,295.7,69.47,296.66Z" fill="#7f3f98"/><path d="M84.28,297a5.1,5.1,0,0,1-8.39-2.86,38.17,38.17,0,0,0,7.47.22c1.74,0,3.69,0,3.41-2.32a6.84,6.84,0,0,0-10.09-5.33c-4.14,2.07-4.13,8.2-1.53,11.46s8,3.76,10.94.63A1.28,1.28,0,0,0,84.28,297Zm-4.47-8.66a4.35,4.35,0,0,1,4.2,3.32l-1.42,0-2.58.05c-1.4,0-2.8-.08-4.18,0A4,4,0,0,1,79.81,288.32Z" fill="#7f3f98"/><path d="M97.66,286.16c-1.25-.85-3.17.09-4.28.85a8.74,8.74,0,0,0-1,.78,3.35,3.35,0,0,0-1-1.66.61.61,0,0,0-.94.12c-1.1,1.77-.3,4.37-.33,6.38,0,2.29-.76,4.81,0,7a1.26,1.26,0,0,0,2.47-.33,48.45,48.45,0,0,0,.21-7.62c0-.39,0-.82,0-1.25a17.8,17.8,0,0,0,1.63-1,6.78,6.78,0,0,1,1.78-.85,3.66,3.66,0,0,0,1.74-.71A1.12,1.12,0,0,0,97.66,286.16Z" fill="#7f3f98"/><path d="M26.86,419a5.84,5.84,0,0,0-6.06-.74c-1.49.67-3.22,2.26-2.71,4.09s2.78,2.58,4.38,3.11,4.35,1.2,3.6,3.5c-1.13,3.44-4.92,1-6.4-.67-1.16-1.27-3.08.65-1.88,1.88,1.78,1.83,4.05,3.27,6.72,2.86a4.86,4.86,0,0,0,4.16-3.87,4.53,4.53,0,0,0-2.6-4.65,21.71,21.71,0,0,0-3.41-1.24c-1.68-.57-3.14-2.36-.54-3.2a4.46,4.46,0,0,1,3.7.71c1.17.71,2.07-1,1-1.78Z" fill="#7f3f98"/><path d="M45.11,423.92a5.54,5.54,0,0,0-5.4-5.54,7.22,7.22,0,0,0-5.44,2.45,3.65,3.65,0,0,0-.91-1.39.18.18,0,0,0-.25,0c-1.8,1.81-1,4.6-1,7q.06,5.51.1,11a1.24,1.24,0,0,0,2.47,0c0-1.77,0-3.55-.08-5.33a6.26,6.26,0,0,0,6.29.64C44,431.25,45.25,427.18,45.11,423.92ZM40.27,430c-1.8,1.22-3.84.35-5.1-1.15a1.17,1.17,0,0,0-.62-.39l0-2c0-1.07.12-2.23.11-3.34,1.18-.84,2.14-2,3.62-2.36a3.37,3.37,0,0,1,4.41,3.53C42.64,426.18,41.94,428.84,40.27,430Z" fill="#7f3f98"/><path d="M59,425c-.06-1.58.1-3.73-.8-5.14-1.72-2.7-6.24-1.85-8.48-.43a1,1,0,0,0-.51.88c0,.16,0,.32,0,.48a.4.4,0,0,0,.29.38c.94.29,1.47-.14,2.41-.37,2.24-.54,4-.18,4.55,2.33a11.88,11.88,0,0,1,.21,1.89,6.19,6.19,0,0,0-5.47-1.5c-2.13.65-3.22,3-3,5.13a4.49,4.49,0,0,0,4.35,4.19,7.15,7.15,0,0,0,4-1.29c0,.12,0,.24,0,.36a1.22,1.22,0,0,0,2.44,0A40.91,40.91,0,0,0,59,425ZM50.77,428c.22-3.28,3.74-1.5,5.95-1.54q0,.87-.09,1.74c-1,.71-1.78,1.77-3.09,2.07A2.1,2.1,0,0,1,50.77,428Z" fill="#7f3f98"/><path d="M74.57,420.65c.4-3-4-3.14-5.93-2.61A7.36,7.36,0,0,0,63,424.1c-.39,3.08.2,6.5,3.24,8,2.49,1.2,6.62.46,7.8-2.28a1.14,1.14,0,0,0-1.55-1.55c-1.51.7-2.67,2-4.53,1.5-2.31-.66-2.47-3.47-2.08-5.44a4.65,4.65,0,0,1,3.84-3.6c1.61-.37,2.58.09,4,.56a.64.64,0,0,0,.79-.61Z" fill="#7f3f98"/><path d="M88.3,428.64c-3.17,2.39-7.68,2.22-8.19-2.21a35,35,0,0,0,8.24-.52c1.74-.36,2.1-1.91,1.72-3.54-1-4.2-6.18-5.18-9.48-3.12-3.58,2.23-4.37,7.56-2.08,11,2.64,4,7.72,2.69,11,.43C90.79,429.83,89.51,427.72,88.3,428.64Zm-5.61-7.37c1.49-.62,5-.1,4.83,2.09-2.27.6-4.85.47-7.26.66A4,4,0,0,1,82.69,421.27Z" fill="#7f3f98"/><path d="M93.94,426.35c1.5.6,3.3.07,4.87.15a1.48,1.48,0,0,0,1.48-1.48,1.83,1.83,0,0,0-.05-.4,1.49,1.49,0,0,0-1.82-1c-1.5.5-3.36.46-4.66,1.44a.74.74,0,0,0,.18,1.32Z" fill="#7f3f98"/><path d="M106,420.17c-.1-2.36.2-4.92-1.5-6.67a.23.23,0,0,0-.35,0c-1.45,2.16-.57,5.06-.47,7.55.13,3.39.06,6.78.17,10.17a1.16,1.16,0,0,0,2.31,0v-.21a6.82,6.82,0,0,0,4.91,1.37c3-.57,4.68-3.54,5-6.37C116.65,419.87,110.51,417.16,106,420.17Zm4.58,9.75c-1.76.24-3-1-4.32-2h0c0-1.87,0-3.74-.14-5.61a6.24,6.24,0,0,1,4.54-1.29,4.13,4.13,0,0,1,3.11,4.35C113.71,427.32,112.7,429.63,110.58,429.92Z" fill="#7f3f98"/><path d="M124.51,426a28.7,28.7,0,0,1,6.48.31,1.23,1.23,0,0,0,1.49-1.49c-.55-2.9-3.14-5.94-6.26-6.09s-5.68,2.52-6.36,5.49c0,.22-.07.45-.11.67a.6.6,0,0,0-.08.21c0,.08,0,.16,0,.25a.73.73,0,0,0,0,.36,7.4,7.4,0,0,0,3.13,6.87c3.17,2,6.17.2,8.73-1.86,1.19-.95-.5-2.65-1.68-1.68-1.64,1.35-3.71,2.8-5.8,1.4a4.84,4.84,0,0,1-1.91-4.26C122.94,426.11,123.75,426,124.51,426Zm2-4.69a4.76,4.76,0,0,1,2.91,2.39,25.58,25.58,0,0,0-6.88.28C123.21,422.33,124.62,420.9,126.53,421.28Z" fill="#7f3f98"/><path d="M141,429.57c-2.08,1.49-2.41-2.8-2.49-5.41a5.76,5.76,0,0,0,2.3,0,1.24,1.24,0,0,0,0-2.37,5.68,5.68,0,0,0-2.37-.14,38.44,38.44,0,0,0-.32-6.79c-.15-.73-1.18-.62-1.38,0a29.78,29.78,0,0,0-.72,6.89,9.52,9.52,0,0,0-1.49.2.86.86,0,0,0,0,1.65,11.48,11.48,0,0,0,1.51.29c.22,5.5,1.65,10.76,6,7.49C143.16,430.61,142.13,428.77,141,429.57Z" fill="#7f3f98"/><path d="M160.64,419.12c-.81,2.81-1.64,5.62-2.44,8.44-1.41-3-2.82-5.95-4.07-9a1.11,1.11,0,0,0-2-.27,51.71,51.71,0,0,0-3.85,8.51,31.34,31.34,0,0,0-3.56-7.89.74.74,0,0,0-1.34.57c.79,4.08,2.41,8.09,3.52,12.1a1.35,1.35,0,0,0,2.59,0c1.09-3.33,2.4-6.57,3.66-9.83,1.42,3.35,2.7,6.74,4,10.13a1.4,1.4,0,0,0,2.68,0c1.23-4,2.33-8,3.48-12A1.41,1.41,0,0,0,160.64,419.12Z" fill="#7f3f98"/><path d="M176.28,430.09c-3.7,3-6.76-.16-7.56-3.66a56.21,56.21,0,0,0,7.11-.08c1.54-.07,3.11-.05,3-2-.17-4.41-4.69-7.62-8.77-6s-5.1,7-3.27,10.69c2.14,4.29,7.35,5.86,11.16,2.75C179.2,430.82,177.48,429.12,176.28,430.09Zm-3.56-9.63a3.68,3.68,0,0,1,2.93,2.15,8.46,8.46,0,0,1,.65,1.48,15,15,0,0,0-1.75.07c-2,.17-4,.24-6,.54C168.52,422.32,169.74,420.25,172.72,420.46Z" fill="#7f3f98"/><path d="M191.59,426.39c1.5-.11,4.06,0,4.12-2s-2.15-4-3.62-5a6.41,6.41,0,0,0-5.84-.84c-4.16,1.67-5.59,7.45-3.4,11.14s7.67,4.76,10.75,1.36a1.2,1.2,0,0,0-1.7-1.7,4.44,4.44,0,0,1-7.13-1.86,4.51,4.51,0,0,1-.21-.93C186.8,427,189.72,426.53,191.59,426.39Zm-6.7-2.57c.61-1.72,2-3.14,3.86-2.87a5.59,5.59,0,0,1,3.22,1.92,4,4,0,0,0,.72.67.37.37,0,0,0-.2,0,8.43,8.43,0,0,1-2.26.19C188.68,423.85,186.65,423.59,184.89,423.82Z" fill="#7f3f98"/><path d="M210.65,431.18a30.88,30.88,0,0,1-.64-4.77c0-1.23.12-2.46,0-3.69a5,5,0,0,0-2.58-4.17c-2.6-1.24-5,.71-6.52,3a8.23,8.23,0,0,0-.51-2,.92.92,0,0,0-1.77,0c-.52,1.94-.2,4.11-.16,6.12a34.71,34.71,0,0,0,.2,6.21,1.19,1.19,0,0,0,2.29,0,23.87,23.87,0,0,0,.16-6.21c0-.55,0-1.12,0-1.7a12.67,12.67,0,0,0,1.74-1.38c1.28-1.19,3.84-3,4.58-.19.36,1.38,0,3.07-.14,4.48a30.65,30.65,0,0,0-.06,4.79A1.75,1.75,0,1,0,210.65,431.18Z" fill="#7f3f98"/><path d="M449.75,631.18q-.25-9.91-.52-19.85c-.07-2.63-2.15-3.65-4.41-2.54a8.69,8.69,0,0,0-4.24,7.35l.45,17q.09,3.78.2,7.56c0,1.24.06,2.48.1,3.73-6.43,1.84-14.29,1.5-20.47,1.42-8.28-.11-16.55-.81-24.83-.9-16.42-.16-33.16,2.27-49.5.34-4.62-.54-9.45,10.35-4.13,11,12.77,1.51,26,.19,38.77-.18,12.5-.36,24.91.72,37.39.75a99.69,99.69,0,0,0,17.35-1.27c5.39-.94,10.76-1.89,13.17-7.33C451.29,643.27,449.89,636.47,449.75,631.18Z" fill="#1e1e1e" opacity="0.15"/><path d="M276.89,606.6c-.58-7.09-9,.18-8.65,4.8.54,6.64,1.43,13.25,1.77,19.91a41.17,41.17,0,0,1-.61,11.52c-.54,2.32-.68,2.83-2.91,3.44a30.63,30.63,0,0,1-5.71.77c-15.22,1.22-30.88-.65-46-2.15-4.63-.47-9.43,10.45-4.13,11,9.8,1,19.6,1.86,29.45,2.21,8.6.3,20,1.69,28.06-2.24,7.78-3.81,10-13.66,10.5-21.54C279.26,625.05,277.64,615.78,276.89,606.6Z" fill="#1e1e1e" opacity="0.15"/><path d="M143.3,607.39c-.35-7.09-8.88.19-8.65,4.8.31,6.33.5,12.67.51,19q0,4.27-.08,8.56c0,1.58-.08,3.17-.13,4.75,0,.15,0,.48-.1.87-5.59,1.14-11.74,1.3-17.15,1.58-7.39.37-14.78.32-22.16.06-14.86-.52-29.66-1.87-44.51-2.45-4.67-.18-9.34,10.78-4.13,11,24.61,1,49.26,4.07,73.9,1.88,5.24-.47,11.65-.52,16.58-2.47,4.35-1.72,5.78-6.22,6-10.5A342.27,342.27,0,0,0,143.3,607.39Z" fill="#1e1e1e" opacity="0.15"/><path d="M335.63,603.07c.43-2,1.06-4.57,5.82-5.58,1.18-.25,90.73-1.09,96.36.49s6.36,7.07,6.22,9.4c-.09,1.51.18,33-.16,36-.16,1.36-.22,4.22-2.27,5.37-3.74,2.1-99.11,1.72-101.18.79s-4.23-5.11-4.45-7.59S335.2,605.06,335.63,603.07Z" fill="#f7941f"/><path d="M203.91,646.67c.21,1,3.09,3.32,5.34,3.84.56.13,55.93,1.43,58.48-.39,3.33-2.38,3.12-8,3.08-8.78,0,0,.16-37.66,0-39.22-.07-.7-2.61-3.65-3.58-4.24-1.76-1.08-50.41-.58-55.06-.77-7.5-.3-8.17,3.84-8.28,5.11S203.71,645.65,203.91,646.67Z" fill="#f7941f"/><path d="M137.51,601.93a6.71,6.71,0,0,0-4.14-4.37c-4.31-1.36-83.18-1.44-90.92-.52-3.9.46-3.07,6.41-3,7.19l-.69,38.15c.19,1.57,2.55,6.82,3.69,7.41,2.09,1.08,85,1.66,90.85.68,4.73-.78,3.65-2.85,3.77-4.13S137.75,603,137.51,601.93Z" fill="#f7941f"/><path d="M439.77,600.47A281.06,281.06,0,0,0,396,598.12c-6.75.17-13.49.68-20.24.66-7.22,0-14.41-1-21.63-.9-4.7.06-11.48-.2-15,3.46s-3.26,10.86-3.77,15.74c-.61,5.89-1.22,11.84-.43,17.73.58,4.39,2,11.34,6.83,12.68,3.26.9,7.1-7.13,3.09-8.23-3.75-1-3.85-11.77-3.82-14.64a132.59,132.59,0,0,1,1.36-15.28c0-.13.14-1.31.28-2.41l.73-.15c3,.24,6.39-.7,9.5-.66,5.67.07,11.33.71,17,.85,10.84.27,21.67-.8,32.52-.7a280.53,280.53,0,0,1,31.6,2.1c.28.71.92,1,2.06.69l1.37-.43C439.75,607.91,444.06,601,439.77,600.47Z" fill="#fff" opacity="0.25"/><path d="M444.5,602.48c-1.83-5.19-6.5-5.1-11.28-5.66-12.05-1.4-24.46-.89-36.59-.9-13.85,0-27.73-.33-41.58.15-5.05.17-11.35-.4-16.24,1-5.38,1.53-3.54,7.36-3.92,11.51a.36.36,0,0,0,0,.15c-1.2,8-.17,16.87,0,25,.09,4.73-1,12.22,3.2,15.77,3.27,2.78,9.81,1.63,13.87,1.86,19.1,1.08,38.41.1,57.53-.13,9.45-.11,19.56.83,28.93-.38,5.61-.73,6.6-2.76,6.6-7.93,0-9.88.1-19.77.07-29.65C445.09,609.82,445.64,605.72,444.5,602.48Zm-4.75,45.79c-3.2,1.25-7.9.4-11.25.4-4.75,0-9.5.1-14.24.16-17.81.21-35.63.59-53.44.45-3.72,0-7.42-.14-11.12-.31-4.54-.2-9.52,1-11.89-3.77-1.62-3.3-1-7.69-1.13-11.26-.3-8-1.6-17.07-.39-25a.39.39,0,0,0,0-.14c.24-1.62,0-3.25.13-4.88.29-3.82,2.21-5,5.52-5.22,4.67-.29,9.37-.52,14.05-.65,11.5-.29,23,0,34.53,0,9.21,0,18.42.06,27.63.27,6.51.14,13,.13,19.42,1.33,5.44,1,5.33,5.95,5.32,10.49,0,9.15,0,18.3-.05,27.46C442.86,641.18,443.73,646.71,439.75,648.27Z" fill="#1e1e1e"/><path d="M268.43,600.86c-.05-.69-.26-1.76-1-2.09-3.86-1.76-9-1.63-13.19-1.72a95.94,95.94,0,0,0-14.27.87h-.05c-1.14-.13-2.28-.27-3.43-.39-4.45-.45-8.91-.81-13.38-.94-4.15-.11-9.5-.74-13.48.8-7.38,2.85-4.34,12.7-4.3,18.7.07,10,.82,20.56-.18,30.51-.58,5.85,5.92,2.3,6.31-1.61.71-7,.28-14.19.32-21.23,0-3.75.06-7.52,0-11.28,0-2.44-.45-5.15-.61-7.74a55.88,55.88,0,0,1,6.89,0c3.19.05,6.38.22,9.56.46,6.39.49,12.74,1.31,19.09,2.11C252.86,608.14,269.12,612.05,268.43,600.86Z" fill="#fff" opacity="0.25"/><path d="M136.71,599.93c-6.64-2.11-13.34-1.81-20.23-1.78-8.09.05-16.18,0-24.28,0-15.92-.1-31.85-.29-47.78-.45-2.7,0-4.93,3.44-4.79,5.92.42,7.63.79,15.25.88,22.88-.56,6.41-.49,12.94-.57,19.18,0,2,1.65,2.66,3.31,1.91,2-.91,3-3.48,3.18-5.51C47,635,47.11,628,47,621c.67-5.47,2.1-10.67,5.06-14.92q17.57.18,35.13.32,11.65.07,23.31,0c7.11,0,14.84-.86,21.73,1.32C135.83,608.87,140,601,136.71,599.93Z" fill="#fff" opacity="0.25"/><path d="M138.44,635.61c0-7,0-13.9-.05-20.84,0-4.13.36-8.54-.16-12.66a.52.52,0,0,0,0-.18c-.71-5.67-4.24-5.43-9.19-5.73-5.9-.36-11.82-.65-17.74-.67-10.22,0-20.45,0-30.67,0-9.33,0-18.66,0-28,.2-4,.1-12.28-.92-13.94,3.88-.95,2.74-.4,7-.46,9.89-.2,10.65-1,21.47-.63,32.11.15,4.11.95,8.89,5.47,9.74s9.63.22,14.2.27c21.38.25,42.83.95,64.2.5,3.83-.08,14.53,1.53,16.4-3.27C139.25,645.33,138.44,639.38,138.44,635.61ZM136.81,612c-.05,5.67-.13,11.34-.2,17-.06,4.14,0,8.29-.19,12.43a21.5,21.5,0,0,1-.42,5.22c-1.12,3.72-4.79,2.87-7.92,3-19.63.71-39.34,0-59-.23l-14-.15-3.58,0c-4,0-9.13,1.2-10.83-3.2-1.23-3.18-.79-6.69-.74-10q.12-7.84.26-15.7c.08-4.71.18-9.43.24-14.15,0-.74,0-1.49,0-2.23,0-2-.2-3.25,1.44-4.65,1.44-1.22,3.09-1.21,4.86-1.32,8.46-.52,17-.43,25.45-.43l34.85,0c3.55,0,7.1,0,10.65.1,3.77.12,7.55.25,11.33.44,3.29.17,7,0,7.73,4a.37.37,0,0,0,.05.11C137.25,605.38,136.84,608.87,136.81,612Z" fill="#1e1e1e"/><path d="M271.8,635.28q-.14-13.2-.26-26.4c0-.86,0-1.74,0-2.6-.08-1.69.43-5.22-.28-6.62-1.64-3.26-8.48-3.29-11.6-3.53-9.16-.7-18.42-.7-27.59-.53-5.13.09-10.25.33-15.37.37-4,0-8.88-.94-12,2.21-1.79,1.8-1.94,3.86-1.94,6.22,0,4.58.09,9.17.15,13.75.12,9.15.44,18.32.35,27.47a.59.59,0,0,0,0,.27c.67,6.92,9.8,5.69,14.75,5.78,9,.16,18.06.26,27.08.36,2.33,0,4.65.05,7,.09,4.6.09,10.76,1,15.14-.78C272.67,649.1,271.85,640.21,271.8,635.28Zm-2,6.06c-.14,2-.69,5.47-2.06,7-1.72,2-5.4,1.63-7.8,1.7-3.95.11-7.9,0-11.86-.08q-10.08-.07-20.16-.19l-13.43-.14c-3.32,0-9,.7-9.77-4v0c.15-13.9-.18-27.85.31-41.75.14-3.78,2.12-5.65,6.36-5.78s8.38.06,12.55,0c7.71-.19,15.36-.43,23.05-.14,4.23.16,8.49.13,12.7.44,2.09.16,6.68.23,8.42,1.56,1.35,1,1.12,4.32,1.23,6.24.35,6,.17,12.06.25,18.06C269.61,629.89,270.14,635.72,269.76,641.34Z" fill="#1e1e1e"/><path d="M24.4,564.52a9,9,0,0,1-2.69-.92c-2-1.41-1.32-2.78.38-3.36,2.14-.72,3.19.88,5,.71a.46.46,0,0,0,.43-.33c1.16-4-8.19-3.67-9.18.25-.55,2.2,1.14,4,3,4.89,1.21.57,3.47.54,4.41,1.45,2,2-1,3.2-2.26,3.33a4,4,0,0,1-3.8-1.82,1.16,1.16,0,1,0-1.83,1.41,6.64,6.64,0,0,0,6.42,2.49c1.87-.38,4.35-1.93,4.54-4.06C29.05,566.05,26.33,565.06,24.4,564.52Z" fill="#7f3f98"/><path d="M472.06,586.66l-93.72-1.57c-1.88,0-3.73,2-4.77,4.15-37.89,0-75.79-.81-113.66-1.87-70.41-2-140.85-4.53-211.29-3.06-9.44.2-19.12-.07-28.51.88-7.26.73-11.28,6-11.61,13.12-.9,19.55-.2,39.61,1,59.13.38,6.2,7.82-.17,7.57-4.2-1-16.48-1-33-1-49.48,0-2,0-3.92,0-5.88a11.29,11.29,0,0,1,0-3h0c1.35-.63,3.76-.29,5.16-.34l6.94-.23q12.39-.37,24.79-.58c33.72-.56,67.45-.24,101.17.46,66.79,1.39,133.56,4.25,200.37,4.61,38,.2,76-.44,114-2.57C472.27,596.06,476.77,586.74,472.06,586.66Z" opacity="0.2"/><path d="M45,563.85c-.48-3.14-2.24-5.08-5.55-5.18a7.6,7.6,0,0,0-5.44,2c-.1-.59-.2-1.19-.33-1.78a1,1,0,0,0-2,.27c.22,6.08.78,12,.49,18.13-.07,1.54,2.33,1.54,2.4,0,.1-2.07.16-4.18.16-6.29a7.28,7.28,0,0,0,7.12.83C45.06,570.64,45.45,566.82,45,563.85ZM42.36,569c-1.42,2-5.59,1.62-6.93-.17a1.08,1.08,0,0,0-.7-.43c-.06-1.81-.18-3.61-.39-5.4A7.85,7.85,0,0,1,38,560.82c2-.42,4.16.16,4.76,2.32C43.19,564.75,43.39,567.52,42.36,569Z" fill="#7f3f98"/><path d="M59.68,564.16c0-1.56,0-3.33-1-4.63-2-2.52-6.38-1.3-8.8-.23-1.18.52-.33,2.36.86,2a12.78,12.78,0,0,1,3.76-.72c.76,0,2,.21,2.49,1a5.16,5.16,0,0,1,.2,2.11l0,.9a8,8,0,0,0-4.35-1.06,4.42,4.42,0,0,0-4.27,4.39c0,4.5,5.5,5,8.78,3.12,0,.16,0,.33,0,.5a1.23,1.23,0,0,0,2.45,0C59.82,569.09,59.75,566.62,59.68,564.16Zm-5.41,5.51c-1.51.38-3.78-.08-3.35-2.19s2.91-1.78,4.4-1.34a17.32,17.32,0,0,0,2,.67c0,.49,0,1,0,1.46A11.68,11.68,0,0,1,54.27,569.67Z" fill="#7f3f98"/><path d="M74.28,561.15c1.24-2.6-3.17-3.3-4.84-3.19-3.12.21-5,2.4-5.93,5.24s-.31,6.06,2.35,7.91c3,2.07,6.84,1.53,9.75-.34a1.21,1.21,0,0,0-1.22-2.09c-2,1-4.14,1.81-6.3.86a4.23,4.23,0,0,1-2.36-5.33c.52-1.9,1.6-3.59,3.71-3.84,1.72-.21,2.78.62,4.32,1a.48.48,0,0,0,.52-.21Z" fill="#7f3f98"/><path d="M88.83,569.17c-2.37,2-6.16,2-8-.72a5,5,0,0,1-.77-1.83,36.14,36.14,0,0,0,8.76-.09c1.73-.17,3-.74,2.39-2.69-1.27-4.32-5.89-6.83-9.93-4.43a7.27,7.27,0,0,0-2,10.69c2.79,3.68,8,3.6,11.3.77C91.71,569.87,90,568.18,88.83,569.17Zm-5.51-8.09a3.82,3.82,0,0,1,3.78,1,6.29,6.29,0,0,1,1.15,1.64l-.32.11c-1.16-.33-3.22.19-4.44.24s-2.26,0-3.38.12A4.4,4.4,0,0,1,83.32,561.08Z" fill="#7f3f98"/><path d="M93.51,566.34c.66.67,1.54.51,2.41.52a12.69,12.69,0,0,0,2.89-.05,1.31,1.31,0,0,0,0-2.51,7.88,7.88,0,0,0-3.06,0c-.91.12-1.86.14-2.38,1a.88.88,0,0,0,.14,1Z" fill="#7f3f98"/><path d="M112.48,559.17c-1.91-1.8-7.23-1.17-8.46,1.17a.53.53,0,0,0,.45.78,8.53,8.53,0,0,0,2.8-.54c2.25-.5,4.34.12,4.68,2.69.07.53.11,1.08.14,1.63a12.46,12.46,0,0,0-5.38-1.21,3.61,3.61,0,0,0-4.06,4c.13,2.1,1,4.63,3.3,5.17s4.33-.82,6.14-2.16l-.06,1.32c-.08,1.49,2.41,1.49,2.31,0C114.1,568.42,115.48,562,112.48,559.17Zm-4,11.35c-2.33,1.09-3.51-.68-3.65-2.79-.22-3.3,4.9-1.34,7.38-.69v1.11A31.71,31.71,0,0,1,108.45,570.52Z" fill="#7f3f98"/><path d="M125.72,558.6c-1.26-.48-3.12.87-4,1.65a7.33,7.33,0,0,0-.7.67,2.72,2.72,0,0,0-1.21-1.93.11.11,0,0,0-.11,0c-1.23,1.21-.63,3.18-.63,4.78,0,2.53-.26,5-.38,7.56-.06,1.27,2,1.58,2.25.3a30.87,30.87,0,0,0,.33-7.86c0-.15,0-.32,0-.48a9.85,9.85,0,0,1,1.93-1.64,8.38,8.38,0,0,1,1.5-.67c.59-.2,1.12-.23,1.53-.74A1,1,0,0,0,125.72,558.6Z" fill="#7f3f98"/><path d="M139.67,559.86a.86.86,0,0,0-1.33,0c-2.62-2.49-7-2-9.39.7s-2.79,7.37-.19,10.08C135.07,577.26,145.9,566.43,139.67,559.86Zm-2.12,9c-1.86,1.78-5.48,2.56-7.42.47-1.77-1.91-1.5-5.29.11-7.18,1.94-2.25,5-2,7.37-.62a.76.76,0,0,0,.77,0C139.43,564.05,139.77,566.7,137.55,568.84Z" fill="#7f3f98"/><path d="M158,571.71a96.62,96.62,0,0,1-.91-12.83,1.19,1.19,0,0,0-2.38,0,32.27,32.27,0,0,1-.55,5.64c-.28,1.4-.63,4.14-1.9,5a3.1,3.1,0,0,1-4.56-1.09,9.71,9.71,0,0,1-.56-3,43,43,0,0,1-.06-6,1.11,1.11,0,0,0-.78-1l-.15,0a.83.83,0,0,0-.94.38c-.65.91-.53,2.65-.56,3.71a24.28,24.28,0,0,0,.4,5.31c.51,2.68,1.85,4.53,4.71,4.76a5.4,5.4,0,0,0,5.55-3.32c.1.94.2,1.88.31,2.81A1.21,1.21,0,1,0,158,571.71Z" fill="#7f3f98"/><path d="M172.51,562.81c-.08-1.72-.32-3.41-2-4.21-2.14-1-5.42-.12-7.19,1.7a14.32,14.32,0,0,0-.22-1.44.9.9,0,0,0-1.73,0,45.31,45.31,0,0,0-.47,7.55c0,1.84-.7,4.35.74,5.74a1.14,1.14,0,0,0,1.88-.5c.71-1.76.14-4.28.07-6.16,0-1,0-1.91-.09-2.87,2.17-1.18,5.63-3.79,6.65-.25a16,16,0,0,1,.1,4c0,1.65,0,3.29-.12,4.94s2.66,1.69,2.61,0C172.6,568.5,172.66,565.65,172.51,562.81Z" fill="#7f3f98"/><path d="M188.7,562.37c0-2.9.42-6.08-.57-8.82a.61.61,0,0,0-1.17,0h0a17,17,0,0,0-.76,6.4,5.77,5.77,0,0,0-4.94-1.74c-2.72.46-4.77,3.7-5.14,6.27a8,8,0,0,0,3.58,7.46c2,1.22,4.53.56,6.52-.71,0,.41,0,.83,0,1.24a1.29,1.29,0,0,0,2.58,0C188.77,569.1,188.71,565.74,188.7,562.37Zm-5.4,7.44c-3.06,1.07-5.38-2.09-5.11-4.91.18-1.93,1.6-4.24,3.55-4.53s3.07,1,4.48,2c0,2,0,3.92,0,5.88C185.19,568.7,184.36,569.43,183.3,569.81Z" fill="#7f3f98"/><path d="M27.94,696.75c-2.78-3-10.17-3.17-10,2.21.07,2.45,2.17,3.17,4.13,3.93,1.27.49,5.2,1.3,4.14,3.25-.43.81-1.68,1-2.49,1.17-1.94.44-3.16.19-4.4-1.49a1.07,1.07,0,0,0-2,.82c1.08,5.08,11.06,4,11.66-.88.25-2-2.31-3.14-3.85-3.72-1-.38-2.05-.69-3.05-1.07a8.78,8.78,0,0,1-1.41-.6c-1.21-1.58-1-2.67.56-3.27,1.81-.66,3.87.57,5.44,1.28a1,1,0,0,0,1.26-1.63Z" fill="#7f3f98"/><path d="M44.62,701.16c-.56-2.78-2.4-5.46-5.37-5.91a7.85,7.85,0,0,0-5.4,1.52c0-.3-.06-.61-.11-.91-.15-.94-1.55-.65-1.6.22-.29,5.73-.49,11.58-.33,17.32,0,1.35,2.17,1.35,2.1,0-.09-2,0-4,.06-6.06a7.32,7.32,0,0,0,7.23,1.29C44.21,707.4,45.23,704.18,44.62,701.16Zm-4,5.15c-2.25,1.25-4.32,0-6-1.47a1.17,1.17,0,0,0-.46-.25c.06-1.83.08-3.65,0-5.46.74-.41,1.36-1.06,2.18-1.44,2.64-1.23,5,.21,5.87,2.78C42.77,702.49,42.64,705.15,40.57,706.31Z" fill="#7f3f98"/><path d="M59.73,701.05c-.2-1.69-.32-3.76-1.65-5-2-1.86-7.63-1.36-8.69,1.25a.42.42,0,0,0,.29.5c2.56.78,6.27-2.62,7.49,1.47a11.41,11.41,0,0,1,.42,2.46c-3-2-8.91-1.31-9.17,2.69-.15,2.18,1.78,4,3.76,4.47a8,8,0,0,0,5.41-.89v.15a1,1,0,0,0,2,.28A21,21,0,0,0,59.73,701.05Zm-9.19,3.76c-.13-1.17.43-1.45,1.49-1.78a6.75,6.75,0,0,1,1.89-.32,7.16,7.16,0,0,1,3.71,1c0,.47,0,.94,0,1.4C55.2,706.18,51,708.6,50.54,704.81Z" fill="#7f3f98"/><path d="M75.17,697.18c-1.09-2.8-4.36-2.7-6.86-2a6.83,6.83,0,0,0-5,6.15c-.33,2.65.38,5,2.68,6.48,3.1,2,5.91,1.49,9-.1,1.44-.73.17-2.91-1.26-2.17-2,1-3.65,1.51-5.78.69-1.88-.73-3-1.88-3-4,0-5,5-6.49,8.71-4a1,1,0,0,0,1.45-1.11Z" fill="#7f3f98"/><path d="M89.55,706.17c-1.87.62-3.88,1.27-5.85.85A4.75,4.75,0,0,1,80,703.29c1.57.09,3.14,0,4.71,0,1.75,0,3.91.26,5.61-.23a1.25,1.25,0,0,0,.89-1.18c.18-2.81-2.56-6.11-5.19-6.77a6.31,6.31,0,0,0-7.27,3.64,9.12,9.12,0,0,0-.64,2.49,1.1,1.1,0,0,0,0,1.79,7.17,7.17,0,0,0,2.13,4.66c2.76,2.59,6.67,1.92,9.94.91C91.74,708.1,91.07,705.67,89.55,706.17Zm-4.78-9.07a5.91,5.91,0,0,1,4,3.72c-1.58.14-3.44-.09-4.91-.07-1.28,0-2.56,0-3.84.14v0C80.42,698.53,82.18,696.49,84.77,697.1Z" fill="#7f3f98"/><path d="M93.45,703.4c.82.61,2,.45,2.93.47a16.17,16.17,0,0,0,3.19-.12c1.38-.25,1.44-2.64,0-2.84a15.37,15.37,0,0,0-3.39.05,4.68,4.68,0,0,0-2.94.81,1,1,0,0,0,.21,1.63Z" fill="#7f3f98"/><path d="M115.18,702.94a1.33,1.33,0,0,0,1.27-1.67,8.92,8.92,0,0,0-6.37-6.13c-3-.66-5.68,1.8-6.69,4.46-2.83,7.47,5.79,12.28,11.59,7.77,1.16-.91-.32-2.39-1.45-1.89-2.11.94-3.5,1.94-5.9,1a4.13,4.13,0,0,1-2.73-3A53.48,53.48,0,0,0,115.18,702.94Zm-9.9-2.68c1.82-4.44,6-2.91,7.94.21-2.74.19-5.52.27-8.23.66A7.39,7.39,0,0,1,105.28,700.26Z" fill="#7f3f98"/><path d="M129.34,695.75c-1,2.12-2,4.25-3,6.38-.4.87-.79,1.74-1.19,2.59-.07.14-.42.95-.71,1.63-.89-1.62-1.52-3.76-2.15-5.22-.84-1.93-1.48-4.15-2.94-5.68a.63.63,0,0,0-1.06.43c-.07,2.53,1.34,5.24,2.26,7.55.78,2,1.5,4.54,2.9,6.09a1.33,1.33,0,0,0,1.3.35c1.59-.4,2.29-2.89,2.89-4.17q2-4.29,4-8.63C132.25,695.56,130.07,694.23,129.34,695.75Z" fill="#7f3f98"/><path d="M143.57,696.43a4.57,4.57,0,0,0-5.21-.94c-3.69,1.73-6.57,7.41-4.12,11,2.88,4.27,7.57,3.57,11.39,1.18,1.31-.82.08-2.92-1.21-2.08-2.49,1.63-5.36,2.84-7.79.35a3.5,3.5,0,0,1-1.07-2.83c2.58.33,5.3.19,7.87.31,1.44.07,3.46.39,3.66-1.55S144.92,697.61,143.57,696.43Zm-1.5,4.49a35,35,0,0,0-5.79,0c.79-1.51,2.66-4.12,4.76-3.3a8.15,8.15,0,0,1,2.36,2.18C145,701.63,143.64,701,142.07,700.92Z" fill="#7f3f98"/><path d="M162,699.42a3.91,3.91,0,0,0-2.5-3.55c-1.64-.57-5.2.31-6.89,2-.11-.64-.23-1.28-.39-1.9-.21-.81-1.62-.92-1.74,0-.57,4.08.24,8.45.29,12.57,0,1.69,2.76,1.63,2.59,0-.27-2.62-.24-5.4-.45-8.1,1.77-.68,3.28-3,5.39-2.42,2.55.7,1.45,7.77,1.21,9.69-.2,1.62,2.36,1.62,2.55,0A32.86,32.86,0,0,0,162,699.42Z" fill="#7f3f98"/><path d="M166.53,690.42c-.88,2-.45,4.92-.52,7.06-.11,3.53-.13,7,0,10.54.06,1.58,2.59,1.5,2.4,0-.52-3.93-.24-7.9-.22-11.86,0-1.14.52-5.3-.92-5.94a.57.57,0,0,0-.75.2Z" fill="#7f3f98"/><path d="M182.3,695.54a52.57,52.57,0,0,0-4.62,9.1,77.83,77.83,0,0,0-4.85-9.16c-.48-.75-1.85-.51-1.79.49.14,2.07,1.4,3.81,2.25,5.65,1,2.24,2,4.5,3,6.75-.87,2.27-2,4.31-4.67,4.61-1.27.14-1.78,2.07-.32,2.41,3.75.88,5.3-1.55,6.58-4.65.2-.47.4-.94.61-1.4a1.53,1.53,0,0,0,.63-1.39c1.78-3.83,3.83-7.57,5.25-11.53C184.85,695.14,183,694.54,182.3,695.54Z" fill="#7f3f98"/><path d="M434.66,781.22c-.29-3.17-1.23-6-1.22-9.3s.25-6.3.41-9.45a78.36,78.36,0,0,0-1.34-20.79c-.6-2.81-3.78-1.86-5.34-.6a8.39,8.39,0,0,0-3,7.76c1.45,6.78,1.29,13.44.92,20.32-.18,3.15-.37,6.3-.3,9.45,0,1.25.06,2.54.2,3.8-1.29.4-2.57.83-3.88,1.16a39.06,39.06,0,0,1-12.57.85c-8.63-.56-17.21-1.81-25.81-2.73a173.78,173.78,0,0,0-26.09-1.23c-8.73.37-17.36,1.69-26.1,1.43-4.67-.14-9.32,10.82-4.13,11,14.24.42,28.24-2.13,42.54-1.09,14,1,28.22,4.41,42.23,3.76C419.32,795.16,435.68,792.5,434.66,781.22Z" opacity="0.15"/><path d="M278.5,743.63c-.62-2.79-3.77-1.86-5.34-.59a8.36,8.36,0,0,0-3,7.75,73.8,73.8,0,0,1,1.39,23.57c-.2,2-.47,3.93-.75,5.89-.14,1-.29,2-.44,2.93,0,.16-.08.29-.1.41-2.94,1-7.68.27-10.65.31-15.27.18-31.35.29-46.44-2.22-4.56-.76-9.49,10.08-4.13,11,10.2,1.7,20.7,1.73,31,2,5.14.15,10.28.24,15.42.18,4.45-.06,9.56.35,13.89-.86,9-2.52,9.59-13.11,10.47-20.81A88.57,88.57,0,0,0,278.5,743.63Z" opacity="0.15"/><path d="M164,741.25c-.54-2.84-3.81-1.83-5.34-.6a8.42,8.42,0,0,0-3,7.75c2.07,10.83-.14,21.83.53,32.74,0,.1,0,.8.06,1.51-2.57-.28-5.72.62-8.38.57-5.25-.09-10.49-.58-15.74-.87q-16.09-.87-32.21-1-8.3-.08-16.6,0c-4.24.06-9.89-.88-13.75,1.07-3,1.54-6.14,7.49-2.92,10.15l.21.16c1,.83,2.47.23,3.63-.61,1.81-.26,5.37.26,6.75.24,3.25,0,6.51-.08,9.76-.09q9.77,0,19.54.21c13,.31,26,1.81,39,1.73,4.71,0,10.46-.09,14.38-3.08s5.37-7.5,5.16-12.28C164.48,766.35,166.35,753.63,164,741.25Z" opacity="0.15"/><path d="M319.34,739.83c.71-1.9,1.17-4.5,5.94-5.51,1.18-.25,95.42-1.33,99.11.85s4,8.14,3.85,10.47c-.09,1.51,1.18,30,.83,33-.15,1.36-1.76,8.31-4.1,8.55-2.55.27-98.76.49-100.84-.44s-4.73-5.56-4.95-8S318.31,742.6,319.34,739.83Z" fill="#f7941f"/><path d="M206,783.64c.77,2.83,3.32,3.24,5.58,3.76.55.13,55.2.63,55.2.63,3.82-.06,5-6,5.45-6.49,1.17-1.11.06-40.68-.1-42.24-.07-.7-5.68-4.45-6.65-5-1.76-1.08-46.5.16-50.22-.12-6.82-.51-9.49,4.07-9.6,5.34S205.69,782.63,206,783.64Z" fill="#f7941f"/><path d="M158.34,739.42c-1-3-5.18-5.11-7.84-5.63-.66-.13-84.21-.36-85.83,0-1.24.28-3.14,2.12-3.72,2.58-1.38,1.11-1.44,42.77-1.44,42.77,0,3.88,5.28,7.22,6.42,7.81,2.09,1.08,88.63.52,89.91.18,3-.81,3.92-4.11,4-5.39S158.65,740.42,158.34,739.42Z" fill="#f7941f"/><path d="M155.66,735.57c-12.31-3.22-24.93-3.11-37.55-2.52-13,.61-25.85,1.09-38.81.62-4-.15-10.42-1.95-13.83.93-3.58,3-2.58,8.1-2.64,12.18-.16,12.35-2.95,25.74.79,37.78,1.35,4.36,7.25-2.13,6.24-5.37-2.17-7-1.57-14.7-1.19-21.93.18-3.44.42-6.88.55-10.33.07-1.87.12-3.75.11-5.63a1.49,1.49,0,0,1,0-.19c2.39.12,5.34.73,6.86.79,3.82.14,7.65.22,11.47.24,7.27,0,14.52-.22,21.78-.58,14.46-.72,29-1.45,43.12,2.25C155.85,744.66,159.68,736.62,155.66,735.57Z" fill="#fff" opacity="0.25"/><path d="M271.28,738.56c-2.15-6.9-11-4.69-16.5-4.39l-25,1.35c-3,.17-6,.35-9,.6a.85.85,0,0,0,0-.17c-1.47-5.51-10.34-1.05-12.89,1.39-5.45,5.22-1.6,13.81-2.48,20.36l-.24,1.25c-.31,1.64.26,3.09,1.82,3.24-1.05,7.73-1.79,15.47,1.05,23,1.64,4.33,7.45-2.2,6.25-5.37-3.36-8.87-1-17.71,0-26.78.16-1.52.19-3.11.38-4.62a7.14,7.14,0,0,1,1.34-3.61c2.72-.27,6.41-.79,7.07-.83,2.81-.17,5.62-.31,8.43-.46l17.33-.94c.88,0,2.51-.29,4.41-.5a1.56,1.56,0,0,0,.73.54,44,44,0,0,0,12.67,2.77C269.49,745.55,272.07,741.13,271.28,738.56Z" fill="#fff" opacity="0.25"/><path d="M425.88,735.74c-9.93-3-20.14-2.08-30.33-1.28L376.14,736q-16.72.22-33.46-.41c-4.95-.19-11.78-1.63-16.48.3s-4.88,7.15-5.26,11.59c-1.09,12.77-2.61,25.76,2.53,37.91,1.81,4.29,7.56-2.25,6.24-5.37a47.78,47.78,0,0,1-3.46-19.29,124,124,0,0,1,1.06-17.55c2.46-.25,6.7.41,8.4.48,4.52.19,9,.36,13.57.46,3.3.08,6.6.12,9.9.15a1.32,1.32,0,0,0,1.5.93l12.33-1,2.44,0c8.4-.13,16.82-.68,25.22-.44,7.6.22,15.45,2.44,22.9.18C426.21,743.1,429.91,737,425.88,735.74Z" fill="#fff" opacity="0.25"/><path d="M429.53,751.83c-.11-3.45.11-7.11-.28-10.54-.75-6.47-4.74-7.29-10.31-8-11.9-1.55-24.13-.58-36.12-.59-14.39,0-28.81-.33-43.19.13-5.22.17-11.41-.28-16.49,1-5.38,1.34-4.52,7.24-5,11.53a.66.66,0,0,0,0,.14c-1.36,9-.2,19,0,28.1.07,3.87-.14,8.3,2.32,11.57,2.86,3.78,9.59,3.08,13.8,3.36,18.77,1.22,37.65-.78,56.44-.47,10.11.17,20.3,1.24,30.41.69,5.35-.3,8.82-2.2,9.17-7.79C430.82,771.32,429.83,761.44,429.53,751.83Zm-8.48,34.62c-8.54.53-17.26-.25-25.8-.58-17.66-.67-35.4.66-53.07.6-3.9,0-7.76-.15-11.65-.39-2-.12-4.77.08-6.59-.71-2.52-1.11-3.53-4.36-3.83-6.86-.17-1.37-.14-2.78-.18-4.16-.2-5.56-.33-11.13-.42-16.7-.07-3.87-.59-8.16,0-12a.54.54,0,0,0,.05-.11c.32-1.86.24-3.77.67-5.62.85-3.65,3.16-4.31,6.41-4.5,4.69-.29,9.41-.53,14.11-.64,11.62-.27,23.25,0,34.87,0,9.66,0,19.31,0,29-.08,3.3,0,6.59-.06,9.88.23,2.75.24,6.66.14,9.22,1.32,4.26,2,3.46,7.58,3.57,11.62.25,9.46.61,18.93.73,28.4C428.05,781.29,427.66,786,421.05,786.45Z" fill="#1e1e1e"/><path d="M273.53,772.05c-.07-8.36-.2-16.72-.27-25.08,0-3.05.66-6.36-.93-9.11-2.93-5.09-9.08-5-14.19-5.09-8-.21-15.89-.63-23.9-.23-5.32.26-10.64.52-16,.63-3.7.08-7.91-.69-11,1.88-4.93,4.14-2.75,14.17-2.68,19.61.12,9.23.45,18.49.35,27.72a.77.77,0,0,0,0,.27c.67,6.91,9.8,5.69,14.75,5.78,9,.16,18.06.26,27.08.36,7.05.08,15.23,1.46,22-.54C274.36,786.63,273.56,776.75,273.53,772.05Zm-2.75,9.35c-.37,2.26-.59,4.07-2.87,4.92-2.06.78-5,.51-7.19.54-3.66.06-7.33-.07-11-.1-6.87,0-13.74-.13-20.61-.2l-12.93-.13c-3.31,0-9,.7-9.77-4h0c.15-13.51-.38-27.14.31-40.63.42-8.31,11-6.32,17.1-6.54,6.65-.24,13.39-1,20-.74,4.33.18,8.65.35,13,.47a52.22,52.22,0,0,1,7.19.32c3.32.56,6.38,2.66,7.05,6.14a17.62,17.62,0,0,1-.05,3.48c-.08,6.24.18,12.5.27,18.74C271.37,769.57,271.76,775.56,270.78,781.4Z" fill="#1e1e1e"/><path d="M160.48,773.73c-.43-11,.16-22.56-1.48-33.41a.74.74,0,0,0,0-.33c-1.24-5.34-5.06-6.81-10-7.1-5.69-.33-11.4-.59-17.1-.61q-15.69,0-31.39,0c-9.54,0-19.07,0-28.6.24-4.35.14-11.56-.6-12.59,4.85-.57,3-.2,6.58-.26,9.6-.2,10.44-1.29,21.26-.63,31.67.73,11.4,12.88,9.65,21.1,9.75,21.56.25,43.19.94,64.75.45,4.17-.1,13.25,1.51,15.51-3.21C161.38,782.2,160.62,777.4,160.48,773.73Zm-2.15,9.4c-1.34,3.88-4.73,3.17-8.16,3.29-19.42.64-38.9,0-58.33-.2l-15.07-.16c-4.23,0-10.48,1-13.64-2s-2.46-7.05-2.41-10.91c.08-5.36.18-10.71.27-16.07q.12-6.95.23-13.9c0-.74,0-1.49,0-2.23,0-1.18-.35-3.05.27-4.08,1-1.73,3.66-1.9,5.41-2.08,8.32-.89,16.91-.49,25.28-.49l35,0c3.37,0,6.73,0,10.1.06,6.3.17,18-1.69,20.24,6a.26.26,0,0,0,.05.09c1.31,8.55.56,17.89.78,26.52.1,3.93.32,7.89.28,11.83A14.09,14.09,0,0,1,158.33,783.13Z" fill="#1e1e1e"/><path d="M478.93,647.75c-.17-8.3-.3-16.61-.46-24.91-.14-8,.21-16.19-.64-24.15-.59-5.56-2.2-11.6-8-13.63-7.13-2.5-16.18-.55-23.56-.33-4.3.12-8.55-.37-12.84-.38H352.59q-70.23,0-140.47.22-66.6.12-133.2.28l-43,.11c-7.27,0-15.38-.74-22.59.38-9.21,1.43-7,9.21-6.92,16.42,0,3,0,6,0,9q.13,16,.28,31.94c0,4.16-1.14,8.84-.15,12.84,1.54,6.25,7.71,8.11,13.44,8.37,5.48.25,11-.06,16.49-.07l78.77-.21q69.48-.2,139-.36l133.4-.35c20.64-.06,41.29-.21,61.94-.21,7.6,0,15.46.54,23-.78s6-7.66,6.43-13.89A.64.64,0,0,0,478.93,647.75Zm-1.88,7.17c-.45,4.56-3.83,5.31-7.67,5.67-5.36.5-10.84.32-16.22.28-1.46,0-2.91,0-4.37,0h-7.37l-34.23,0-120.31.24L147,661.43l-98.23.2c-5.28,0-10.56,0-15.85,0-7.9,0-24.71,2.91-24.42-9.42.09-3.84.39-7.64.37-11.48Q8.76,625,8.65,609.2c0-3.3.08-6.64-.09-9.94-.13-2.44-.78-5.19-.17-7.59,1-4.08,4.74-4.15,8.35-4.34,1.2-.06,2.42-.05,3.63-.06,2.13,0,4.26,0,6.4,0l32.9-.08,119.64-.25,141-.3q50.1-.12,100.21-.37c5.28,0,10.62-.27,15.9-.06,8.23.33,16.31-.22,24.54-.37,4.45-.08,9.95-.06,12.64,4.13,2.13,3.32,2.57,7.63,2.8,11.48.46,7.77.39,15.6.57,23.39s.36,15.41.52,23.11a.45.45,0,0,0,0,.11C477.31,650.32,477.28,652.63,477.05,654.92Z" fill="#1e1e1e"/></g></svg>